  0
SECTION
  2
HEADER
  9
$EXTMIN
 10
-0.431000
 20
-0.340000
  9
$EXTMAX
 10
0.279000
 20
0.109000
  9
$LIMMIN
 10
-0.431000
 20
-0.340000
  9
$LIMMAX
 10
0.279000
 20
0.109000
  9
$FILLMODE
 70
  1
  0
ENDSEC
  0
SECTION
  2
TABLES
  0
TABLE
  2
LTYPE
 70
  1
  0
LTYPE
  2
CONTINUOUS
 70
 64
  3
Solid line
 72
 65
 73
  0
 40
0.0
  0
ENDTAB
  0
TABLE
  2
LAYER
 70
 1
  0
LAYER
  2
0
 70
  0
 62
7
  6
CONTINUOUS
  0
LAYER
  2
gbl
 70
  0
 62
5
  6
CONTINUOUS
  0
ENDTAB
  0
TABLE
  2
STYLE
 70
  1
  0
STYLE
  2
STANDARD
 70
  0
 40
0.0
 41
1.0
 50
0.0
 71
  0
 42
0.2
  3
txt
  4

  0
ENDTAB
  0
ENDSEC
  0
SECTION
  2
BLOCKS
  0
BLOCK
  8
0
  2
D31
 70
64
 10
0.0
 20
0.0
  3
D31
  0
CIRCLE
  8
0
 10
0.000000
 20
0.000000
 40
0.004000
 0
ENDBLK
  8
0
  0
BLOCK
  8
0
  2
D38
 70
64
 10
0.0
 20
0.0
  3
D38
  0
CIRCLE
  8
0
 10
0.000000
 20
0.000000
 40
0.004920
 0
ENDBLK
  8
0
  0
BLOCK
  8
0
  2
D39
 70
64
 10
0.0
 20
0.0
  3
D39
  0
CIRCLE
  8
0
 10
0.000000
 20
0.000000
 40
0.003935
 0
ENDBLK
  8
0
  0
ENDSEC
  0
SECTION
  2
ENTITIES
  0
POLYLINE
  8
gbl
 62
5
 40
0.000000
 41
0.000000
 66
  1
  0
VERTEX
  8
gbl
 10
-0.200000
 20
-0.140000
  0
VERTEX
  8
gbl
 10
-0.200000
 20
-0.090000
  0
VERTEX
  8
gbl
 10
-0.200000
 20
-0.045000
  0
VERTEX
  8
gbl
 10
-0.200000
 20
-0.005000
  0
VERTEX
  8
gbl
 10
-0.200000
 20
0.035000
  0
SEQEND
  8
gbl
  0
POLYLINE
  8
gbl
 62
5
 40
0.000000
 41
0.000000
 66
  1
  0
VERTEX
  8
gbl
 10
-0.050450
 20
0.029190
  0
VERTEX
  8
gbl
 10
-0.050450
 20
0.060690
  0
SEQEND
  8
gbl
  0
POLYLINE
  8
gbl
 62
5
 40
0.000000
 41
0.000000
 66
  1
  0
VERTEX
  8
gbl
 10
-0.050450
 20
0.029190
  0
VERTEX
  8
gbl
 10
-0.050450
 20
0.029190
  0
VERTEX
  8
gbl
 10
-0.034710
 20
0.029190
  0
VERTEX
  8
gbl
 10
-0.003210
 20
0.029190
  0
SEQEND
  8
gbl
  0
POLYLINE
  8
gbl
 62
5
 40
0.000000
 41
0.000000
 66
  1
  0
VERTEX
  8
gbl
 10
-0.034710
 20
-0.017000
  0
VERTEX
  8
gbl
 10
-0.033650
 20
-0.018050
  0
VERTEX
  8
gbl
 10
-0.003210
 20
-0.018050
  0
SEQEND
  8
gbl
  0
POLYLINE
  8
gbl
 62
5
 40
0.000000
 41
0.000000
 66
  1
  0
VERTEX
  8
gbl
 10
-0.034710
 20
-0.033800
  0
VERTEX
  8
gbl
 10
-0.034710
 20
-0.017000
  0
VERTEX
  8
gbl
 10
-0.034710
 20
0.029190
  0
SEQEND
  8
gbl
  0
POLYLINE
  8
gbl
 62
5
 40
0.000000
 41
0.000000
 66
  1
  0
VERTEX
  8
gbl
 10
-0.081950
 20
-0.033800
  0
VERTEX
  8
gbl
 10
-0.081950
 20
0.029190
  0
VERTEX
  8
gbl
 10
-0.050460
 20
0.029190
  0
VERTEX
  8
gbl
 10
-0.050450
 20
0.029190
  0
SEQEND
  8
gbl
  0
POLYLINE
  8
gbl
 62
5
 40
0.000000
 41
0.000000
 66
  1
  0
VERTEX
  8
gbl
 10
-0.129190
 20
0.029190
  0
VERTEX
  8
gbl
 10
-0.129190
 20
0.060690
  0
SEQEND
  8
gbl
  0
POLYLINE
  8
gbl
 62
5
 40
0.000000
 41
0.000000
 66
  1
  0
VERTEX
  8
gbl
 10
-0.129190
 20
0.029190
  0
VERTEX
  8
gbl
 10
-0.081950
 20
0.029190
  0
VERTEX
  8
gbl
 10
-0.081950
 20
0.029190
  0
SEQEND
  8
gbl
  0
POLYLINE
  8
gbl
 62
5
 40
0.000000
 41
0.000000
 66
  1
  0
VERTEX
  8
gbl
 10
-0.200000
 20
0.035000
  0
VERTEX
  8
gbl
 10
-0.174240
 20
0.035000
  0
VERTEX
  8
gbl
 10
-0.168430
 20
0.029190
  0
VERTEX
  8
gbl
 10
-0.129190
 20
0.029190
  0
SEQEND
  8
gbl
  0
POLYLINE
  8
gbl
 62
5
 40
0.000000
 41
0.000000
 66
  1
  0
VERTEX
  8
gbl
 10
0.090000
 20
-0.240000
  0
VERTEX
  8
gbl
 10
0.135000
 20
-0.240000
  0
SEQEND
  8
gbl
  0
POLYLINE
  8
gbl
 62
5
 40
0.000000
 41
0.000000
 66
  1
  0
VERTEX
  8
gbl
 10
0.135000
 20
-0.310000
  0
VERTEX
  8
gbl
 10
0.135000
 20
-0.240000
  0
SEQEND
  8
gbl
  0
POLYLINE
  8
gbl
 62
5
 40
0.000000
 41
0.000000
 66
  1
  0
VERTEX
  8
gbl
 10
0.135000
 20
-0.327420
  0
VERTEX
  8
gbl
 10
0.135000
 20
-0.310000
  0
SEQEND
  8
gbl
  0
POLYLINE
  8
gbl
 62
5
 40
0.000000
 41
0.000000
 66
  1
  0
VERTEX
  8
gbl
 10
0.135000
 20
-0.327420
  0
VERTEX
  8
gbl
 10
0.143140
 20
-0.335550
  0
VERTEX
  8
gbl
 10
0.262320
 20
-0.335550
  0
VERTEX
  8
gbl
 10
0.275000
 20
-0.322880
  0
VERTEX
  8
gbl
 10
0.275000
 20
-0.295000
  0
SEQEND
  8
gbl
  0
POLYLINE
  8
gbl
 62
5
 40
0.000000
 41
0.000000
 66
  1
  0
VERTEX
  8
gbl
 10
-0.200000
 20
-0.199480
  0
VERTEX
  8
gbl
 10
-0.159480
 20
-0.240000
  0
SEQEND
  8
gbl
  0
POLYLINE
  8
gbl
 62
5
 40
0.000000
 41
0.000000
 66
  1
  0
VERTEX
  8
gbl
 10
-0.200000
 20
-0.199480
  0
VERTEX
  8
gbl
 10
-0.200000
 20
-0.140000
  0
SEQEND
  8
gbl
  0
POLYLINE
  8
gbl
 62
5
 40
0.000000
 41
0.000000
 66
  1
  0
VERTEX
  8
gbl
 10
-0.035000
 20
-0.239740
  0
VERTEX
  8
gbl
 10
-0.035000
 20
-0.195000
  0
SEQEND
  8
gbl
  0
POLYLINE
  8
gbl
 62
5
 40
0.000000
 41
0.000000
 66
  1
  0
VERTEX
  8
gbl
 10
-0.159480
 20
-0.240000
  0
VERTEX
  8
gbl
 10
-0.034740
 20
-0.240000
  0
SEQEND
  8
gbl
  0
POLYLINE
  8
gbl
 62
5
 40
0.000000
 41
0.000000
 66
  1
  0
VERTEX
  8
gbl
 10
-0.200000
 20
0.035000
  0
VERTEX
  8
gbl
 10
-0.200000
 20
0.072590
  0
SEQEND
  8
gbl
  0
POLYLINE
  8
gbl
 62
5
 40
0.000000
 41
0.000000
 66
  1
  0
VERTEX
  8
gbl
 10
-0.232410
 20
0.105000
  0
VERTEX
  8
gbl
 10
-0.200000
 20
0.072590
  0
SEQEND
  8
gbl
  0
POLYLINE
  8
gbl
 62
5
 40
0.000000
 41
0.000000
 66
  1
  0
VERTEX
  8
gbl
 10
-0.330000
 20
0.105000
  0
VERTEX
  8
gbl
 10
-0.232410
 20
0.105000
  0
SEQEND
  8
gbl
  0
POLYLINE
  8
gbl
 62
5
 40
0.000000
 41
0.000000
 66
  1
  0
VERTEX
  8
gbl
 10
-0.035000
 20
-0.239740
  0
VERTEX
  8
gbl
 10
-0.034740
 20
-0.240000
  0
VERTEX
  8
gbl
 10
0.090000
 20
-0.240000
  0
SEQEND
  8
gbl
  0
POLYLINE
  8
gbl
 62
5
 40
0.000000
 41
0.000000
 66
  1
  0
VERTEX
  8
gbl
 10
-0.081950
 20
-0.033800
  0
VERTEX
  8
gbl
 10
-0.081950
 20
-0.033800
  0
SEQEND
  8
gbl
  0
INSERT
  8
gbl
  2
D39
 10
-0.427450
 20
-0.128300
 41
1.0
 42
1.0
 43
1.0
 50
0.0
  0
INSERT
  8
gbl
  2
D39
 10
-0.003210
 20
0.029190
 41
1.0
 42
1.0
 43
1.0
 50
0.0
  0
INSERT
  8
gbl
  2
D39
 10
-0.050450
 20
0.060690
 41
1.0
 42
1.0
 43
1.0
 50
0.0
  0
INSERT
  8
gbl
  2
D39
 10
-0.081950
 20
-0.033800
 41
1.0
 42
1.0
 43
1.0
 50
0.0
  0
INSERT
  8
gbl
  2
D39
 10
-0.034710
 20
-0.033800
 41
1.0
 42
1.0
 43
1.0
 50
0.0
  0
INSERT
  8
gbl
  2
D39
 10
-0.129190
 20
0.060690
 41
1.0
 42
1.0
 43
1.0
 50
0.0
  0
INSERT
  8
gbl
  2
D39
 10
-0.003210
 20
-0.018050
 41
1.0
 42
1.0
 43
1.0
 50
0.0
  0
INSERT
  8
gbl
  2
D39
 10
-0.200000
 20
-0.045000
 41
1.0
 42
1.0
 43
1.0
 50
0.0
  0
INSERT
  8
gbl
  2
D39
 10
-0.200000
 20
-0.005000
 41
1.0
 42
1.0
 43
1.0
 50
0.0
  0
INSERT
  8
gbl
  2
D39
 10
-0.200000
 20
-0.090000
 41
1.0
 42
1.0
 43
1.0
 50
0.0
  0
INSERT
  8
gbl
  2
D39
 10
-0.200000
 20
0.035000
 41
1.0
 42
1.0
 43
1.0
 50
0.0
  0
INSERT
  8
gbl
  2
D39
 10
-0.200000
 20
-0.140000
 41
1.0
 42
1.0
 43
1.0
 50
0.0
  0
INSERT
  8
gbl
  2
D39
 10
-0.035000
 20
-0.195000
 41
1.0
 42
1.0
 43
1.0
 50
0.0
  0
INSERT
  8
gbl
  2
D39
 10
0.090000
 20
-0.240000
 41
1.0
 42
1.0
 43
1.0
 50
0.0
  0
INSERT
  8
gbl
  2
D39
 10
0.135000
 20
-0.240000
 41
1.0
 42
1.0
 43
1.0
 50
0.0
  0
INSERT
  8
gbl
  2
D39
 10
0.135000
 20
-0.310000
 41
1.0
 42
1.0
 43
1.0
 50
0.0
  0
INSERT
  8
gbl
  2
D39
 10
0.275000
 20
-0.295000
 41
1.0
 42
1.0
 43
1.0
 50
0.0
  0
INSERT
  8
gbl
  2
D39
 10
-0.330000
 20
0.105000
 41
1.0
 42
1.0
 43
1.0
 50
0.0
  0
ENDSEC
  0
EOF
