  0
SECTION
  2
HEADER
  9
$EXTMIN
 10
-0.444000
 20
-0.414000
  9
$EXTMAX
 10
0.418000
 20
0.379000
  9
$LIMMIN
 10
-0.444000
 20
-0.414000
  9
$LIMMAX
 10
0.418000
 20
0.379000
  9
$FILLMODE
 70
  1
  0
ENDSEC
  0
SECTION
  2
TABLES
  0
TABLE
  2
LTYPE
 70
  1
  0
LTYPE
  2
CONTINUOUS
 70
 64
  3
Solid line
 72
 65
 73
  0
 40
0.0
  0
ENDTAB
  0
TABLE
  2
LAYER
 70
 1
  0
LAYER
  2
0
 70
  0
 62
7
  6
CONTINUOUS
  0
LAYER
  2
gtl
 70
  0
 62
1
  6
CONTINUOUS
  0
ENDTAB
  0
TABLE
  2
STYLE
 70
  1
  0
STYLE
  2
STANDARD
 70
  0
 40
0.0
 41
1.0
 50
0.0
 71
  0
 42
0.2
  3
txt
  4

  0
ENDTAB
  0
ENDSEC
  0
SECTION
  2
BLOCKS
  0
BLOCK
  8
0
  2
D10
 70
64
 10
0.0
 20
0.0
  3
D10
  0
POLYLINE
  8
0
 66
1
 10
0.0
 20
0.0
 40
0.028350
 41
0.028350
  0
VERTEX
  8
0
 10
-0.014175
 20
0.0
  0
VERTEX
  8
0
 10
0.014175
 20
0.0
  0
SEQEND
  8
0
 0
ENDBLK
  8
0
  0
BLOCK
  8
0
  2
D11
 70
64
 10
0.0
 20
0.0
  3
D11
  0
POLYLINE
  8
0
 66
1
 10
0.0
 20
0.0
 40
0.039370
 41
0.039370
  0
VERTEX
  8
0
 10
-0.009840
 20
0.0
  0
VERTEX
  8
0
 10
0.009840
 20
0.0
  0
SEQEND
  8
0
 0
ENDBLK
  8
0
  0
BLOCK
  8
0
  2
D12
 70
64
 10
0.0
 20
0.0
  3
D12
  0
POLYLINE
  8
0
 66
1
 10
0.0
 20
0.0
 40
0.025590
 41
0.025590
  0
VERTEX
  8
0
 10
-0.012795
 20
0.0
  0
VERTEX
  8
0
 10
0.012795
 20
0.0
  0
SEQEND
  8
0
 0
ENDBLK
  8
0
  0
BLOCK
  8
0
  2
D13
 70
64
 10
0.0
 20
0.0
  3
D13
  0
POLYLINE
  8
0
 66
1
 10
0.0
 20
0.0
 40
0.025590
 41
0.025590
  0
VERTEX
  8
0
 10
-0.012795
 20
0.0
  0
VERTEX
  8
0
 10
0.012795
 20
0.0
  0
SEQEND
  8
0
 0
ENDBLK
  8
0
  0
BLOCK
  8
0
  2
D14
 70
64
 10
0.0
 20
0.0
  3
D14
  0
POLYLINE
  8
0
 66
1
 10
0.0
 20
0.0
 40
0.013780
 41
0.013780
  0
VERTEX
  8
0
 10
-0.006890
 20
0.0
  0
VERTEX
  8
0
 10
0.006890
 20
0.0
  0
SEQEND
  8
0
 0
ENDBLK
  8
0
  0
BLOCK
  8
0
  2
D15
 70
64
 10
0.0
 20
0.0
  3
D15
  0
POLYLINE
  8
0
 66
1
 10
0.0
 20
0.0
 40
0.013780
 41
0.013780
  0
VERTEX
  8
0
 10
-0.006890
 20
0.0
  0
VERTEX
  8
0
 10
0.006890
 20
0.0
  0
SEQEND
  8
0
 0
ENDBLK
  8
0
  0
BLOCK
  8
0
  2
D16
 70
64
 10
0.0
 20
0.0
  3
D16
  0
POLYLINE
  8
0
 66
1
 10
0.0
 20
0.0
 40
0.028740
 41
0.028740
  0
VERTEX
  8
0
 10
-0.014565
 20
0.0
  0
VERTEX
  8
0
 10
0.014565
 20
0.0
  0
SEQEND
  8
0
 0
ENDBLK
  8
0
  0
BLOCK
  8
0
  2
D17
 70
64
 10
0.0
 20
0.0
  3
D17
  0
POLYLINE
  8
0
 66
1
 10
0.0
 20
0.0
 40
0.029130
 41
0.029130
  0
VERTEX
  8
0
 10
-0.014370
 20
0.0
  0
VERTEX
  8
0
 10
0.014370
 20
0.0
  0
SEQEND
  8
0
 0
ENDBLK
  8
0
  0
BLOCK
  8
0
  2
D18
 70
64
 10
0.0
 20
0.0
  3
D18
  0
POLYLINE
  8
0
 66
1
 10
0.0
 20
0.0
 40
0.028350
 41
0.028350
  0
VERTEX
  8
0
 10
-0.014175
 20
0.0
  0
VERTEX
  8
0
 10
0.014175
 20
0.0
  0
SEQEND
  8
0
 0
ENDBLK
  8
0
  0
BLOCK
  8
0
  2
D19
 70
64
 10
0.0
 20
0.0
  3
D19
  0
POLYLINE
  8
0
 66
1
 10
0.0
 20
0.0
 70
1
 40
0.009840
 41
0.009840
  0
VERTEX
  8
0
 10
-0.004920
 20
0.0
 42
1.0
  0
VERTEX
  8
0
 10
0.004920
 20
0.0
 42
1.0
  0
SEQEND
  8
0
 0
ENDBLK
  8
0
  0
BLOCK
  8
0
  2
D20
 70
64
 10
0.0
 20
0.0
  3
D20
  0
POLYLINE
  8
0
 66
1
 10
0.0
 20
0.0
 40
0.027560
 41
0.027560
  0
VERTEX
  8
0
 10
-0.009840
 20
0.0
  0
VERTEX
  8
0
 10
0.009840
 20
0.0
  0
SEQEND
  8
0
 0
ENDBLK
  8
0
  0
BLOCK
  8
0
  2
D21
 70
64
 10
0.0
 20
0.0
  3
D21
  0
POLYLINE
  8
0
 66
1
 10
0.0
 20
0.0
 40
0.039370
 41
0.039370
  0
VERTEX
  8
0
 10
-0.009840
 20
0.0
  0
VERTEX
  8
0
 10
0.009840
 20
0.0
  0
SEQEND
  8
0
 0
ENDBLK
  8
0
  0
BLOCK
  8
0
  2
D22
 70
64
 10
0.0
 20
0.0
  3
D22
  0
POLYLINE
  8
0
 66
1
 10
0.0
 20
0.0
 40
0.019680
 41
0.019680
  0
VERTEX
  8
0
 10
-0.019685
 20
0.0
  0
VERTEX
  8
0
 10
0.019685
 20
0.0
  0
SEQEND
  8
0
 0
ENDBLK
  8
0
  0
BLOCK
  8
0
  2
D23
 70
64
 10
0.0
 20
0.0
  3
D23
  0
POLYLINE
  8
0
 66
1
 10
0.0
 20
0.0
 40
0.059050
 41
0.059050
  0
VERTEX
  8
0
 10
-0.014565
 20
0.0
  0
VERTEX
  8
0
 10
0.014565
 20
0.0
  0
SEQEND
  8
0
 0
ENDBLK
  8
0
  0
BLOCK
  8
0
  2
D24
 70
64
 10
0.0
 20
0.0
  3
D24
  0
POLYLINE
  8
0
 66
1
 10
0.0
 20
0.0
 40
0.039370
 41
0.039370
  0
VERTEX
  8
0
 10
-0.039370
 20
0.0
  0
VERTEX
  8
0
 10
0.039370
 20
0.0
  0
SEQEND
  8
0
 0
ENDBLK
  8
0
  0
BLOCK
  8
0
  2
D25
 70
64
 10
0.0
 20
0.0
  3
D25
  0
POLYLINE
  8
0
 66
1
 10
0.0
 20
0.0
 70
1
 40
0.004135
 41
0.004135
  0
VERTEX
  8
0
 10
-0.002067
 20
0.0
 42
1.0
  0
VERTEX
  8
0
 10
0.002067
 20
0.0
 42
1.0
  0
SEQEND
  8
0
 0
ENDBLK
  8
0
  0
BLOCK
  8
0
  2
D26
 70
64
 10
0.0
 20
0.0
  3
D26
  0
POLYLINE
  8
0
 66
1
 10
0.0
 20
0.0
 40
0.047240
 41
0.047240
  0
VERTEX
  8
0
 10
-0.021655
 20
0.0
  0
VERTEX
  8
0
 10
0.021655
 20
0.0
  0
SEQEND
  8
0
 0
ENDBLK
  8
0
  0
BLOCK
  8
0
  2
D27
 70
64
 10
0.0
 20
0.0
  3
D27
  0
POLYLINE
  8
0
 66
1
 10
0.0
 20
0.0
 40
0.039370
 41
0.039370
  0
VERTEX
  8
0
 10
-0.031495
 20
0.0
  0
VERTEX
  8
0
 10
0.031495
 20
0.0
  0
SEQEND
  8
0
 0
ENDBLK
  8
0
  0
BLOCK
  8
0
  2
D28
 70
64
 10
0.0
 20
0.0
  3
D28
  0
POLYLINE
  8
0
 66
1
 10
0.0
 20
0.0
 40
0.027560
 41
0.027560
  0
VERTEX
  8
0
 10
-0.005905
 20
0.0
  0
VERTEX
  8
0
 10
0.005905
 20
0.0
  0
SEQEND
  8
0
 0
ENDBLK
  8
0
  0
BLOCK
  8
0
  2
D29
 70
64
 10
0.0
 20
0.0
  3
D29
  0
POLYLINE
  8
0
 66
1
 10
0.0
 20
0.0
 70
1
 40
0.006695
 41
0.006695
  0
VERTEX
  8
0
 10
-0.003348
 20
0.0
 42
1.0
  0
VERTEX
  8
0
 10
0.003348
 20
0.0
 42
1.0
  0
SEQEND
  8
0
 0
ENDBLK
  8
0
  0
BLOCK
  8
0
  2
D30
 70
64
 10
0.0
 20
0.0
  3
D30
  0
POLYLINE
  8
0
 66
1
 10
0.0
 20
0.0
 70
1
 40
0.003505
 41
0.003505
  0
VERTEX
  8
0
 10
-0.001752
 20
0.0
 42
1.0
  0
VERTEX
  8
0
 10
0.001752
 20
0.0
 42
1.0
  0
SEQEND
  8
0
 0
ENDBLK
  8
0
  0
BLOCK
  8
0
  2
D31
 70
64
 10
0.0
 20
0.0
  3
D31
  0
POLYLINE
  8
0
 66
1
 10
0.0
 20
0.0
 70
1
 40
0.004000
 41
0.004000
  0
VERTEX
  8
0
 10
-0.002000
 20
0.0
 42
1.0
  0
VERTEX
  8
0
 10
0.002000
 20
0.0
 42
1.0
  0
SEQEND
  8
0
 0
ENDBLK
  8
0
  0
BLOCK
  8
0
  2
D32
 70
64
 10
0.0
 20
0.0
  3
D32
  0
POLYLINE
  8
0
 66
1
 10
0.0
 20
0.0
 70
1
 40
0.002670
 41
0.002670
  0
VERTEX
  8
0
 10
-0.001335
 20
0.0
 42
1.0
  0
VERTEX
  8
0
 10
0.001335
 20
0.0
 42
1.0
  0
SEQEND
  8
0
 0
ENDBLK
  8
0
  0
BLOCK
  8
0
  2
D33
 70
64
 10
0.0
 20
0.0
  3
D33
  0
POLYLINE
  8
0
 66
1
 10
0.0
 20
0.0
 70
1
 40
0.003505
 41
0.003505
  0
VERTEX
  8
0
 10
-0.001752
 20
0.0
 42
1.0
  0
VERTEX
  8
0
 10
0.001752
 20
0.0
 42
1.0
  0
SEQEND
  8
0
 0
ENDBLK
  8
0
  0
ENDSEC
  0
SECTION
  2
ENTITIES
  0
INSERT
  8
gtl
  2
D10
 10
0.099370
 20
0.260000
 41
1.0
 42
1.0
 43
1.0
 50
0.0
  0
INSERT
  8
gtl
  2
D10
 10
-0.075000
 20
0.235000
 41
1.0
 42
1.0
 43
1.0
 50
0.0
  0
INSERT
  8
gtl
  2
D10
 10
-0.035630
 20
0.235000
 41
1.0
 42
1.0
 43
1.0
 50
0.0
  0
INSERT
  8
gtl
  2
D10
 10
-0.125000
 20
0.235000
 41
1.0
 42
1.0
 43
1.0
 50
0.0
  0
INSERT
  8
gtl
  2
D10
 10
-0.164370
 20
0.235000
 41
1.0
 42
1.0
 43
1.0
 50
0.0
  0
INSERT
  8
gtl
  2
D10
 10
0.060000
 20
0.260000
 41
1.0
 42
1.0
 43
1.0
 50
0.0
  0
INSERT
  8
gtl
  2
D10
 10
0.100000
 20
0.160000
 41
1.0
 42
1.0
 43
1.0
 50
0.0
  0
INSERT
  8
gtl
  2
D10
 10
0.060630
 20
0.160000
 41
1.0
 42
1.0
 43
1.0
 50
0.0
  0
INSERT
  8
gtl
  2
D10
 10
-0.200000
 20
0.035000
 41
1.0
 42
1.0
 43
1.0
 50
0.0
  0
INSERT
  8
gtl
  2
D10
 10
-0.239370
 20
0.035000
 41
1.0
 42
1.0
 43
1.0
 50
0.0
  0
INSERT
  8
gtl
  2
D10
 10
-0.200000
 20
-0.045000
 41
1.0
 42
1.0
 43
1.0
 50
0.0
  0
INSERT
  8
gtl
  2
D10
 10
-0.239370
 20
-0.045000
 41
1.0
 42
1.0
 43
1.0
 50
0.0
  0
INSERT
  8
gtl
  2
D11
 10
-0.060000
 20
-0.140000
 41
1.0
 42
1.0
 43
1.0
 50
0.0
  0
INSERT
  8
gtl
  2
D11
 10
0.025000
 20
-0.110000
 41
1.0
 42
1.0
 43
1.0
 50
0.0
  0
INSERT
  8
gtl
  2
D11
 10
-0.022830
 20
-0.115910
 41
1.0
 42
1.0
 43
1.0
 50
0.0
  0
INSERT
  8
gtl
  2
D11
 10
0.100000
 20
-0.135000
 41
1.0
 42
1.0
 43
1.0
 50
0.0
  0
INSERT
  8
gtl
  2
D11
 10
0.071210
 20
-0.151180
 41
1.0
 42
1.0
 43
1.0
 50
0.0
  0
INSERT
  8
gtl
  2
D12
 10
0.099370
 20
0.110000
 41
1.0
 42
1.0
 43
1.0
 50
0.0
  0
INSERT
  8
gtl
  2
D12
 10
0.060000
 20
0.110000
 41
1.0
 42
1.0
 43
1.0
 50
0.0
  0
INSERT
  8
gtl
  2
D13
 10
-0.170000
 20
-0.235630
 41
1.0
 42
1.0
 43
1.0
 50
0.0
  0
INSERT
  8
gtl
  2
D13
 10
-0.170000
 20
-0.275000
 41
1.0
 42
1.0
 43
1.0
 50
0.0
  0
INSERT
  8
gtl
  2
D14
 10
-0.035000
 20
-0.195000
 41
1.0
 42
1.0
 43
1.0
 50
0.0
  0
INSERT
  8
gtl
  2
D14
 10
-0.035000
 20
-0.165000
 41
1.0
 42
1.0
 43
1.0
 50
0.0
  0
INSERT
  8
gtl
  2
D14
 10
0.135000
 20
-0.210000
 41
1.0
 42
1.0
 43
1.0
 50
0.0
  0
INSERT
  8
gtl
  2
D14
 10
0.135000
 20
-0.240000
 41
1.0
 42
1.0
 43
1.0
 50
0.0
  0
INSERT
  8
gtl
  2
D14
 10
-0.190000
 20
-0.315000
 41
1.0
 42
1.0
 43
1.0
 50
0.0
  0
INSERT
  8
gtl
  2
D14
 10
-0.190000
 20
-0.345000
 41
1.0
 42
1.0
 43
1.0
 50
0.0
  0
INSERT
  8
gtl
  2
D14
 10
0.090000
 20
-0.240000
 41
1.0
 42
1.0
 43
1.0
 50
0.0
  0
INSERT
  8
gtl
  2
D14
 10
0.090000
 20
-0.210000
 41
1.0
 42
1.0
 43
1.0
 50
0.0
  0
INSERT
  8
gtl
  2
D14
 10
0.005000
 20
-0.350000
 41
1.0
 42
1.0
 43
1.0
 50
0.0
  0
INSERT
  8
gtl
  2
D14
 10
0.005000
 20
-0.320000
 41
1.0
 42
1.0
 43
1.0
 50
0.0
  0
INSERT
  8
gtl
  2
D14
 10
0.035000
 20
-0.165000
 41
1.0
 42
1.0
 43
1.0
 50
0.0
  0
INSERT
  8
gtl
  2
D14
 10
0.035000
 20
-0.195000
 41
1.0
 42
1.0
 43
1.0
 50
0.0
  0
INSERT
  8
gtl
  2
D14
 10
-0.310000
 20
-0.315000
 41
1.0
 42
1.0
 43
1.0
 50
0.0
  0
INSERT
  8
gtl
  2
D14
 10
-0.310000
 20
-0.345000
 41
1.0
 42
1.0
 43
1.0
 50
0.0
  0
INSERT
  8
gtl
  2
D14
 10
-0.230000
 20
-0.345000
 41
1.0
 42
1.0
 43
1.0
 50
0.0
  0
INSERT
  8
gtl
  2
D14
 10
-0.230000
 20
-0.315000
 41
1.0
 42
1.0
 43
1.0
 50
0.0
  0
INSERT
  8
gtl
  2
D14
 10
0.020000
 20
-0.240000
 41
1.0
 42
1.0
 43
1.0
 50
0.0
  0
INSERT
  8
gtl
  2
D14
 10
0.020000
 20
-0.270000
 41
1.0
 42
1.0
 43
1.0
 50
0.0
  0
INSERT
  8
gtl
  2
D14
 10
0.055000
 20
-0.270000
 41
1.0
 42
1.0
 43
1.0
 50
0.0
  0
INSERT
  8
gtl
  2
D14
 10
0.055000
 20
-0.240000
 41
1.0
 42
1.0
 43
1.0
 50
0.0
  0
INSERT
  8
gtl
  2
D14
 10
-0.120000
 20
-0.105000
 41
1.0
 42
1.0
 43
1.0
 50
0.0
  0
INSERT
  8
gtl
  2
D14
 10
-0.120000
 20
-0.135000
 41
1.0
 42
1.0
 43
1.0
 50
0.0
  0
INSERT
  8
gtl
  2
D14
 10
-0.210000
 20
0.125000
 41
1.0
 42
1.0
 43
1.0
 50
0.0
  0
INSERT
  8
gtl
  2
D14
 10
-0.210000
 20
0.095000
 41
1.0
 42
1.0
 43
1.0
 50
0.0
  0
INSERT
  8
gtl
  2
D15
 10
-0.130000
 20
-0.345000
 41
1.0
 42
1.0
 43
1.0
 50
0.0
  0
INSERT
  8
gtl
  2
D15
 10
-0.100000
 20
-0.345000
 41
1.0
 42
1.0
 43
1.0
 50
0.0
  0
INSERT
  8
gtl
  2
D15
 10
0.135000
 20
-0.310000
 41
1.0
 42
1.0
 43
1.0
 50
0.0
  0
INSERT
  8
gtl
  2
D15
 10
0.165000
 20
-0.310000
 41
1.0
 42
1.0
 43
1.0
 50
0.0
  0
INSERT
  8
gtl
  2
D15
 10
-0.270000
 20
-0.180000
 41
1.0
 42
1.0
 43
1.0
 50
0.0
  0
INSERT
  8
gtl
  2
D15
 10
-0.240000
 20
-0.180000
 41
1.0
 42
1.0
 43
1.0
 50
0.0
  0
INSERT
  8
gtl
  2
D15
 10
-0.270000
 20
-0.215000
 41
1.0
 42
1.0
 43
1.0
 50
0.0
  0
INSERT
  8
gtl
  2
D15
 10
-0.240000
 20
-0.215000
 41
1.0
 42
1.0
 43
1.0
 50
0.0
  0
INSERT
  8
gtl
  2
D15
 10
-0.200000
 20
-0.090000
 41
1.0
 42
1.0
 43
1.0
 50
0.0
  0
INSERT
  8
gtl
  2
D15
 10
-0.230000
 20
-0.090000
 41
1.0
 42
1.0
 43
1.0
 50
0.0
  0
INSERT
  8
gtl
  2
D15
 10
-0.230000
 20
-0.005000
 41
1.0
 42
1.0
 43
1.0
 50
0.0
  0
INSERT
  8
gtl
  2
D15
 10
-0.200000
 20
-0.005000
 41
1.0
 42
1.0
 43
1.0
 50
0.0
  0
INSERT
  8
gtl
  2
D16
 10
0.060000
 20
0.350550
 41
1.0
 42
1.0
 43
1.0
 50
0.0
  0
INSERT
  8
gtl
  2
D16
 10
0.060000
 20
0.310000
 41
1.0
 42
1.0
 43
1.0
 50
0.0
  0
INSERT
  8
gtl
  2
D17
 10
-0.200000
 20
-0.140000
 41
1.0
 42
1.0
 43
1.0
 50
0.0
  0
INSERT
  8
gtl
  2
D17
 10
-0.240550
 20
-0.140000
 41
1.0
 42
1.0
 43
1.0
 50
0.0
  0
INSERT
  8
gtl
  2
D17
 10
0.060000
 20
0.210000
 41
1.0
 42
1.0
 43
1.0
 50
0.0
  0
INSERT
  8
gtl
  2
D17
 10
0.100550
 20
0.210000
 41
1.0
 42
1.0
 43
1.0
 50
0.0
  0
INSERT
  8
gtl
  2
D18
 10
-0.270000
 20
-0.315000
 41
1.0
 42
1.0
 43
1.0
 50
0.0
  0
INSERT
  8
gtl
  2
D18
 10
-0.270000
 20
-0.354370
 41
1.0
 42
1.0
 43
1.0
 50
0.0
  0
INSERT
  8
gtl
  2
D18
 10
-0.350000
 20
-0.315000
 41
1.0
 42
1.0
 43
1.0
 50
0.0
  0
INSERT
  8
gtl
  2
D18
 10
-0.350000
 20
-0.275630
 41
1.0
 42
1.0
 43
1.0
 50
0.0
  0
INSERT
  8
gtl
  2
D19
 10
0.185000
 20
-0.115000
 41
1.0
 42
1.0
 43
1.0
 50
0.0
  0
INSERT
  8
gtl
  2
D19
 10
0.127110
 20
0.063280
 41
1.0
 42
1.0
 43
1.0
 50
0.0
  0
INSERT
  8
gtl
  2
D19
 10
-0.075000
 20
0.285000
 41
1.0
 42
1.0
 43
1.0
 50
0.0
  0
INSERT
  8
gtl
  2
D19
 10
-0.125000
 20
0.285000
 41
1.0
 42
1.0
 43
1.0
 50
0.0
  0
INSERT
  8
gtl
  2
D20
 10
-0.040000
 20
-0.305000
 41
1.0
 42
1.0
 43
1.0
 50
0.0
  0
INSERT
  8
gtl
  2
D20
 10
-0.040000
 20
-0.346650
 41
1.0
 42
1.0
 43
1.0
 50
0.0
  0
INSERT
  8
gtl
  2
D21
 10
0.000960
 20
-0.173350
 41
1.0
 42
1.0
 43
1.0
 50
0.0
  0
INSERT
  8
gtl
  2
D21
 10
-0.075000
 20
0.170000
 41
1.0
 42
1.0
 43
1.0
 50
0.0
  0
INSERT
  8
gtl
  2
D21
 10
-0.118400
 20
0.170000
 41
1.0
 42
1.0
 43
1.0
 50
0.0
  0
INSERT
  8
gtl
  2
D22
 10
-0.330000
 20
0.105000
 41
1.0
 42
1.0
 43
1.0
 50
0.0
  0
INSERT
  8
gtl
  2
D23
 10
0.270000
 20
0.350000
 41
1.0
 42
1.0
 43
1.0
 50
0.0
  0
INSERT
  8
gtl
  2
D23
 10
0.404100
 20
0.350000
 41
1.0
 42
1.0
 43
1.0
 50
0.0
  0
INSERT
  8
gtl
  2
D24
 10
-0.283700
 20
0.306040
 41
1.0
 42
1.0
 43
1.0
 50
0.0
  0
INSERT
  8
gtl
  2
D24
 10
-0.350000
 20
-0.395000
 41
1.0
 42
1.0
 43
1.0
 50
0.0
  0
INSERT
  8
gtl
  2
D25
 10
-0.129190
 20
-0.049550
 41
1.0
 42
1.0
 43
1.0
 50
0.0
  0
INSERT
  8
gtl
  2
D25
 10
-0.129190
 20
-0.033800
 41
1.0
 42
1.0
 43
1.0
 50
0.0
  0
INSERT
  8
gtl
  2
D25
 10
-0.129190
 20
-0.018050
 41
1.0
 42
1.0
 43
1.0
 50
0.0
  0
INSERT
  8
gtl
  2
D25
 10
-0.129190
 20
-0.002310
 41
1.0
 42
1.0
 43
1.0
 50
0.0
  0
INSERT
  8
gtl
  2
D25
 10
-0.129190
 20
0.013440
 41
1.0
 42
1.0
 43
1.0
 50
0.0
  0
INSERT
  8
gtl
  2
D25
 10
-0.129190
 20
0.029190
 41
1.0
 42
1.0
 43
1.0
 50
0.0
  0
INSERT
  8
gtl
  2
D25
 10
-0.129190
 20
0.044940
 41
1.0
 42
1.0
 43
1.0
 50
0.0
  0
INSERT
  8
gtl
  2
D25
 10
-0.129190
 20
0.060690
 41
1.0
 42
1.0
 43
1.0
 50
0.0
  0
INSERT
  8
gtl
  2
D25
 10
-0.113440
 20
-0.049550
 41
1.0
 42
1.0
 43
1.0
 50
0.0
  0
INSERT
  8
gtl
  2
D25
 10
-0.113440
 20
-0.033800
 41
1.0
 42
1.0
 43
1.0
 50
0.0
  0
INSERT
  8
gtl
  2
D25
 10
-0.113440
 20
-0.018050
 41
1.0
 42
1.0
 43
1.0
 50
0.0
  0
INSERT
  8
gtl
  2
D25
 10
-0.113440
 20
-0.002310
 41
1.0
 42
1.0
 43
1.0
 50
0.0
  0
INSERT
  8
gtl
  2
D25
 10
-0.113440
 20
0.013440
 41
1.0
 42
1.0
 43
1.0
 50
0.0
  0
INSERT
  8
gtl
  2
D25
 10
-0.113440
 20
0.029190
 41
1.0
 42
1.0
 43
1.0
 50
0.0
  0
INSERT
  8
gtl
  2
D25
 10
-0.113440
 20
0.044940
 41
1.0
 42
1.0
 43
1.0
 50
0.0
  0
INSERT
  8
gtl
  2
D25
 10
-0.113440
 20
0.060690
 41
1.0
 42
1.0
 43
1.0
 50
0.0
  0
INSERT
  8
gtl
  2
D25
 10
-0.097700
 20
-0.049550
 41
1.0
 42
1.0
 43
1.0
 50
0.0
  0
INSERT
  8
gtl
  2
D25
 10
-0.097700
 20
-0.033800
 41
1.0
 42
1.0
 43
1.0
 50
0.0
  0
INSERT
  8
gtl
  2
D25
 10
-0.097700
 20
-0.018050
 41
1.0
 42
1.0
 43
1.0
 50
0.0
  0
INSERT
  8
gtl
  2
D25
 10
-0.097700
 20
-0.002310
 41
1.0
 42
1.0
 43
1.0
 50
0.0
  0
INSERT
  8
gtl
  2
D25
 10
-0.097700
 20
0.013440
 41
1.0
 42
1.0
 43
1.0
 50
0.0
  0
INSERT
  8
gtl
  2
D25
 10
-0.097700
 20
0.029190
 41
1.0
 42
1.0
 43
1.0
 50
0.0
  0
INSERT
  8
gtl
  2
D25
 10
-0.097700
 20
0.044940
 41
1.0
 42
1.0
 43
1.0
 50
0.0
  0
INSERT
  8
gtl
  2
D25
 10
-0.097700
 20
0.060690
 41
1.0
 42
1.0
 43
1.0
 50
0.0
  0
INSERT
  8
gtl
  2
D25
 10
-0.081950
 20
-0.049550
 41
1.0
 42
1.0
 43
1.0
 50
0.0
  0
INSERT
  8
gtl
  2
D25
 10
-0.081950
 20
-0.033800
 41
1.0
 42
1.0
 43
1.0
 50
0.0
  0
INSERT
  8
gtl
  2
D25
 10
-0.081950
 20
-0.018050
 41
1.0
 42
1.0
 43
1.0
 50
0.0
  0
INSERT
  8
gtl
  2
D25
 10
-0.081950
 20
-0.002310
 41
1.0
 42
1.0
 43
1.0
 50
0.0
  0
INSERT
  8
gtl
  2
D25
 10
-0.081950
 20
0.013440
 41
1.0
 42
1.0
 43
1.0
 50
0.0
  0
INSERT
  8
gtl
  2
D25
 10
-0.081950
 20
0.029190
 41
1.0
 42
1.0
 43
1.0
 50
0.0
  0
INSERT
  8
gtl
  2
D25
 10
-0.081950
 20
0.044940
 41
1.0
 42
1.0
 43
1.0
 50
0.0
  0
INSERT
  8
gtl
  2
D25
 10
-0.081950
 20
0.060690
 41
1.0
 42
1.0
 43
1.0
 50
0.0
  0
INSERT
  8
gtl
  2
D25
 10
-0.066200
 20
-0.049550
 41
1.0
 42
1.0
 43
1.0
 50
0.0
  0
INSERT
  8
gtl
  2
D25
 10
-0.066200
 20
-0.033800
 41
1.0
 42
1.0
 43
1.0
 50
0.0
  0
INSERT
  8
gtl
  2
D25
 10
-0.066200
 20
-0.018050
 41
1.0
 42
1.0
 43
1.0
 50
0.0
  0
INSERT
  8
gtl
  2
D25
 10
-0.066200
 20
-0.002310
 41
1.0
 42
1.0
 43
1.0
 50
0.0
  0
INSERT
  8
gtl
  2
D25
 10
-0.066200
 20
0.013440
 41
1.0
 42
1.0
 43
1.0
 50
0.0
  0
INSERT
  8
gtl
  2
D25
 10
-0.066200
 20
0.029190
 41
1.0
 42
1.0
 43
1.0
 50
0.0
  0
INSERT
  8
gtl
  2
D25
 10
-0.066200
 20
0.044940
 41
1.0
 42
1.0
 43
1.0
 50
0.0
  0
INSERT
  8
gtl
  2
D25
 10
-0.066200
 20
0.060690
 41
1.0
 42
1.0
 43
1.0
 50
0.0
  0
INSERT
  8
gtl
  2
D25
 10
-0.050450
 20
-0.049550
 41
1.0
 42
1.0
 43
1.0
 50
0.0
  0
INSERT
  8
gtl
  2
D25
 10
-0.050450
 20
-0.033800
 41
1.0
 42
1.0
 43
1.0
 50
0.0
  0
INSERT
  8
gtl
  2
D25
 10
-0.050450
 20
-0.018050
 41
1.0
 42
1.0
 43
1.0
 50
0.0
  0
INSERT
  8
gtl
  2
D25
 10
-0.050450
 20
-0.002310
 41
1.0
 42
1.0
 43
1.0
 50
0.0
  0
INSERT
  8
gtl
  2
D25
 10
-0.050450
 20
0.013440
 41
1.0
 42
1.0
 43
1.0
 50
0.0
  0
INSERT
  8
gtl
  2
D25
 10
-0.050450
 20
0.029190
 41
1.0
 42
1.0
 43
1.0
 50
0.0
  0
INSERT
  8
gtl
  2
D25
 10
-0.050450
 20
0.044940
 41
1.0
 42
1.0
 43
1.0
 50
0.0
  0
INSERT
  8
gtl
  2
D25
 10
-0.050450
 20
0.060690
 41
1.0
 42
1.0
 43
1.0
 50
0.0
  0
INSERT
  8
gtl
  2
D25
 10
-0.034710
 20
-0.049550
 41
1.0
 42
1.0
 43
1.0
 50
0.0
  0
INSERT
  8
gtl
  2
D25
 10
-0.034710
 20
-0.033800
 41
1.0
 42
1.0
 43
1.0
 50
0.0
  0
INSERT
  8
gtl
  2
D25
 10
-0.034710
 20
-0.018050
 41
1.0
 42
1.0
 43
1.0
 50
0.0
  0
INSERT
  8
gtl
  2
D25
 10
-0.034710
 20
-0.002310
 41
1.0
 42
1.0
 43
1.0
 50
0.0
  0
INSERT
  8
gtl
  2
D25
 10
-0.034710
 20
0.013440
 41
1.0
 42
1.0
 43
1.0
 50
0.0
  0
INSERT
  8
gtl
  2
D25
 10
-0.034710
 20
0.029190
 41
1.0
 42
1.0
 43
1.0
 50
0.0
  0
INSERT
  8
gtl
  2
D25
 10
-0.034710
 20
0.044940
 41
1.0
 42
1.0
 43
1.0
 50
0.0
  0
INSERT
  8
gtl
  2
D25
 10
-0.034710
 20
0.060690
 41
1.0
 42
1.0
 43
1.0
 50
0.0
  0
INSERT
  8
gtl
  2
D25
 10
-0.018960
 20
-0.049550
 41
1.0
 42
1.0
 43
1.0
 50
0.0
  0
INSERT
  8
gtl
  2
D25
 10
-0.018960
 20
-0.033800
 41
1.0
 42
1.0
 43
1.0
 50
0.0
  0
INSERT
  8
gtl
  2
D25
 10
-0.018960
 20
-0.018050
 41
1.0
 42
1.0
 43
1.0
 50
0.0
  0
INSERT
  8
gtl
  2
D25
 10
-0.018960
 20
-0.002310
 41
1.0
 42
1.0
 43
1.0
 50
0.0
  0
INSERT
  8
gtl
  2
D25
 10
-0.018960
 20
0.013440
 41
1.0
 42
1.0
 43
1.0
 50
0.0
  0
INSERT
  8
gtl
  2
D25
 10
-0.018960
 20
0.029190
 41
1.0
 42
1.0
 43
1.0
 50
0.0
  0
INSERT
  8
gtl
  2
D25
 10
-0.018960
 20
0.044940
 41
1.0
 42
1.0
 43
1.0
 50
0.0
  0
INSERT
  8
gtl
  2
D25
 10
-0.003210
 20
-0.049550
 41
1.0
 42
1.0
 43
1.0
 50
0.0
  0
INSERT
  8
gtl
  2
D25
 10
-0.003210
 20
-0.033800
 41
1.0
 42
1.0
 43
1.0
 50
0.0
  0
INSERT
  8
gtl
  2
D25
 10
-0.003210
 20
-0.018050
 41
1.0
 42
1.0
 43
1.0
 50
0.0
  0
INSERT
  8
gtl
  2
D25
 10
-0.003210
 20
0.029190
 41
1.0
 42
1.0
 43
1.0
 50
0.0
  0
INSERT
  8
gtl
  2
D25
 10
-0.003210
 20
0.044940
 41
1.0
 42
1.0
 43
1.0
 50
0.0
  0
INSERT
  8
gtl
  2
D26
 10
0.185000
 20
0.006930
 41
1.0
 42
1.0
 43
1.0
 50
0.0
  0
INSERT
  8
gtl
  2
D26
 10
0.185000
 20
-0.060000
 41
1.0
 42
1.0
 43
1.0
 50
0.0
  0
INSERT
  8
gtl
  2
D26
 10
0.129880
 20
-0.060000
 41
1.0
 42
1.0
 43
1.0
 50
0.0
  0
INSERT
  8
gtl
  2
D26
 10
0.129880
 20
0.006930
 41
1.0
 42
1.0
 43
1.0
 50
0.0
  0
INSERT
  8
gtl
  2
D27
 10
0.275000
 20
-0.253660
 41
1.0
 42
1.0
 43
1.0
 50
0.0
  0
INSERT
  8
gtl
  2
D28
 10
0.249410
 20
-0.295000
 41
1.0
 42
1.0
 43
1.0
 50
0.0
  0
INSERT
  8
gtl
  2
D28
 10
0.275000
 20
-0.295000
 41
1.0
 42
1.0
 43
1.0
 50
0.0
  0
INSERT
  8
gtl
  2
D28
 10
0.300590
 20
-0.295000
 41
1.0
 42
1.0
 43
1.0
 50
0.0
  0
INSERT
  8
gtl
  2
D28
 10
0.249410
 20
-0.212320
 41
1.0
 42
1.0
 43
1.0
 50
0.0
  0
INSERT
  8
gtl
  2
D28
 10
0.275000
 20
-0.212320
 41
1.0
 42
1.0
 43
1.0
 50
0.0
  0
INSERT
  8
gtl
  2
D28
 10
0.300590
 20
-0.212320
 41
1.0
 42
1.0
 43
1.0
 50
0.0
  0
INSERT
  8
gtl
  2
D29
 10
-0.239680
 20
-0.275000
 41
1.0
 42
1.0
 43
1.0
 50
0.0
  0
INSERT
  8
gtl
  2
D29
 10
-0.239680
 20
-0.255320
 41
1.0
 42
1.0
 43
1.0
 50
0.0
  0
INSERT
  8
gtl
  2
D29
 10
-0.220000
 20
-0.275000
 41
1.0
 42
1.0
 43
1.0
 50
0.0
  0
INSERT
  8
gtl
  2
D29
 10
-0.220000
 20
-0.255320
 41
1.0
 42
1.0
 43
1.0
 50
0.0
  0
POLYLINE
  8
gtl
 62
1
 40
0.007000
 41
0.007000
 66
  1
  0
VERTEX
  8
gtl
 10
0.129880
 20
0.005000
  0
VERTEX
  8
gtl
 10
0.130000
 20
0.005000
  0
SEQEND
  8
gtl
  0
INSERT
  8
gtl
  2
D30
 10
0.129880
 20
0.005000
 41
1.0
 42
1.0
 43
1.0
 50
0.0
  0
INSERT
  8
gtl
  2
D30
 10
0.130000
 20
0.005000
 41
1.0
 42
1.0
 43
1.0
 50
0.0
  0
POLYLINE
  8
gtl
 62
1
 40
0.007000
 41
0.007000
 66
  1
  0
VERTEX
  8
gtl
 10
0.129350
 20
0.005000
  0
VERTEX
  8
gtl
 10
0.129880
 20
0.005000
  0
SEQEND
  8
gtl
  0
INSERT
  8
gtl
  2
D30
 10
0.129350
 20
0.005000
 41
1.0
 42
1.0
 43
1.0
 50
0.0
  0
INSERT
  8
gtl
  2
D30
 10
0.129880
 20
0.005000
 41
1.0
 42
1.0
 43
1.0
 50
0.0
  0
POLYLINE
  8
gtl
 62
1
 40
0.007000
 41
0.007000
 66
  1
  0
VERTEX
  8
gtl
 10
0.128650
 20
0.005700
  0
VERTEX
  8
gtl
 10
0.129350
 20
0.005000
  0
SEQEND
  8
gtl
  0
INSERT
  8
gtl
  2
D30
 10
0.128650
 20
0.005700
 41
1.0
 42
1.0
 43
1.0
 50
0.0
  0
INSERT
  8
gtl
  2
D30
 10
0.129350
 20
0.005000
 41
1.0
 42
1.0
 43
1.0
 50
0.0
  0
POLYLINE
  8
gtl
 62
1
 40
0.007000
 41
0.007000
 66
  1
  0
VERTEX
  8
gtl
 10
0.127110
 20
0.007240
  0
VERTEX
  8
gtl
 10
0.128650
 20
0.005700
  0
SEQEND
  8
gtl
  0
INSERT
  8
gtl
  2
D30
 10
0.127110
 20
0.007240
 41
1.0
 42
1.0
 43
1.0
 50
0.0
  0
INSERT
  8
gtl
  2
D30
 10
0.128650
 20
0.005700
 41
1.0
 42
1.0
 43
1.0
 50
0.0
  0
POLYLINE
  8
gtl
 62
1
 40
0.007000
 41
0.007000
 66
  1
  0
VERTEX
  8
gtl
 10
0.127110
 20
0.007240
  0
VERTEX
  8
gtl
 10
0.127110
 20
0.063280
  0
SEQEND
  8
gtl
  0
INSERT
  8
gtl
  2
D30
 10
0.127110
 20
0.007240
 41
1.0
 42
1.0
 43
1.0
 50
0.0
  0
INSERT
  8
gtl
  2
D30
 10
0.127110
 20
0.063280
 41
1.0
 42
1.0
 43
1.0
 50
0.0
  0
POLYLINE
  8
gtl
 62
1
 40
0.008000
 41
0.008000
 66
  1
  0
VERTEX
  8
gtl
 10
0.060280
 20
0.350280
  0
VERTEX
  8
gtl
 10
0.060550
 20
0.350000
  0
SEQEND
  8
gtl
  0
INSERT
  8
gtl
  2
D31
 10
0.060280
 20
0.350280
 41
1.0
 42
1.0
 43
1.0
 50
0.0
  0
INSERT
  8
gtl
  2
D31
 10
0.060550
 20
0.350000
 41
1.0
 42
1.0
 43
1.0
 50
0.0
  0
POLYLINE
  8
gtl
 62
1
 40
0.008000
 41
0.008000
 66
  1
  0
VERTEX
  8
gtl
 10
0.060000
 20
0.350550
  0
VERTEX
  8
gtl
 10
0.060280
 20
0.350280
  0
SEQEND
  8
gtl
  0
INSERT
  8
gtl
  2
D31
 10
0.060000
 20
0.350550
 41
1.0
 42
1.0
 43
1.0
 50
0.0
  0
INSERT
  8
gtl
  2
D31
 10
0.060280
 20
0.350280
 41
1.0
 42
1.0
 43
1.0
 50
0.0
  0
POLYLINE
  8
gtl
 62
1
 40
0.008000
 41
0.008000
 66
  1
  0
VERTEX
  8
gtl
 10
0.060550
 20
0.350000
  0
VERTEX
  8
gtl
 10
0.270000
 20
0.350000
  0
SEQEND
  8
gtl
  0
INSERT
  8
gtl
  2
D31
 10
0.060550
 20
0.350000
 41
1.0
 42
1.0
 43
1.0
 50
0.0
  0
INSERT
  8
gtl
  2
D31
 10
0.270000
 20
0.350000
 41
1.0
 42
1.0
 43
1.0
 50
0.0
  0
INSERT
  8
gtl
  2
D32
 10
0.100000
 20
0.260000
 41
1.0
 42
1.0
 43
1.0
 50
0.0
  0
INSERT
  8
gtl
  2
D32
 10
-0.274510
 20
0.300780
 41
1.0
 42
1.0
 43
1.0
 50
0.0
  0
INSERT
  8
gtl
  2
D32
 10
-0.036660
 20
0.235080
 41
1.0
 42
1.0
 43
1.0
 50
0.0
  0
INSERT
  8
gtl
  2
D32
 10
-0.350120
 20
-0.271130
 41
1.0
 42
1.0
 43
1.0
 50
0.0
  0
INSERT
  8
gtl
  2
D32
 10
0.258550
 20
-0.264240
 41
1.0
 42
1.0
 43
1.0
 50
0.0
  0
INSERT
  8
gtl
  2
D32
 10
0.257160
 20
-0.247170
 41
1.0
 42
1.0
 43
1.0
 50
0.0
  0
INSERT
  8
gtl
  2
D32
 10
0.290530
 20
-0.263100
 41
1.0
 42
1.0
 43
1.0
 50
0.0
  0
INSERT
  8
gtl
  2
D32
 10
0.294960
 20
-0.245280
 41
1.0
 42
1.0
 43
1.0
 50
0.0
  0
INSERT
  8
gtl
  2
D32
 10
-0.022830
 20
-0.115910
 41
1.0
 42
1.0
 43
1.0
 50
0.0
  0
INSERT
  8
gtl
  2
D32
 10
-0.229810
 20
-0.088390
 41
1.0
 42
1.0
 43
1.0
 50
0.0
  0
INSERT
  8
gtl
  2
D32
 10
-0.129190
 20
-0.002310
 41
1.0
 42
1.0
 43
1.0
 50
0.0
  0
INSERT
  8
gtl
  2
D32
 10
-0.441590
 20
-0.128300
 41
1.0
 42
1.0
 43
1.0
 50
0.0
  0
INSERT
  8
gtl
  2
D32
 10
-0.244350
 20
0.034530
 41
1.0
 42
1.0
 43
1.0
 50
0.0
  0
INSERT
  8
gtl
  2
D32
 10
-0.200000
 20
-0.045000
 41
1.0
 42
1.0
 43
1.0
 50
0.0
  0
INSERT
  8
gtl
  2
D32
 10
-0.200000
 20
-0.005000
 41
1.0
 42
1.0
 43
1.0
 50
0.0
  0
INSERT
  8
gtl
  2
D32
 10
-0.200000
 20
-0.090000
 41
1.0
 42
1.0
 43
1.0
 50
0.0
  0
INSERT
  8
gtl
  2
D32
 10
-0.239370
 20
-0.045000
 41
1.0
 42
1.0
 43
1.0
 50
0.0
  0
INSERT
  8
gtl
  2
D32
 10
-0.230000
 20
-0.005000
 41
1.0
 42
1.0
 43
1.0
 50
0.0
  0
INSERT
  8
gtl
  2
D32
 10
-0.200000
 20
0.035000
 41
1.0
 42
1.0
 43
1.0
 50
0.0
  0
INSERT
  8
gtl
  2
D32
 10
-0.035000
 20
-0.195000
 41
1.0
 42
1.0
 43
1.0
 50
0.0
  0
INSERT
  8
gtl
  2
D32
 10
0.090000
 20
-0.240000
 41
1.0
 42
1.0
 43
1.0
 50
0.0
  0
INSERT
  8
gtl
  2
D32
 10
0.135000
 20
-0.240000
 41
1.0
 42
1.0
 43
1.0
 50
0.0
  0
INSERT
  8
gtl
  2
D32
 10
0.135000
 20
-0.310000
 41
1.0
 42
1.0
 43
1.0
 50
0.0
  0
INSERT
  8
gtl
  2
D32
 10
0.275000
 20
-0.295000
 41
1.0
 42
1.0
 43
1.0
 50
0.0
  0
INSERT
  8
gtl
  2
D32
 10
-0.330000
 20
0.105000
 41
1.0
 42
1.0
 43
1.0
 50
0.0
  0
INSERT
  8
gtl
  2
D32
 10
0.035000
 20
-0.195000
 41
1.0
 42
1.0
 43
1.0
 50
0.0
  0
INSERT
  8
gtl
  2
D32
 10
-0.035000
 20
-0.165000
 41
1.0
 42
1.0
 43
1.0
 50
0.0
  0
INSERT
  8
gtl
  2
D32
 10
-0.040000
 20
-0.350000
 41
1.0
 42
1.0
 43
1.0
 50
0.0
  0
INSERT
  8
gtl
  2
D32
 10
-0.040000
 20
-0.305000
 41
1.0
 42
1.0
 43
1.0
 50
0.0
  0
INSERT
  8
gtl
  2
D32
 10
-0.075000
 20
0.170000
 41
1.0
 42
1.0
 43
1.0
 50
0.0
  0
INSERT
  8
gtl
  2
D32
 10
-0.075000
 20
0.235000
 41
1.0
 42
1.0
 43
1.0
 50
0.0
  0
INSERT
  8
gtl
  2
D32
 10
-0.075000
 20
0.285000
 41
1.0
 42
1.0
 43
1.0
 50
0.0
  0
INSERT
  8
gtl
  2
D32
 10
-0.350000
 20
-0.315000
 41
1.0
 42
1.0
 43
1.0
 50
0.0
  0
INSERT
  8
gtl
  2
D32
 10
-0.310000
 20
-0.315000
 41
1.0
 42
1.0
 43
1.0
 50
0.0
  0
INSERT
  8
gtl
  2
D32
 10
-0.270000
 20
-0.315000
 41
1.0
 42
1.0
 43
1.0
 50
0.0
  0
INSERT
  8
gtl
  2
D32
 10
-0.230000
 20
-0.315000
 41
1.0
 42
1.0
 43
1.0
 50
0.0
  0
INSERT
  8
gtl
  2
D32
 10
-0.190000
 20
-0.315000
 41
1.0
 42
1.0
 43
1.0
 50
0.0
  0
INSERT
  8
gtl
  2
D32
 10
-0.170000
 20
-0.275000
 41
1.0
 42
1.0
 43
1.0
 50
0.0
  0
INSERT
  8
gtl
  2
D32
 10
-0.220000
 20
-0.255000
 41
1.0
 42
1.0
 43
1.0
 50
0.0
  0
INSERT
  8
gtl
  2
D32
 10
-0.240000
 20
-0.275000
 41
1.0
 42
1.0
 43
1.0
 50
0.0
  0
INSERT
  8
gtl
  2
D32
 10
-0.240000
 20
-0.180000
 41
1.0
 42
1.0
 43
1.0
 50
0.0
  0
INSERT
  8
gtl
  2
D32
 10
-0.240000
 20
-0.140000
 41
1.0
 42
1.0
 43
1.0
 50
0.0
  0
INSERT
  8
gtl
  2
D32
 10
-0.270000
 20
-0.215000
 41
1.0
 42
1.0
 43
1.0
 50
0.0
  0
INSERT
  8
gtl
  2
D32
 10
-0.270000
 20
-0.180000
 41
1.0
 42
1.0
 43
1.0
 50
0.0
  0
INSERT
  8
gtl
  2
D32
 10
-0.210000
 20
0.095000
 41
1.0
 42
1.0
 43
1.0
 50
0.0
  0
INSERT
  8
gtl
  2
D32
 10
-0.210000
 20
0.125000
 41
1.0
 42
1.0
 43
1.0
 50
0.0
  0
INSERT
  8
gtl
  2
D32
 10
-0.120000
 20
-0.105000
 41
1.0
 42
1.0
 43
1.0
 50
0.0
  0
INSERT
  8
gtl
  2
D32
 10
-0.120000
 20
-0.135000
 41
1.0
 42
1.0
 43
1.0
 50
0.0
  0
INSERT
  8
gtl
  2
D32
 10
-0.190000
 20
-0.345000
 41
1.0
 42
1.0
 43
1.0
 50
0.0
  0
INSERT
  8
gtl
  2
D32
 10
-0.130000
 20
-0.345000
 41
1.0
 42
1.0
 43
1.0
 50
0.0
  0
INSERT
  8
gtl
  2
D32
 10
-0.230000
 20
-0.345000
 41
1.0
 42
1.0
 43
1.0
 50
0.0
  0
INSERT
  8
gtl
  2
D32
 10
0.005000
 20
-0.350000
 41
1.0
 42
1.0
 43
1.0
 50
0.0
  0
INSERT
  8
gtl
  2
D32
 10
0.005000
 20
-0.320000
 41
1.0
 42
1.0
 43
1.0
 50
0.0
  0
INSERT
  8
gtl
  2
D32
 10
-0.100000
 20
-0.345000
 41
1.0
 42
1.0
 43
1.0
 50
0.0
  0
INSERT
  8
gtl
  2
D32
 10
0.165000
 20
-0.310000
 41
1.0
 42
1.0
 43
1.0
 50
0.0
  0
INSERT
  8
gtl
  2
D32
 10
0.300000
 20
-0.295000
 41
1.0
 42
1.0
 43
1.0
 50
0.0
  0
INSERT
  8
gtl
  2
D32
 10
0.250000
 20
-0.295000
 41
1.0
 42
1.0
 43
1.0
 50
0.0
  0
INSERT
  8
gtl
  2
D32
 10
0.135000
 20
-0.210000
 41
1.0
 42
1.0
 43
1.0
 50
0.0
  0
INSERT
  8
gtl
  2
D32
 10
0.250000
 20
-0.210000
 41
1.0
 42
1.0
 43
1.0
 50
0.0
  0
INSERT
  8
gtl
  2
D32
 10
0.275000
 20
-0.210000
 41
1.0
 42
1.0
 43
1.0
 50
0.0
  0
INSERT
  8
gtl
  2
D32
 10
0.300000
 20
-0.210000
 41
1.0
 42
1.0
 43
1.0
 50
0.0
  0
INSERT
  8
gtl
  2
D32
 10
0.090000
 20
-0.210000
 41
1.0
 42
1.0
 43
1.0
 50
0.0
  0
INSERT
  8
gtl
  2
D32
 10
0.070000
 20
-0.150000
 41
1.0
 42
1.0
 43
1.0
 50
0.0
  0
INSERT
  8
gtl
  2
D32
 10
0.025000
 20
-0.110000
 41
1.0
 42
1.0
 43
1.0
 50
0.0
  0
INSERT
  8
gtl
  2
D32
 10
-0.060000
 20
-0.140000
 41
1.0
 42
1.0
 43
1.0
 50
0.0
  0
INSERT
  8
gtl
  2
D32
 10
0.100000
 20
-0.135000
 41
1.0
 42
1.0
 43
1.0
 50
0.0
  0
INSERT
  8
gtl
  2
D32
 10
0.130000
 20
0.005000
 41
1.0
 42
1.0
 43
1.0
 50
0.0
  0
INSERT
  8
gtl
  2
D32
 10
0.035000
 20
-0.165000
 41
1.0
 42
1.0
 43
1.0
 50
0.0
  0
INSERT
  8
gtl
  2
D32
 10
-0.200000
 20
-0.140000
 41
1.0
 42
1.0
 43
1.0
 50
0.0
  0
INSERT
  8
gtl
  2
D32
 10
-0.240000
 20
-0.215000
 41
1.0
 42
1.0
 43
1.0
 50
0.0
  0
INSERT
  8
gtl
  2
D32
 10
-0.240000
 20
-0.255000
 41
1.0
 42
1.0
 43
1.0
 50
0.0
  0
INSERT
  8
gtl
  2
D32
 10
-0.220000
 20
-0.275000
 41
1.0
 42
1.0
 43
1.0
 50
0.0
  0
INSERT
  8
gtl
  2
D32
 10
-0.170000
 20
-0.235000
 41
1.0
 42
1.0
 43
1.0
 50
0.0
  0
INSERT
  8
gtl
  2
D32
 10
-0.350000
 20
-0.395000
 41
1.0
 42
1.0
 43
1.0
 50
0.0
  0
INSERT
  8
gtl
  2
D32
 10
-0.270000
 20
-0.355000
 41
1.0
 42
1.0
 43
1.0
 50
0.0
  0
INSERT
  8
gtl
  2
D32
 10
-0.310000
 20
-0.345000
 41
1.0
 42
1.0
 43
1.0
 50
0.0
  0
INSERT
  8
gtl
  2
D32
 10
0.020000
 20
-0.240000
 41
1.0
 42
1.0
 43
1.0
 50
0.0
  0
INSERT
  8
gtl
  2
D32
 10
0.020000
 20
-0.270000
 41
1.0
 42
1.0
 43
1.0
 50
0.0
  0
INSERT
  8
gtl
  2
D32
 10
0.055000
 20
-0.270000
 41
1.0
 42
1.0
 43
1.0
 50
0.0
  0
INSERT
  8
gtl
  2
D32
 10
0.055000
 20
-0.240000
 41
1.0
 42
1.0
 43
1.0
 50
0.0
  0
INSERT
  8
gtl
  2
D32
 10
0.185000
 20
0.005000
 41
1.0
 42
1.0
 43
1.0
 50
0.0
  0
INSERT
  8
gtl
  2
D32
 10
0.185000
 20
-0.060000
 41
1.0
 42
1.0
 43
1.0
 50
0.0
  0
INSERT
  8
gtl
  2
D32
 10
0.000000
 20
-0.175000
 41
1.0
 42
1.0
 43
1.0
 50
0.0
  0
INSERT
  8
gtl
  2
D32
 10
-0.125000
 20
0.285000
 41
1.0
 42
1.0
 43
1.0
 50
0.0
  0
INSERT
  8
gtl
  2
D32
 10
-0.120000
 20
0.170000
 41
1.0
 42
1.0
 43
1.0
 50
0.0
  0
INSERT
  8
gtl
  2
D32
 10
0.130000
 20
-0.060000
 41
1.0
 42
1.0
 43
1.0
 50
0.0
  0
INSERT
  8
gtl
  2
D32
 10
-0.165000
 20
0.235000
 41
1.0
 42
1.0
 43
1.0
 50
0.0
  0
INSERT
  8
gtl
  2
D32
 10
-0.125000
 20
0.235000
 41
1.0
 42
1.0
 43
1.0
 50
0.0
  0
INSERT
  8
gtl
  2
D32
 10
0.185000
 20
-0.115000
 41
1.0
 42
1.0
 43
1.0
 50
0.0
  0
INSERT
  8
gtl
  2
D32
 10
0.060000
 20
0.110000
 41
1.0
 42
1.0
 43
1.0
 50
0.0
  0
INSERT
  8
gtl
  2
D32
 10
0.100000
 20
0.110000
 41
1.0
 42
1.0
 43
1.0
 50
0.0
  0
INSERT
  8
gtl
  2
D32
 10
0.100000
 20
0.160000
 41
1.0
 42
1.0
 43
1.0
 50
0.0
  0
INSERT
  8
gtl
  2
D32
 10
0.060000
 20
0.160000
 41
1.0
 42
1.0
 43
1.0
 50
0.0
  0
INSERT
  8
gtl
  2
D32
 10
0.100000
 20
0.210000
 41
1.0
 42
1.0
 43
1.0
 50
0.0
  0
INSERT
  8
gtl
  2
D32
 10
0.060000
 20
0.210000
 41
1.0
 42
1.0
 43
1.0
 50
0.0
  0
INSERT
  8
gtl
  2
D32
 10
0.060000
 20
0.260000
 41
1.0
 42
1.0
 43
1.0
 50
0.0
  0
INSERT
  8
gtl
  2
D32
 10
0.060000
 20
0.310000
 41
1.0
 42
1.0
 43
1.0
 50
0.0
  0
INSERT
  8
gtl
  2
D32
 10
0.060000
 20
0.350000
 41
1.0
 42
1.0
 43
1.0
 50
0.0
  0
INSERT
  8
gtl
  2
D32
 10
0.270000
 20
0.350000
 41
1.0
 42
1.0
 43
1.0
 50
0.0
  0
INSERT
  8
gtl
  2
D33
 10
-0.081950
 20
-0.049550
 41
1.0
 42
1.0
 43
1.0
 50
0.0
  0
INSERT
  8
gtl
  2
D33
 10
-0.113440
 20
-0.049550
 41
1.0
 42
1.0
 43
1.0
 50
0.0
  0
INSERT
  8
gtl
  2
D33
 10
-0.097700
 20
-0.049550
 41
1.0
 42
1.0
 43
1.0
 50
0.0
  0
INSERT
  8
gtl
  2
D33
 10
-0.018960
 20
-0.049550
 41
1.0
 42
1.0
 43
1.0
 50
0.0
  0
INSERT
  8
gtl
  2
D33
 10
-0.003210
 20
-0.049550
 41
1.0
 42
1.0
 43
1.0
 50
0.0
  0
INSERT
  8
gtl
  2
D33
 10
-0.129190
 20
0.013440
 41
1.0
 42
1.0
 43
1.0
 50
0.0
  0
INSERT
  8
gtl
  2
D33
 10
-0.034710
 20
-0.002310
 41
1.0
 42
1.0
 43
1.0
 50
0.0
  0
INSERT
  8
gtl
  2
D33
 10
-0.018960
 20
0.029190
 41
1.0
 42
1.0
 43
1.0
 50
0.0
  0
INSERT
  8
gtl
  2
D33
 10
-0.003210
 20
0.029190
 41
1.0
 42
1.0
 43
1.0
 50
0.0
  0
INSERT
  8
gtl
  2
D33
 10
-0.018960
 20
0.044940
 41
1.0
 42
1.0
 43
1.0
 50
0.0
  0
INSERT
  8
gtl
  2
D33
 10
-0.034710
 20
0.044940
 41
1.0
 42
1.0
 43
1.0
 50
0.0
  0
INSERT
  8
gtl
  2
D33
 10
-0.034710
 20
0.029190
 41
1.0
 42
1.0
 43
1.0
 50
0.0
  0
INSERT
  8
gtl
  2
D33
 10
-0.050450
 20
0.029190
 41
1.0
 42
1.0
 43
1.0
 50
0.0
  0
INSERT
  8
gtl
  2
D33
 10
-0.066200
 20
0.060690
 41
1.0
 42
1.0
 43
1.0
 50
0.0
  0
INSERT
  8
gtl
  2
D33
 10
-0.097700
 20
0.044940
 41
1.0
 42
1.0
 43
1.0
 50
0.0
  0
INSERT
  8
gtl
  2
D33
 10
-0.081950
 20
0.029190
 41
1.0
 42
1.0
 43
1.0
 50
0.0
  0
INSERT
  8
gtl
  2
D33
 10
-0.129190
 20
-0.049550
 41
1.0
 42
1.0
 43
1.0
 50
0.0
  0
INSERT
  8
gtl
  2
D33
 10
-0.129190
 20
-0.033800
 41
1.0
 42
1.0
 43
1.0
 50
0.0
  0
INSERT
  8
gtl
  2
D33
 10
-0.113450
 20
-0.033800
 41
1.0
 42
1.0
 43
1.0
 50
0.0
  0
INSERT
  8
gtl
  2
D33
 10
-0.081950
 20
-0.033800
 41
1.0
 42
1.0
 43
1.0
 50
0.0
  0
INSERT
  8
gtl
  2
D33
 10
-0.034700
 20
0.013440
 41
1.0
 42
1.0
 43
1.0
 50
0.0
  0
INSERT
  8
gtl
  2
D33
 10
-0.018960
 20
0.013440
 41
1.0
 42
1.0
 43
1.0
 50
0.0
  0
INSERT
  8
gtl
  2
D33
 10
-0.018960
 20
-0.002310
 41
1.0
 42
1.0
 43
1.0
 50
0.0
  0
INSERT
  8
gtl
  2
D33
 10
-0.003210
 20
-0.018050
 41
1.0
 42
1.0
 43
1.0
 50
0.0
  0
INSERT
  8
gtl
  2
D33
 10
-0.018960
 20
-0.018050
 41
1.0
 42
1.0
 43
1.0
 50
0.0
  0
INSERT
  8
gtl
  2
D33
 10
-0.034710
 20
-0.033800
 41
1.0
 42
1.0
 43
1.0
 50
0.0
  0
INSERT
  8
gtl
  2
D33
 10
-0.050450
 20
-0.033800
 41
1.0
 42
1.0
 43
1.0
 50
0.0
  0
INSERT
  8
gtl
  2
D33
 10
-0.050450
 20
-0.049550
 41
1.0
 42
1.0
 43
1.0
 50
0.0
  0
INSERT
  8
gtl
  2
D33
 10
-0.034710
 20
-0.049550
 41
1.0
 42
1.0
 43
1.0
 50
0.0
  0
INSERT
  8
gtl
  2
D33
 10
-0.113450
 20
0.060690
 41
1.0
 42
1.0
 43
1.0
 50
0.0
  0
INSERT
  8
gtl
  2
D33
 10
-0.034710
 20
0.060690
 41
1.0
 42
1.0
 43
1.0
 50
0.0
  0
INSERT
  8
gtl
  2
D33
 10
-0.050450
 20
0.044940
 41
1.0
 42
1.0
 43
1.0
 50
0.0
  0
INSERT
  8
gtl
  2
D33
 10
-0.050450
 20
0.060690
 41
1.0
 42
1.0
 43
1.0
 50
0.0
  0
INSERT
  8
gtl
  2
D33
 10
-0.129190
 20
0.060690
 41
1.0
 42
1.0
 43
1.0
 50
0.0
  0
INSERT
  8
gtl
  2
D33
 10
-0.129190
 20
0.029190
 41
1.0
 42
1.0
 43
1.0
 50
0.0
  0
INSERT
  8
gtl
  2
D33
 10
-0.113450
 20
0.044940
 41
1.0
 42
1.0
 43
1.0
 50
0.0
  0
INSERT
  8
gtl
  2
D33
 10
-0.129200
 20
0.044940
 41
1.0
 42
1.0
 43
1.0
 50
0.0
  0
ENDSEC
  0
EOF
