  0
SECTION
  2
HEADER
  9
$EXTMIN
 10
-0.445000
 20
-0.398000
  9
$EXTMAX
 10
0.331000
 20
0.353000
  9
$LIMMIN
 10
-0.445000
 20
-0.398000
  9
$LIMMAX
 10
0.331000
 20
0.353000
  9
$FILLMODE
 70
  1
  0
ENDSEC
  0
SECTION
  2
TABLES
  0
TABLE
  2
LTYPE
 70
  1
  0
LTYPE
  2
CONTINUOUS
 70
 64
  3
Solid line
 72
 65
 73
  0
 40
0.0
  0
ENDTAB
  0
TABLE
  2
LAYER
 70
 1
  0
LAYER
  2
0
 70
  0
 62
7
  6
CONTINUOUS
  0
LAYER
  2
g1
 70
  0
 62
1
  6
CONTINUOUS
  0
ENDTAB
  0
TABLE
  2
STYLE
 70
  1
  0
STYLE
  2
STANDARD
 70
  0
 40
0.0
 41
1.0
 50
0.0
 71
  0
 42
0.2
  3
txt
  4

  0
ENDTAB
  0
ENDSEC
  0
SECTION
  2
BLOCKS
  0
BLOCK
  8
0
  2
D30
 70
64
 10
0.0
 20
0.0
  3
D30
  0
POLYLINE
  8
0
 66
1
 10
0.0
 20
0.0
 70
1
 40
0.003505
 41
0.003505
  0
VERTEX
  8
0
 10
-0.001752
 20
0.0
 42
1.0
  0
VERTEX
  8
0
 10
0.001752
 20
0.0
 42
1.0
  0
SEQEND
  8
0
 0
ENDBLK
  8
0
  0
BLOCK
  8
0
  2
D31
 70
64
 10
0.0
 20
0.0
  3
D31
  0
POLYLINE
  8
0
 66
1
 10
0.0
 20
0.0
 70
1
 40
0.004000
 41
0.004000
  0
VERTEX
  8
0
 10
-0.002000
 20
0.0
 42
1.0
  0
VERTEX
  8
0
 10
0.002000
 20
0.0
 42
1.0
  0
SEQEND
  8
0
 0
ENDBLK
  8
0
  0
BLOCK
  8
0
  2
D33
 70
64
 10
0.0
 20
0.0
  3
D33
  0
POLYLINE
  8
0
 66
1
 10
0.0
 20
0.0
 70
1
 40
0.003505
 41
0.003505
  0
VERTEX
  8
0
 10
-0.001752
 20
0.0
 42
1.0
  0
VERTEX
  8
0
 10
0.001752
 20
0.0
 42
1.0
  0
SEQEND
  8
0
 0
ENDBLK
  8
0
  0
BLOCK
  8
0
  2
D34
 70
64
 10
0.0
 20
0.0
  3
D34
  0
POLYLINE
  8
0
 66
1
 10
0.0
 20
0.0
 70
1
 40
0.003500
 41
0.003500
  0
VERTEX
  8
0
 10
-0.001750
 20
0.0
 42
1.0
  0
VERTEX
  8
0
 10
0.001750
 20
0.0
 42
1.0
  0
SEQEND
  8
0
 0
ENDBLK
  8
0
  0
BLOCK
  8
0
  2
D35
 70
64
 10
0.0
 20
0.0
  3
D35
  0
POLYLINE
  8
0
 66
1
 10
0.0
 20
0.0
 70
1
 40
0.007500
 41
0.007500
  0
VERTEX
  8
0
 10
-0.003750
 20
0.0
 42
1.0
  0
VERTEX
  8
0
 10
0.003750
 20
0.0
 42
1.0
  0
SEQEND
  8
0
 0
ENDBLK
  8
0
  0
BLOCK
  8
0
  2
D36
 70
64
 10
0.0
 20
0.0
  3
D36
  0
POLYLINE
  8
0
 66
1
 10
0.0
 20
0.0
 70
1
 40
0.002955
 41
0.002955
  0
VERTEX
  8
0
 10
-0.001478
 20
0.0
 42
1.0
  0
VERTEX
  8
0
 10
0.001478
 20
0.0
 42
1.0
  0
SEQEND
  8
0
 0
ENDBLK
  8
0
  0
ENDSEC
  0
SECTION
  2
ENTITIES
  0
POLYLINE
  8
g1
 62
1
 40
0.007000
 41
0.007000
 66
  1
  0
VERTEX
  8
g1
 10
-0.120000
 20
-0.105000
  0
VERTEX
  8
g1
 10
-0.120000
 20
-0.058740
  0
SEQEND
  8
g1
  0
INSERT
  8
g1
  2
D30
 10
-0.120000
 20
-0.105000
 41
1.0
 42
1.0
 43
1.0
 50
0.0
  0
INSERT
  8
g1
  2
D30
 10
-0.120000
 20
-0.058740
 41
1.0
 42
1.0
 43
1.0
 50
0.0
  0
POLYLINE
  8
g1
 62
1
 40
0.007000
 41
0.007000
 66
  1
  0
VERTEX
  8
g1
 10
-0.129190
 20
-0.049550
  0
VERTEX
  8
g1
 10
-0.120000
 20
-0.058740
  0
SEQEND
  8
g1
  0
INSERT
  8
g1
  2
D30
 10
-0.129190
 20
-0.049550
 41
1.0
 42
1.0
 43
1.0
 50
0.0
  0
INSERT
  8
g1
  2
D30
 10
-0.120000
 20
-0.058740
 41
1.0
 42
1.0
 43
1.0
 50
0.0
  0
POLYLINE
  8
g1
 62
1
 40
0.007000
 41
0.007000
 66
  1
  0
VERTEX
  8
g1
 10
-0.190000
 20
-0.345000
  0
VERTEX
  8
g1
 10
-0.130000
 20
-0.345000
  0
SEQEND
  8
g1
  0
INSERT
  8
g1
  2
D30
 10
-0.190000
 20
-0.345000
 41
1.0
 42
1.0
 43
1.0
 50
0.0
  0
INSERT
  8
g1
  2
D30
 10
-0.130000
 20
-0.345000
 41
1.0
 42
1.0
 43
1.0
 50
0.0
  0
POLYLINE
  8
g1
 62
1
 40
0.007000
 41
0.007000
 66
  1
  0
VERTEX
  8
g1
 10
-0.148850
 20
-0.002310
  0
VERTEX
  8
g1
 10
-0.129190
 20
-0.002310
  0
SEQEND
  8
g1
  0
INSERT
  8
g1
  2
D30
 10
-0.148850
 20
-0.002310
 41
1.0
 42
1.0
 43
1.0
 50
0.0
  0
INSERT
  8
g1
  2
D30
 10
-0.129190
 20
-0.002310
 41
1.0
 42
1.0
 43
1.0
 50
0.0
  0
POLYLINE
  8
g1
 62
1
 40
0.007000
 41
0.007000
 66
  1
  0
VERTEX
  8
g1
 10
-0.161030
 20
-0.145410
  0
VERTEX
  8
g1
 10
-0.161030
 20
-0.014480
  0
SEQEND
  8
g1
  0
INSERT
  8
g1
  2
D30
 10
-0.161030
 20
-0.145410
 41
1.0
 42
1.0
 43
1.0
 50
0.0
  0
POLYLINE
  8
g1
 62
1
 40
0.007000
 41
0.007000
 66
  1
  0
VERTEX
  8
g1
 10
-0.161030
 20
-0.014480
  0
VERTEX
  8
g1
 10
-0.148850
 20
-0.002310
  0
SEQEND
  8
g1
  0
INSERT
  8
g1
  2
D30
 10
-0.161030
 20
-0.014480
 41
1.0
 42
1.0
 43
1.0
 50
0.0
  0
INSERT
  8
g1
  2
D30
 10
-0.148850
 20
-0.002310
 41
1.0
 42
1.0
 43
1.0
 50
0.0
  0
POLYLINE
  8
g1
 62
1
 40
0.007000
 41
0.007000
 66
  1
  0
VERTEX
  8
g1
 10
-0.130000
 20
-0.345000
  0
VERTEX
  8
g1
 10
-0.130000
 20
-0.176440
  0
SEQEND
  8
g1
  0
INSERT
  8
g1
  2
D30
 10
-0.130000
 20
-0.345000
 41
1.0
 42
1.0
 43
1.0
 50
0.0
  0
INSERT
  8
g1
  2
D30
 10
-0.130000
 20
-0.176440
 41
1.0
 42
1.0
 43
1.0
 50
0.0
  0
POLYLINE
  8
g1
 62
1
 40
0.007000
 41
0.007000
 66
  1
  0
VERTEX
  8
g1
 10
-0.161030
 20
-0.145410
  0
VERTEX
  8
g1
 10
-0.130000
 20
-0.176440
  0
SEQEND
  8
g1
  0
INSERT
  8
g1
  2
D30
 10
-0.161030
 20
-0.145410
 41
1.0
 42
1.0
 43
1.0
 50
0.0
  0
INSERT
  8
g1
  2
D30
 10
-0.130000
 20
-0.176440
 41
1.0
 42
1.0
 43
1.0
 50
0.0
  0
POLYLINE
  8
g1
 62
1
 40
0.007000
 41
0.007000
 66
  1
  0
VERTEX
  8
g1
 10
0.300000
 20
-0.316010
  0
VERTEX
  8
g1
 10
0.300000
 20
-0.295000
  0
SEQEND
  8
g1
  0
INSERT
  8
g1
  2
D30
 10
0.300000
 20
-0.316010
 41
1.0
 42
1.0
 43
1.0
 50
0.0
  0
INSERT
  8
g1
  2
D30
 10
0.300000
 20
-0.295000
 41
1.0
 42
1.0
 43
1.0
 50
0.0
  0
POLYLINE
  8
g1
 62
1
 40
0.007000
 41
0.007000
 66
  1
  0
VERTEX
  8
g1
 10
0.176490
 20
-0.337980
  0
VERTEX
  8
g1
 10
0.278030
 20
-0.337980
  0
SEQEND
  8
g1
  0
INSERT
  8
g1
  2
D30
 10
0.176490
 20
-0.337980
 41
1.0
 42
1.0
 43
1.0
 50
0.0
  0
INSERT
  8
g1
  2
D30
 10
0.278030
 20
-0.337980
 41
1.0
 42
1.0
 43
1.0
 50
0.0
  0
POLYLINE
  8
g1
 62
1
 40
0.007000
 41
0.007000
 66
  1
  0
VERTEX
  8
g1
 10
0.165000
 20
-0.326490
  0
VERTEX
  8
g1
 10
0.176490
 20
-0.337980
  0
SEQEND
  8
g1
  0
INSERT
  8
g1
  2
D30
 10
0.165000
 20
-0.326490
 41
1.0
 42
1.0
 43
1.0
 50
0.0
  0
INSERT
  8
g1
  2
D30
 10
0.176490
 20
-0.337980
 41
1.0
 42
1.0
 43
1.0
 50
0.0
  0
POLYLINE
  8
g1
 62
1
 40
0.007000
 41
0.007000
 66
  1
  0
VERTEX
  8
g1
 10
0.165000
 20
-0.326490
  0
VERTEX
  8
g1
 10
0.165000
 20
-0.310000
  0
SEQEND
  8
g1
  0
INSERT
  8
g1
  2
D30
 10
0.165000
 20
-0.326490
 41
1.0
 42
1.0
 43
1.0
 50
0.0
  0
INSERT
  8
g1
  2
D30
 10
0.165000
 20
-0.310000
 41
1.0
 42
1.0
 43
1.0
 50
0.0
  0
POLYLINE
  8
g1
 62
1
 40
0.007000
 41
0.007000
 66
  1
  0
VERTEX
  8
g1
 10
0.300000
 20
-0.210000
  0
VERTEX
  8
g1
 10
0.300000
 20
-0.183880
  0
SEQEND
  8
g1
  0
INSERT
  8
g1
  2
D30
 10
0.300000
 20
-0.210000
 41
1.0
 42
1.0
 43
1.0
 50
0.0
  0
INSERT
  8
g1
  2
D30
 10
0.300000
 20
-0.183880
 41
1.0
 42
1.0
 43
1.0
 50
0.0
  0
POLYLINE
  8
g1
 62
1
 40
0.007000
 41
0.007000
 66
  1
  0
VERTEX
  8
g1
 10
0.276890
 20
-0.160760
  0
VERTEX
  8
g1
 10
0.300000
 20
-0.183880
  0
SEQEND
  8
g1
  0
INSERT
  8
g1
  2
D30
 10
0.276890
 20
-0.160760
 41
1.0
 42
1.0
 43
1.0
 50
0.0
  0
INSERT
  8
g1
  2
D30
 10
0.300000
 20
-0.183880
 41
1.0
 42
1.0
 43
1.0
 50
0.0
  0
POLYLINE
  8
g1
 62
1
 40
0.007000
 41
0.007000
 66
  1
  0
VERTEX
  8
g1
 10
0.039390
 20
-0.073260
  0
VERTEX
  8
g1
 10
0.070000
 20
-0.103870
  0
SEQEND
  8
g1
  0
INSERT
  8
g1
  2
D30
 10
0.039390
 20
-0.073260
 41
1.0
 42
1.0
 43
1.0
 50
0.0
  0
INSERT
  8
g1
  2
D30
 10
0.070000
 20
-0.103870
 41
1.0
 42
1.0
 43
1.0
 50
0.0
  0
POLYLINE
  8
g1
 62
1
 40
0.007000
 41
0.007000
 66
  1
  0
VERTEX
  8
g1
 10
-0.018960
 20
-0.064720
  0
VERTEX
  8
g1
 10
-0.018960
 20
-0.049550
  0
SEQEND
  8
g1
  0
INSERT
  8
g1
  2
D30
 10
-0.018960
 20
-0.064720
 41
1.0
 42
1.0
 43
1.0
 50
0.0
  0
INSERT
  8
g1
  2
D30
 10
-0.018960
 20
-0.049550
 41
1.0
 42
1.0
 43
1.0
 50
0.0
  0
POLYLINE
  8
g1
 62
1
 40
0.007000
 41
0.007000
 66
  1
  0
VERTEX
  8
g1
 10
-0.018960
 20
-0.064720
  0
VERTEX
  8
g1
 10
-0.010410
 20
-0.073260
  0
SEQEND
  8
g1
  0
INSERT
  8
g1
  2
D30
 10
-0.018960
 20
-0.064720
 41
1.0
 42
1.0
 43
1.0
 50
0.0
  0
POLYLINE
  8
g1
 62
1
 40
0.007000
 41
0.007000
 66
  1
  0
VERTEX
  8
g1
 10
-0.010410
 20
-0.073260
  0
VERTEX
  8
g1
 10
0.039390
 20
-0.073260
  0
SEQEND
  8
g1
  0
INSERT
  8
g1
  2
D30
 10
-0.010410
 20
-0.073260
 41
1.0
 42
1.0
 43
1.0
 50
0.0
  0
INSERT
  8
g1
  2
D30
 10
0.039390
 20
-0.073260
 41
1.0
 42
1.0
 43
1.0
 50
0.0
  0
POLYLINE
  8
g1
 62
1
 40
0.007000
 41
0.007000
 66
  1
  0
VERTEX
  8
g1
 10
0.070000
 20
-0.150000
  0
VERTEX
  8
g1
 10
0.070000
 20
-0.103870
  0
SEQEND
  8
g1
  0
INSERT
  8
g1
  2
D30
 10
0.070000
 20
-0.150000
 41
1.0
 42
1.0
 43
1.0
 50
0.0
  0
INSERT
  8
g1
  2
D30
 10
0.070000
 20
-0.103870
 41
1.0
 42
1.0
 43
1.0
 50
0.0
  0
POLYLINE
  8
g1
 62
1
 40
0.007000
 41
0.007000
 66
  1
  0
VERTEX
  8
g1
 10
0.119540
 20
-0.160760
  0
VERTEX
  8
g1
 10
0.276890
 20
-0.160760
  0
SEQEND
  8
g1
  0
INSERT
  8
g1
  2
D30
 10
0.119540
 20
-0.160760
 41
1.0
 42
1.0
 43
1.0
 50
0.0
  0
INSERT
  8
g1
  2
D30
 10
0.276890
 20
-0.160760
 41
1.0
 42
1.0
 43
1.0
 50
0.0
  0
POLYLINE
  8
g1
 62
1
 40
0.007000
 41
0.007000
 66
  1
  0
VERTEX
  8
g1
 10
0.090000
 20
-0.210000
  0
VERTEX
  8
g1
 10
0.090000
 20
-0.190310
  0
SEQEND
  8
g1
  0
INSERT
  8
g1
  2
D30
 10
0.090000
 20
-0.210000
 41
1.0
 42
1.0
 43
1.0
 50
0.0
  0
POLYLINE
  8
g1
 62
1
 40
0.007000
 41
0.007000
 66
  1
  0
VERTEX
  8
g1
 10
0.090000
 20
-0.190310
  0
VERTEX
  8
g1
 10
0.119540
 20
-0.160760
  0
SEQEND
  8
g1
  0
INSERT
  8
g1
  2
D30
 10
0.090000
 20
-0.190310
 41
1.0
 42
1.0
 43
1.0
 50
0.0
  0
INSERT
  8
g1
  2
D30
 10
0.119540
 20
-0.160760
 41
1.0
 42
1.0
 43
1.0
 50
0.0
  0
POLYLINE
  8
g1
 62
1
 40
0.007000
 41
0.007000
 66
  1
  0
VERTEX
  8
g1
 10
0.070000
 20
-0.150000
  0
VERTEX
  8
g1
 10
0.090000
 20
-0.170000
  0
SEQEND
  8
g1
  0
INSERT
  8
g1
  2
D30
 10
0.070000
 20
-0.150000
 41
1.0
 42
1.0
 43
1.0
 50
0.0
  0
INSERT
  8
g1
  2
D30
 10
0.090000
 20
-0.170000
 41
1.0
 42
1.0
 43
1.0
 50
0.0
  0
POLYLINE
  8
g1
 62
1
 40
0.007000
 41
0.007000
 66
  1
  0
VERTEX
  8
g1
 10
0.090000
 20
-0.190310
  0
VERTEX
  8
g1
 10
0.090000
 20
-0.170000
  0
SEQEND
  8
g1
  0
INSERT
  8
g1
  2
D30
 10
0.090000
 20
-0.190310
 41
1.0
 42
1.0
 43
1.0
 50
0.0
  0
INSERT
  8
g1
  2
D30
 10
0.090000
 20
-0.170000
 41
1.0
 42
1.0
 43
1.0
 50
0.0
  0
POLYLINE
  8
g1
 62
1
 40
0.007000
 41
0.007000
 66
  1
  0
VERTEX
  8
g1
 10
0.100000
 20
-0.135000
  0
VERTEX
  8
g1
 10
0.100000
 20
-0.078290
  0
SEQEND
  8
g1
  0
INSERT
  8
g1
  2
D30
 10
0.100000
 20
-0.135000
 41
1.0
 42
1.0
 43
1.0
 50
0.0
  0
INSERT
  8
g1
  2
D30
 10
0.100000
 20
-0.078290
 41
1.0
 42
1.0
 43
1.0
 50
0.0
  0
POLYLINE
  8
g1
 62
1
 40
0.007000
 41
0.007000
 66
  1
  0
VERTEX
  8
g1
 10
0.071260
 20
-0.049550
  0
VERTEX
  8
g1
 10
0.100000
 20
-0.078290
  0
SEQEND
  8
g1
  0
INSERT
  8
g1
  2
D30
 10
0.071260
 20
-0.049550
 41
1.0
 42
1.0
 43
1.0
 50
0.0
  0
INSERT
  8
g1
  2
D30
 10
0.100000
 20
-0.078290
 41
1.0
 42
1.0
 43
1.0
 50
0.0
  0
POLYLINE
  8
g1
 62
1
 40
0.007000
 41
0.007000
 66
  1
  0
VERTEX
  8
g1
 10
-0.003210
 20
-0.049550
  0
VERTEX
  8
g1
 10
0.071260
 20
-0.049550
  0
SEQEND
  8
g1
  0
INSERT
  8
g1
  2
D30
 10
-0.003210
 20
-0.049550
 41
1.0
 42
1.0
 43
1.0
 50
0.0
  0
INSERT
  8
g1
  2
D30
 10
0.071260
 20
-0.049550
 41
1.0
 42
1.0
 43
1.0
 50
0.0
  0
POLYLINE
  8
g1
 62
1
 40
0.007000
 41
0.007000
 66
  1
  0
VERTEX
  8
g1
 10
0.289010
 20
-0.326990
  0
VERTEX
  8
g1
 10
0.317720
 20
-0.326990
  0
SEQEND
  8
g1
  0
INSERT
  8
g1
  2
D30
 10
0.289010
 20
-0.326990
 41
1.0
 42
1.0
 43
1.0
 50
0.0
  0
POLYLINE
  8
g1
 62
1
 40
0.007000
 41
0.007000
 66
  1
  0
VERTEX
  8
g1
 10
0.317720
 20
-0.326990
  0
VERTEX
  8
g1
 10
0.326520
 20
-0.318200
  0
SEQEND
  8
g1
  0
INSERT
  8
g1
  2
D30
 10
0.317720
 20
-0.326990
 41
1.0
 42
1.0
 43
1.0
 50
0.0
  0
INSERT
  8
g1
  2
D30
 10
0.326520
 20
-0.318200
 41
1.0
 42
1.0
 43
1.0
 50
0.0
  0
POLYLINE
  8
g1
 62
1
 40
0.007000
 41
0.007000
 66
  1
  0
VERTEX
  8
g1
 10
0.278030
 20
-0.337980
  0
VERTEX
  8
g1
 10
0.289010
 20
-0.326990
  0
SEQEND
  8
g1
  0
INSERT
  8
g1
  2
D30
 10
0.278030
 20
-0.337980
 41
1.0
 42
1.0
 43
1.0
 50
0.0
  0
POLYLINE
  8
g1
 62
1
 40
0.007000
 41
0.007000
 66
  1
  0
VERTEX
  8
g1
 10
0.289010
 20
-0.326990
  0
VERTEX
  8
g1
 10
0.300000
 20
-0.316010
  0
SEQEND
  8
g1
  0
INSERT
  8
g1
  2
D30
 10
0.289010
 20
-0.326990
 41
1.0
 42
1.0
 43
1.0
 50
0.0
  0
INSERT
  8
g1
  2
D30
 10
0.300000
 20
-0.316010
 41
1.0
 42
1.0
 43
1.0
 50
0.0
  0
POLYLINE
  8
g1
 62
1
 40
0.007000
 41
0.007000
 66
  1
  0
VERTEX
  8
g1
 10
0.100000
 20
-0.135000
  0
VERTEX
  8
g1
 10
0.280220
 20
-0.135000
  0
SEQEND
  8
g1
  0
INSERT
  8
g1
  2
D30
 10
0.100000
 20
-0.135000
 41
1.0
 42
1.0
 43
1.0
 50
0.0
  0
POLYLINE
  8
g1
 62
1
 40
0.007000
 41
0.007000
 66
  1
  0
VERTEX
  8
g1
 10
0.280220
 20
-0.135000
  0
VERTEX
  8
g1
 10
0.326520
 20
-0.181300
  0
SEQEND
  8
g1
  0
INSERT
  8
g1
  2
D30
 10
0.280220
 20
-0.135000
 41
1.0
 42
1.0
 43
1.0
 50
0.0
  0
INSERT
  8
g1
  2
D30
 10
0.326520
 20
-0.181300
 41
1.0
 42
1.0
 43
1.0
 50
0.0
  0
POLYLINE
  8
g1
 62
1
 40
0.007000
 41
0.007000
 66
  1
  0
VERTEX
  8
g1
 10
0.326520
 20
-0.318200
  0
VERTEX
  8
g1
 10
0.326520
 20
-0.181300
  0
SEQEND
  8
g1
  0
INSERT
  8
g1
  2
D30
 10
0.326520
 20
-0.318200
 41
1.0
 42
1.0
 43
1.0
 50
0.0
  0
INSERT
  8
g1
  2
D30
 10
0.326520
 20
-0.181300
 41
1.0
 42
1.0
 43
1.0
 50
0.0
  0
POLYLINE
  8
g1
 62
1
 40
0.008000
 41
0.008000
 66
  1
  0
VERTEX
  8
g1
 10
-0.210000
 20
0.095000
  0
VERTEX
  8
g1
 10
-0.190000
 20
0.095000
  0
SEQEND
  8
g1
  0
INSERT
  8
g1
  2
D31
 10
-0.210000
 20
0.095000
 41
1.0
 42
1.0
 43
1.0
 50
0.0
  0
POLYLINE
  8
g1
 62
1
 40
0.008000
 41
0.008000
 66
  1
  0
VERTEX
  8
g1
 10
-0.190000
 20
0.095000
  0
VERTEX
  8
g1
 10
-0.139940
 20
0.044940
  0
SEQEND
  8
g1
  0
INSERT
  8
g1
  2
D31
 10
-0.190000
 20
0.095000
 41
1.0
 42
1.0
 43
1.0
 50
0.0
  0
POLYLINE
  8
g1
 62
1
 40
0.008000
 41
0.008000
 66
  1
  0
VERTEX
  8
g1
 10
-0.139940
 20
0.044940
  0
VERTEX
  8
g1
 10
-0.129200
 20
0.044940
  0
SEQEND
  8
g1
  0
INSERT
  8
g1
  2
D31
 10
-0.139940
 20
0.044940
 41
1.0
 42
1.0
 43
1.0
 50
0.0
  0
INSERT
  8
g1
  2
D31
 10
-0.129200
 20
0.044940
 41
1.0
 42
1.0
 43
1.0
 50
0.0
  0
POLYLINE
  8
g1
 62
1
 40
0.008000
 41
0.008000
 66
  1
  0
VERTEX
  8
g1
 10
-0.040000
 20
-0.350000
  0
VERTEX
  8
g1
 10
0.005000
 20
-0.350000
  0
SEQEND
  8
g1
  0
INSERT
  8
g1
  2
D31
 10
-0.040000
 20
-0.350000
 41
1.0
 42
1.0
 43
1.0
 50
0.0
  0
INSERT
  8
g1
  2
D31
 10
0.005000
 20
-0.350000
 41
1.0
 42
1.0
 43
1.0
 50
0.0
  0
POLYLINE
  8
g1
 62
1
 40
0.008000
 41
0.008000
 66
  1
  0
VERTEX
  8
g1
 10
0.003860
 20
-0.088860
  0
VERTEX
  8
g1
 10
0.025000
 20
-0.110000
  0
SEQEND
  8
g1
  0
INSERT
  8
g1
  2
D31
 10
0.003860
 20
-0.088860
 41
1.0
 42
1.0
 43
1.0
 50
0.0
  0
INSERT
  8
g1
  2
D31
 10
0.025000
 20
-0.110000
 41
1.0
 42
1.0
 43
1.0
 50
0.0
  0
POLYLINE
  8
g1
 62
1
 40
0.008000
 41
0.008000
 66
  1
  0
VERTEX
  8
g1
 10
-0.034710
 20
-0.076920
  0
VERTEX
  8
g1
 10
-0.034710
 20
-0.049550
  0
SEQEND
  8
g1
  0
INSERT
  8
g1
  2
D31
 10
-0.034710
 20
-0.076920
 41
1.0
 42
1.0
 43
1.0
 50
0.0
  0
INSERT
  8
g1
  2
D31
 10
-0.034710
 20
-0.049550
 41
1.0
 42
1.0
 43
1.0
 50
0.0
  0
POLYLINE
  8
g1
 62
1
 40
0.008000
 41
0.008000
 66
  1
  0
VERTEX
  8
g1
 10
-0.034710
 20
-0.076920
  0
VERTEX
  8
g1
 10
-0.022770
 20
-0.088860
  0
SEQEND
  8
g1
  0
INSERT
  8
g1
  2
D31
 10
-0.034710
 20
-0.076920
 41
1.0
 42
1.0
 43
1.0
 50
0.0
  0
POLYLINE
  8
g1
 62
1
 40
0.008000
 41
0.008000
 66
  1
  0
VERTEX
  8
g1
 10
-0.022770
 20
-0.088860
  0
VERTEX
  8
g1
 10
0.003860
 20
-0.088860
  0
SEQEND
  8
g1
  0
INSERT
  8
g1
  2
D31
 10
-0.022770
 20
-0.088860
 41
1.0
 42
1.0
 43
1.0
 50
0.0
  0
INSERT
  8
g1
  2
D31
 10
0.003860
 20
-0.088860
 41
1.0
 42
1.0
 43
1.0
 50
0.0
  0
POLYLINE
  8
g1
 62
1
 40
0.008000
 41
0.008000
 66
  1
  0
VERTEX
  8
g1
 10
0.100000
 20
0.110000
  0
VERTEX
  8
g1
 10
0.100000
 20
0.160000
  0
SEQEND
  8
g1
  0
INSERT
  8
g1
  2
D31
 10
0.100000
 20
0.110000
 41
1.0
 42
1.0
 43
1.0
 50
0.0
  0
INSERT
  8
g1
  2
D31
 10
0.100000
 20
0.160000
 41
1.0
 42
1.0
 43
1.0
 50
0.0
  0
POLYLINE
  8
g1
 62
1
 40
0.008000
 41
0.008000
 66
  1
  0
VERTEX
  8
g1
 10
0.060000
 20
0.160000
  0
VERTEX
  8
g1
 10
0.060000
 20
0.210000
  0
SEQEND
  8
g1
  0
INSERT
  8
g1
  2
D31
 10
0.060000
 20
0.160000
 41
1.0
 42
1.0
 43
1.0
 50
0.0
  0
POLYLINE
  8
g1
 62
1
 40
0.008000
 41
0.008000
 66
  1
  0
VERTEX
  8
g1
 10
0.060000
 20
0.210000
  0
VERTEX
  8
g1
 10
0.060000
 20
0.260000
  0
SEQEND
  8
g1
  0
INSERT
  8
g1
  2
D31
 10
0.060000
 20
0.210000
 41
1.0
 42
1.0
 43
1.0
 50
0.0
  0
POLYLINE
  8
g1
 62
1
 40
0.008000
 41
0.008000
 66
  1
  0
VERTEX
  8
g1
 10
0.060000
 20
0.260000
  0
VERTEX
  8
g1
 10
0.060000
 20
0.310000
  0
SEQEND
  8
g1
  0
INSERT
  8
g1
  2
D31
 10
0.060000
 20
0.260000
 41
1.0
 42
1.0
 43
1.0
 50
0.0
  0
INSERT
  8
g1
  2
D31
 10
0.060000
 20
0.310000
 41
1.0
 42
1.0
 43
1.0
 50
0.0
  0
POLYLINE
  8
g1
 62
1
 40
0.008000
 41
0.008000
 66
  1
  0
VERTEX
  8
g1
 10
-0.018960
 20
0.044940
  0
VERTEX
  8
g1
 10
0.046110
 20
0.110000
  0
SEQEND
  8
g1
  0
INSERT
  8
g1
  2
D31
 10
-0.018960
 20
0.044940
 41
1.0
 42
1.0
 43
1.0
 50
0.0
  0
POLYLINE
  8
g1
 62
1
 40
0.008000
 41
0.008000
 66
  1
  0
VERTEX
  8
g1
 10
0.046110
 20
0.110000
  0
VERTEX
  8
g1
 10
0.060000
 20
0.110000
  0
SEQEND
  8
g1
  0
INSERT
  8
g1
  2
D31
 10
0.046110
 20
0.110000
 41
1.0
 42
1.0
 43
1.0
 50
0.0
  0
INSERT
  8
g1
  2
D31
 10
0.060000
 20
0.110000
 41
1.0
 42
1.0
 43
1.0
 50
0.0
  0
INSERT
  8
g1
  2
D33
 10
-0.081950
 20
-0.049550
 41
1.0
 42
1.0
 43
1.0
 50
0.0
  0
INSERT
  8
g1
  2
D33
 10
-0.113440
 20
-0.049550
 41
1.0
 42
1.0
 43
1.0
 50
0.0
  0
INSERT
  8
g1
  2
D33
 10
-0.097700
 20
-0.049550
 41
1.0
 42
1.0
 43
1.0
 50
0.0
  0
INSERT
  8
g1
  2
D33
 10
-0.018960
 20
-0.049550
 41
1.0
 42
1.0
 43
1.0
 50
0.0
  0
INSERT
  8
g1
  2
D33
 10
-0.003210
 20
-0.049550
 41
1.0
 42
1.0
 43
1.0
 50
0.0
  0
INSERT
  8
g1
  2
D33
 10
-0.129190
 20
0.013440
 41
1.0
 42
1.0
 43
1.0
 50
0.0
  0
INSERT
  8
g1
  2
D33
 10
-0.034710
 20
-0.002310
 41
1.0
 42
1.0
 43
1.0
 50
0.0
  0
INSERT
  8
g1
  2
D33
 10
-0.018960
 20
0.029190
 41
1.0
 42
1.0
 43
1.0
 50
0.0
  0
INSERT
  8
g1
  2
D33
 10
-0.003210
 20
0.029190
 41
1.0
 42
1.0
 43
1.0
 50
0.0
  0
INSERT
  8
g1
  2
D33
 10
-0.018960
 20
0.044940
 41
1.0
 42
1.0
 43
1.0
 50
0.0
  0
INSERT
  8
g1
  2
D33
 10
-0.034710
 20
0.044940
 41
1.0
 42
1.0
 43
1.0
 50
0.0
  0
INSERT
  8
g1
  2
D33
 10
-0.034710
 20
0.029190
 41
1.0
 42
1.0
 43
1.0
 50
0.0
  0
INSERT
  8
g1
  2
D33
 10
-0.050450
 20
0.029190
 41
1.0
 42
1.0
 43
1.0
 50
0.0
  0
INSERT
  8
g1
  2
D33
 10
-0.066200
 20
0.060690
 41
1.0
 42
1.0
 43
1.0
 50
0.0
  0
INSERT
  8
g1
  2
D33
 10
-0.097700
 20
0.044940
 41
1.0
 42
1.0
 43
1.0
 50
0.0
  0
INSERT
  8
g1
  2
D33
 10
-0.081950
 20
0.029190
 41
1.0
 42
1.0
 43
1.0
 50
0.0
  0
INSERT
  8
g1
  2
D33
 10
-0.129190
 20
-0.049550
 41
1.0
 42
1.0
 43
1.0
 50
0.0
  0
INSERT
  8
g1
  2
D33
 10
-0.129190
 20
-0.033800
 41
1.0
 42
1.0
 43
1.0
 50
0.0
  0
INSERT
  8
g1
  2
D33
 10
-0.113450
 20
-0.033800
 41
1.0
 42
1.0
 43
1.0
 50
0.0
  0
INSERT
  8
g1
  2
D33
 10
-0.081950
 20
-0.033800
 41
1.0
 42
1.0
 43
1.0
 50
0.0
  0
INSERT
  8
g1
  2
D33
 10
-0.034700
 20
0.013440
 41
1.0
 42
1.0
 43
1.0
 50
0.0
  0
INSERT
  8
g1
  2
D33
 10
-0.018960
 20
0.013440
 41
1.0
 42
1.0
 43
1.0
 50
0.0
  0
INSERT
  8
g1
  2
D33
 10
-0.018960
 20
-0.002310
 41
1.0
 42
1.0
 43
1.0
 50
0.0
  0
INSERT
  8
g1
  2
D33
 10
-0.003210
 20
-0.018050
 41
1.0
 42
1.0
 43
1.0
 50
0.0
  0
INSERT
  8
g1
  2
D33
 10
-0.018960
 20
-0.018050
 41
1.0
 42
1.0
 43
1.0
 50
0.0
  0
INSERT
  8
g1
  2
D33
 10
-0.034710
 20
-0.033800
 41
1.0
 42
1.0
 43
1.0
 50
0.0
  0
INSERT
  8
g1
  2
D33
 10
-0.050450
 20
-0.033800
 41
1.0
 42
1.0
 43
1.0
 50
0.0
  0
INSERT
  8
g1
  2
D33
 10
-0.050450
 20
-0.049550
 41
1.0
 42
1.0
 43
1.0
 50
0.0
  0
INSERT
  8
g1
  2
D33
 10
-0.034710
 20
-0.049550
 41
1.0
 42
1.0
 43
1.0
 50
0.0
  0
INSERT
  8
g1
  2
D33
 10
-0.113450
 20
0.060690
 41
1.0
 42
1.0
 43
1.0
 50
0.0
  0
INSERT
  8
g1
  2
D33
 10
-0.034710
 20
0.060690
 41
1.0
 42
1.0
 43
1.0
 50
0.0
  0
INSERT
  8
g1
  2
D33
 10
-0.050450
 20
0.044940
 41
1.0
 42
1.0
 43
1.0
 50
0.0
  0
INSERT
  8
g1
  2
D33
 10
-0.050450
 20
0.060690
 41
1.0
 42
1.0
 43
1.0
 50
0.0
  0
INSERT
  8
g1
  2
D33
 10
-0.129190
 20
0.060690
 41
1.0
 42
1.0
 43
1.0
 50
0.0
  0
INSERT
  8
g1
  2
D33
 10
-0.129190
 20
0.029190
 41
1.0
 42
1.0
 43
1.0
 50
0.0
  0
INSERT
  8
g1
  2
D33
 10
-0.113450
 20
0.044940
 41
1.0
 42
1.0
 43
1.0
 50
0.0
  0
INSERT
  8
g1
  2
D33
 10
-0.129200
 20
0.044940
 41
1.0
 42
1.0
 43
1.0
 50
0.0
  0
POLYLINE
  8
g1
 62
1
 40
0.007000
 41
0.007000
 66
  1
  0
VERTEX
  8
g1
 10
-0.113440
 20
-0.049550
  0
VERTEX
  8
g1
 10
-0.106070
 20
-0.056930
  0
SEQEND
  8
g1
  0
INSERT
  8
g1
  2
D34
 10
-0.113440
 20
-0.049550
 41
1.0
 42
1.0
 43
1.0
 50
0.0
  0
INSERT
  8
g1
  2
D34
 10
-0.106070
 20
-0.056930
 41
1.0
 42
1.0
 43
1.0
 50
0.0
  0
POLYLINE
  8
g1
 62
1
 40
0.007000
 41
0.007000
 66
  1
  0
VERTEX
  8
g1
 10
-0.106070
 20
-0.084850
  0
VERTEX
  8
g1
 10
-0.106070
 20
-0.056930
  0
SEQEND
  8
g1
  0
INSERT
  8
g1
  2
D34
 10
-0.106070
 20
-0.084850
 41
1.0
 42
1.0
 43
1.0
 50
0.0
  0
INSERT
  8
g1
  2
D34
 10
-0.106070
 20
-0.056930
 41
1.0
 42
1.0
 43
1.0
 50
0.0
  0
POLYLINE
  8
g1
 62
1
 40
0.007000
 41
0.007000
 66
  1
  0
VERTEX
  8
g1
 10
-0.113450
 20
-0.033800
  0
VERTEX
  8
g1
 10
-0.113450
 20
-0.033800
  0
SEQEND
  8
g1
  0
INSERT
  8
g1
  2
D34
 10
-0.113450
 20
-0.033800
 41
1.0
 42
1.0
 43
1.0
 50
0.0
  0
INSERT
  8
g1
  2
D34
 10
-0.113450
 20
-0.033800
 41
1.0
 42
1.0
 43
1.0
 50
0.0
  0
POLYLINE
  8
g1
 62
1
 40
0.007000
 41
0.007000
 66
  1
  0
VERTEX
  8
g1
 10
-0.034710
 20
0.029190
  0
VERTEX
  8
g1
 10
-0.034710
 20
0.029190
  0
SEQEND
  8
g1
  0
INSERT
  8
g1
  2
D34
 10
-0.034710
 20
0.029190
 41
1.0
 42
1.0
 43
1.0
 50
0.0
  0
INSERT
  8
g1
  2
D34
 10
-0.034710
 20
0.029190
 41
1.0
 42
1.0
 43
1.0
 50
0.0
  0
POLYLINE
  8
g1
 62
1
 40
0.007000
 41
0.007000
 66
  1
  0
VERTEX
  8
g1
 10
-0.034700
 20
0.013440
  0
VERTEX
  8
g1
 10
-0.034700
 20
0.013440
  0
SEQEND
  8
g1
  0
INSERT
  8
g1
  2
D34
 10
-0.034700
 20
0.013440
 41
1.0
 42
1.0
 43
1.0
 50
0.0
  0
INSERT
  8
g1
  2
D34
 10
-0.034700
 20
0.013440
 41
1.0
 42
1.0
 43
1.0
 50
0.0
  0
POLYLINE
  8
g1
 62
1
 40
0.007000
 41
0.007000
 66
  1
  0
VERTEX
  8
g1
 10
-0.034710
 20
-0.002310
  0
VERTEX
  8
g1
 10
-0.034710
 20
-0.002310
  0
SEQEND
  8
g1
  0
INSERT
  8
g1
  2
D34
 10
-0.034710
 20
-0.002310
 41
1.0
 42
1.0
 43
1.0
 50
0.0
  0
INSERT
  8
g1
  2
D34
 10
-0.034710
 20
-0.002310
 41
1.0
 42
1.0
 43
1.0
 50
0.0
  0
POLYLINE
  8
g1
 62
1
 40
0.007000
 41
0.007000
 66
  1
  0
VERTEX
  8
g1
 10
-0.050450
 20
0.029190
  0
VERTEX
  8
g1
 10
-0.050450
 20
0.029190
  0
SEQEND
  8
g1
  0
INSERT
  8
g1
  2
D34
 10
-0.050450
 20
0.029190
 41
1.0
 42
1.0
 43
1.0
 50
0.0
  0
INSERT
  8
g1
  2
D34
 10
-0.050450
 20
0.029190
 41
1.0
 42
1.0
 43
1.0
 50
0.0
  0
POLYLINE
  8
g1
 62
1
 40
0.007000
 41
0.007000
 66
  1
  0
VERTEX
  8
g1
 10
-0.034710
 20
0.029190
  0
VERTEX
  8
g1
 10
-0.034710
 20
0.029190
  0
SEQEND
  8
g1
  0
INSERT
  8
g1
  2
D34
 10
-0.034710
 20
0.029190
 41
1.0
 42
1.0
 43
1.0
 50
0.0
  0
INSERT
  8
g1
  2
D34
 10
-0.034710
 20
0.029190
 41
1.0
 42
1.0
 43
1.0
 50
0.0
  0
POLYLINE
  8
g1
 62
1
 40
0.007000
 41
0.007000
 66
  1
  0
VERTEX
  8
g1
 10
0.135000
 20
-0.210000
  0
VERTEX
  8
g1
 10
0.135000
 20
-0.186980
  0
SEQEND
  8
g1
  0
INSERT
  8
g1
  2
D34
 10
0.135000
 20
-0.210000
 41
1.0
 42
1.0
 43
1.0
 50
0.0
  0
INSERT
  8
g1
  2
D34
 10
0.135000
 20
-0.186980
 41
1.0
 42
1.0
 43
1.0
 50
0.0
  0
POLYLINE
  8
g1
 62
1
 40
0.007000
 41
0.007000
 66
  1
  0
VERTEX
  8
g1
 10
0.250000
 20
-0.210000
  0
VERTEX
  8
g1
 10
0.250000
 20
-0.189260
  0
SEQEND
  8
g1
  0
INSERT
  8
g1
  2
D34
 10
0.250000
 20
-0.210000
 41
1.0
 42
1.0
 43
1.0
 50
0.0
  0
INSERT
  8
g1
  2
D34
 10
0.250000
 20
-0.189260
 41
1.0
 42
1.0
 43
1.0
 50
0.0
  0
POLYLINE
  8
g1
 62
1
 40
0.007000
 41
0.007000
 66
  1
  0
VERTEX
  8
g1
 10
0.135000
 20
-0.186980
  0
VERTEX
  8
g1
 10
0.146400
 20
-0.175580
  0
SEQEND
  8
g1
  0
INSERT
  8
g1
  2
D34
 10
0.135000
 20
-0.186980
 41
1.0
 42
1.0
 43
1.0
 50
0.0
  0
POLYLINE
  8
g1
 62
1
 40
0.007000
 41
0.007000
 66
  1
  0
VERTEX
  8
g1
 10
0.146400
 20
-0.175580
  0
VERTEX
  8
g1
 10
0.236330
 20
-0.175580
  0
SEQEND
  8
g1
  0
INSERT
  8
g1
  2
D34
 10
0.146400
 20
-0.175580
 41
1.0
 42
1.0
 43
1.0
 50
0.0
  0
POLYLINE
  8
g1
 62
1
 40
0.007000
 41
0.007000
 66
  1
  0
VERTEX
  8
g1
 10
0.236330
 20
-0.175580
  0
VERTEX
  8
g1
 10
0.250000
 20
-0.189260
  0
SEQEND
  8
g1
  0
INSERT
  8
g1
  2
D34
 10
0.236330
 20
-0.175580
 41
1.0
 42
1.0
 43
1.0
 50
0.0
  0
INSERT
  8
g1
  2
D34
 10
0.250000
 20
-0.189260
 41
1.0
 42
1.0
 43
1.0
 50
0.0
  0
POLYLINE
  8
g1
 62
1
 40
0.007000
 41
0.007000
 66
  1
  0
VERTEX
  8
g1
 10
-0.060100
 20
-0.043450
  0
VERTEX
  8
g1
 10
-0.050450
 20
-0.033800
  0
SEQEND
  8
g1
  0
INSERT
  8
g1
  2
D34
 10
-0.060100
 20
-0.043450
 41
1.0
 42
1.0
 43
1.0
 50
0.0
  0
INSERT
  8
g1
  2
D34
 10
-0.050450
 20
-0.033800
 41
1.0
 42
1.0
 43
1.0
 50
0.0
  0
POLYLINE
  8
g1
 62
1
 40
0.007000
 41
0.007000
 66
  1
  0
VERTEX
  8
g1
 10
-0.060100
 20
-0.078520
  0
VERTEX
  8
g1
 10
-0.059380
 20
-0.078520
  0
SEQEND
  8
g1
  0
INSERT
  8
g1
  2
D34
 10
-0.060100
 20
-0.078520
 41
1.0
 42
1.0
 43
1.0
 50
0.0
  0
INSERT
  8
g1
  2
D34
 10
-0.059380
 20
-0.078520
 41
1.0
 42
1.0
 43
1.0
 50
0.0
  0
POLYLINE
  8
g1
 62
1
 40
0.007000
 41
0.007000
 66
  1
  0
VERTEX
  8
g1
 10
-0.060100
 20
-0.078520
  0
VERTEX
  8
g1
 10
-0.060100
 20
-0.043450
  0
SEQEND
  8
g1
  0
INSERT
  8
g1
  2
D34
 10
-0.060100
 20
-0.078520
 41
1.0
 42
1.0
 43
1.0
 50
0.0
  0
INSERT
  8
g1
  2
D34
 10
-0.060100
 20
-0.043450
 41
1.0
 42
1.0
 43
1.0
 50
0.0
  0
POLYLINE
  8
g1
 62
1
 40
0.007000
 41
0.007000
 66
  1
  0
VERTEX
  8
g1
 10
-0.059380
 20
-0.079350
  0
VERTEX
  8
g1
 10
-0.059380
 20
-0.078520
  0
SEQEND
  8
g1
  0
INSERT
  8
g1
  2
D34
 10
-0.059380
 20
-0.079350
 41
1.0
 42
1.0
 43
1.0
 50
0.0
  0
INSERT
  8
g1
  2
D34
 10
-0.059380
 20
-0.078520
 41
1.0
 42
1.0
 43
1.0
 50
0.0
  0
POLYLINE
  8
g1
 62
1
 40
0.007000
 41
0.007000
 66
  1
  0
VERTEX
  8
g1
 10
-0.059380
 20
-0.079350
  0
VERTEX
  8
g1
 10
-0.022830
 20
-0.115910
  0
SEQEND
  8
g1
  0
INSERT
  8
g1
  2
D34
 10
-0.059380
 20
-0.079350
 41
1.0
 42
1.0
 43
1.0
 50
0.0
  0
INSERT
  8
g1
  2
D34
 10
-0.022830
 20
-0.115910
 41
1.0
 42
1.0
 43
1.0
 50
0.0
  0
POLYLINE
  8
g1
 62
1
 40
0.015000
 41
0.015000
 66
  1
  0
VERTEX
  8
g1
 10
-0.018960
 20
-0.002310
  0
VERTEX
  8
g1
 10
0.060520
 20
-0.002310
  0
SEQEND
  8
g1
  0
INSERT
  8
g1
  2
D35
 10
-0.018960
 20
-0.002310
 41
1.0
 42
1.0
 43
1.0
 50
0.0
  0
POLYLINE
  8
g1
 62
1
 40
0.015000
 41
0.015000
 66
  1
  0
VERTEX
  8
g1
 10
0.060520
 20
-0.002310
  0
VERTEX
  8
g1
 10
0.067820
 20
0.005000
  0
SEQEND
  8
g1
  0
INSERT
  8
g1
  2
D35
 10
0.060520
 20
-0.002310
 41
1.0
 42
1.0
 43
1.0
 50
0.0
  0
POLYLINE
  8
g1
 62
1
 40
0.015000
 41
0.015000
 66
  1
  0
VERTEX
  8
g1
 10
0.067820
 20
0.005000
  0
VERTEX
  8
g1
 10
0.130000
 20
0.005000
  0
SEQEND
  8
g1
  0
INSERT
  8
g1
  2
D35
 10
0.067820
 20
0.005000
 41
1.0
 42
1.0
 43
1.0
 50
0.0
  0
INSERT
  8
g1
  2
D35
 10
0.130000
 20
0.005000
 41
1.0
 42
1.0
 43
1.0
 50
0.0
  0
POLYLINE
  8
g1
 62
1
 40
0.015000
 41
0.015000
 66
  1
  0
VERTEX
  8
g1
 10
-0.125000
 20
0.235000
  0
VERTEX
  8
g1
 10
-0.125000
 20
0.285000
  0
SEQEND
  8
g1
  0
INSERT
  8
g1
  2
D35
 10
-0.125000
 20
0.235000
 41
1.0
 42
1.0
 43
1.0
 50
0.0
  0
INSERT
  8
g1
  2
D35
 10
-0.125000
 20
0.285000
 41
1.0
 42
1.0
 43
1.0
 50
0.0
  0
POLYLINE
  8
g1
 62
1
 40
0.015000
 41
0.015000
 66
  1
  0
VERTEX
  8
g1
 10
-0.125000
 20
0.211730
  0
VERTEX
  8
g1
 10
-0.125000
 20
0.235000
  0
SEQEND
  8
g1
  0
INSERT
  8
g1
  2
D35
 10
-0.125000
 20
0.211730
 41
1.0
 42
1.0
 43
1.0
 50
0.0
  0
INSERT
  8
g1
  2
D35
 10
-0.125000
 20
0.235000
 41
1.0
 42
1.0
 43
1.0
 50
0.0
  0
POLYLINE
  8
g1
 62
1
 40
0.015000
 41
0.015000
 66
  1
  0
VERTEX
  8
g1
 10
-0.125000
 20
0.211730
  0
VERTEX
  8
g1
 10
-0.120000
 20
0.206730
  0
SEQEND
  8
g1
  0
INSERT
  8
g1
  2
D35
 10
-0.125000
 20
0.211730
 41
1.0
 42
1.0
 43
1.0
 50
0.0
  0
INSERT
  8
g1
  2
D35
 10
-0.120000
 20
0.206730
 41
1.0
 42
1.0
 43
1.0
 50
0.0
  0
POLYLINE
  8
g1
 62
1
 40
0.015000
 41
0.015000
 66
  1
  0
VERTEX
  8
g1
 10
-0.120000
 20
0.170000
  0
VERTEX
  8
g1
 10
-0.120000
 20
0.206730
  0
SEQEND
  8
g1
  0
INSERT
  8
g1
  2
D35
 10
-0.120000
 20
0.170000
 41
1.0
 42
1.0
 43
1.0
 50
0.0
  0
INSERT
  8
g1
  2
D35
 10
-0.120000
 20
0.206730
 41
1.0
 42
1.0
 43
1.0
 50
0.0
  0
POLYLINE
  8
g1
 62
1
 40
0.015000
 41
0.015000
 66
  1
  0
VERTEX
  8
g1
 10
-0.120000
 20
0.121520
  0
VERTEX
  8
g1
 10
-0.120000
 20
0.170000
  0
SEQEND
  8
g1
  0
INSERT
  8
g1
  2
D35
 10
-0.120000
 20
0.121520
 41
1.0
 42
1.0
 43
1.0
 50
0.0
  0
INSERT
  8
g1
  2
D35
 10
-0.120000
 20
0.170000
 41
1.0
 42
1.0
 43
1.0
 50
0.0
  0
POLYLINE
  8
g1
 62
1
 40
0.015000
 41
0.015000
 66
  1
  0
VERTEX
  8
g1
 10
-0.120000
 20
0.121520
  0
VERTEX
  8
g1
 10
-0.113450
 20
0.114970
  0
SEQEND
  8
g1
  0
INSERT
  8
g1
  2
D35
 10
-0.120000
 20
0.121520
 41
1.0
 42
1.0
 43
1.0
 50
0.0
  0
INSERT
  8
g1
  2
D35
 10
-0.113450
 20
0.114970
 41
1.0
 42
1.0
 43
1.0
 50
0.0
  0
POLYLINE
  8
g1
 62
1
 40
0.015000
 41
0.015000
 66
  1
  0
VERTEX
  8
g1
 10
-0.113450
 20
0.060690
  0
VERTEX
  8
g1
 10
-0.113450
 20
0.114970
  0
SEQEND
  8
g1
  0
INSERT
  8
g1
  2
D35
 10
-0.113450
 20
0.060690
 41
1.0
 42
1.0
 43
1.0
 50
0.0
  0
INSERT
  8
g1
  2
D35
 10
-0.113450
 20
0.114970
 41
1.0
 42
1.0
 43
1.0
 50
0.0
  0
POLYLINE
  8
g1
 62
1
 40
0.015000
 41
0.015000
 66
  1
  0
VERTEX
  8
g1
 10
0.185000
 20
-0.115000
  0
VERTEX
  8
g1
 10
0.185000
 20
-0.060000
  0
SEQEND
  8
g1
  0
INSERT
  8
g1
  2
D35
 10
0.185000
 20
-0.115000
 41
1.0
 42
1.0
 43
1.0
 50
0.0
  0
INSERT
  8
g1
  2
D35
 10
0.185000
 20
-0.060000
 41
1.0
 42
1.0
 43
1.0
 50
0.0
  0
INSERT
  8
g1
  2
D36
 10
0.100000
 20
0.260000
 41
1.0
 42
1.0
 43
1.0
 50
0.0
  0
INSERT
  8
g1
  2
D36
 10
0.000000
 20
-0.175000
 41
1.0
 42
1.0
 43
1.0
 50
0.0
  0
INSERT
  8
g1
  2
D36
 10
-0.274510
 20
0.300780
 41
1.0
 42
1.0
 43
1.0
 50
0.0
  0
INSERT
  8
g1
  2
D36
 10
-0.036660
 20
0.235080
 41
1.0
 42
1.0
 43
1.0
 50
0.0
  0
INSERT
  8
g1
  2
D36
 10
-0.350120
 20
-0.271130
 41
1.0
 42
1.0
 43
1.0
 50
0.0
  0
INSERT
  8
g1
  2
D36
 10
0.258550
 20
-0.264240
 41
1.0
 42
1.0
 43
1.0
 50
0.0
  0
INSERT
  8
g1
  2
D36
 10
0.257160
 20
-0.247170
 41
1.0
 42
1.0
 43
1.0
 50
0.0
  0
INSERT
  8
g1
  2
D36
 10
0.290530
 20
-0.263100
 41
1.0
 42
1.0
 43
1.0
 50
0.0
  0
INSERT
  8
g1
  2
D36
 10
0.294960
 20
-0.245280
 41
1.0
 42
1.0
 43
1.0
 50
0.0
  0
INSERT
  8
g1
  2
D36
 10
-0.022830
 20
-0.115910
 41
1.0
 42
1.0
 43
1.0
 50
0.0
  0
INSERT
  8
g1
  2
D36
 10
-0.229810
 20
-0.088390
 41
1.0
 42
1.0
 43
1.0
 50
0.0
  0
INSERT
  8
g1
  2
D36
 10
-0.081950
 20
-0.049550
 41
1.0
 42
1.0
 43
1.0
 50
0.0
  0
INSERT
  8
g1
  2
D36
 10
-0.129190
 20
-0.002310
 41
1.0
 42
1.0
 43
1.0
 50
0.0
  0
INSERT
  8
g1
  2
D36
 10
-0.003210
 20
0.029190
 41
1.0
 42
1.0
 43
1.0
 50
0.0
  0
INSERT
  8
g1
  2
D36
 10
-0.050450
 20
0.060690
 41
1.0
 42
1.0
 43
1.0
 50
0.0
  0
INSERT
  8
g1
  2
D36
 10
-0.003210
 20
-0.018050
 41
1.0
 42
1.0
 43
1.0
 50
0.0
  0
INSERT
  8
g1
  2
D36
 10
-0.034710
 20
-0.033800
 41
1.0
 42
1.0
 43
1.0
 50
0.0
  0
INSERT
  8
g1
  2
D36
 10
-0.081950
 20
-0.033800
 41
1.0
 42
1.0
 43
1.0
 50
0.0
  0
INSERT
  8
g1
  2
D36
 10
-0.129190
 20
0.060690
 41
1.0
 42
1.0
 43
1.0
 50
0.0
  0
INSERT
  8
g1
  2
D36
 10
-0.113450
 20
0.044940
 41
1.0
 42
1.0
 43
1.0
 50
0.0
  0
INSERT
  8
g1
  2
D36
 10
-0.441590
 20
-0.128300
 41
1.0
 42
1.0
 43
1.0
 50
0.0
  0
INSERT
  8
g1
  2
D36
 10
-0.426690
 20
-0.108540
 41
1.0
 42
1.0
 43
1.0
 50
0.0
  0
INSERT
  8
g1
  2
D36
 10
-0.244350
 20
0.034530
 41
1.0
 42
1.0
 43
1.0
 50
0.0
  0
INSERT
  8
g1
  2
D36
 10
-0.200000
 20
-0.045000
 41
1.0
 42
1.0
 43
1.0
 50
0.0
  0
INSERT
  8
g1
  2
D36
 10
-0.200000
 20
-0.045000
 41
1.0
 42
1.0
 43
1.0
 50
0.0
  0
INSERT
  8
g1
  2
D36
 10
-0.200000
 20
-0.005000
 41
1.0
 42
1.0
 43
1.0
 50
0.0
  0
INSERT
  8
g1
  2
D36
 10
-0.200000
 20
-0.005000
 41
1.0
 42
1.0
 43
1.0
 50
0.0
  0
INSERT
  8
g1
  2
D36
 10
-0.200000
 20
-0.090000
 41
1.0
 42
1.0
 43
1.0
 50
0.0
  0
INSERT
  8
g1
  2
D36
 10
-0.200000
 20
-0.090000
 41
1.0
 42
1.0
 43
1.0
 50
0.0
  0
INSERT
  8
g1
  2
D36
 10
-0.239370
 20
-0.045000
 41
1.0
 42
1.0
 43
1.0
 50
0.0
  0
INSERT
  8
g1
  2
D36
 10
-0.230000
 20
-0.005000
 41
1.0
 42
1.0
 43
1.0
 50
0.0
  0
INSERT
  8
g1
  2
D36
 10
-0.200000
 20
0.035000
 41
1.0
 42
1.0
 43
1.0
 50
0.0
  0
INSERT
  8
g1
  2
D36
 10
-0.200000
 20
0.035000
 41
1.0
 42
1.0
 43
1.0
 50
0.0
  0
INSERT
  8
g1
  2
D36
 10
-0.200000
 20
-0.140000
 41
1.0
 42
1.0
 43
1.0
 50
0.0
  0
INSERT
  8
g1
  2
D36
 10
-0.035000
 20
-0.195000
 41
1.0
 42
1.0
 43
1.0
 50
0.0
  0
INSERT
  8
g1
  2
D36
 10
-0.035000
 20
-0.195000
 41
1.0
 42
1.0
 43
1.0
 50
0.0
  0
INSERT
  8
g1
  2
D36
 10
0.090000
 20
-0.240000
 41
1.0
 42
1.0
 43
1.0
 50
0.0
  0
INSERT
  8
g1
  2
D36
 10
0.090000
 20
-0.240000
 41
1.0
 42
1.0
 43
1.0
 50
0.0
  0
INSERT
  8
g1
  2
D36
 10
0.135000
 20
-0.240000
 41
1.0
 42
1.0
 43
1.0
 50
0.0
  0
INSERT
  8
g1
  2
D36
 10
0.135000
 20
-0.240000
 41
1.0
 42
1.0
 43
1.0
 50
0.0
  0
INSERT
  8
g1
  2
D36
 10
0.135000
 20
-0.310000
 41
1.0
 42
1.0
 43
1.0
 50
0.0
  0
INSERT
  8
g1
  2
D36
 10
0.135000
 20
-0.310000
 41
1.0
 42
1.0
 43
1.0
 50
0.0
  0
INSERT
  8
g1
  2
D36
 10
0.275000
 20
-0.295000
 41
1.0
 42
1.0
 43
1.0
 50
0.0
  0
INSERT
  8
g1
  2
D36
 10
0.275000
 20
-0.295000
 41
1.0
 42
1.0
 43
1.0
 50
0.0
  0
INSERT
  8
g1
  2
D36
 10
-0.330000
 20
0.105000
 41
1.0
 42
1.0
 43
1.0
 50
0.0
  0
INSERT
  8
g1
  2
D36
 10
-0.330000
 20
0.105000
 41
1.0
 42
1.0
 43
1.0
 50
0.0
  0
INSERT
  8
g1
  2
D36
 10
0.035000
 20
-0.165000
 41
1.0
 42
1.0
 43
1.0
 50
0.0
  0
INSERT
  8
g1
  2
D36
 10
0.035000
 20
-0.195000
 41
1.0
 42
1.0
 43
1.0
 50
0.0
  0
INSERT
  8
g1
  2
D36
 10
-0.035000
 20
-0.165000
 41
1.0
 42
1.0
 43
1.0
 50
0.0
  0
INSERT
  8
g1
  2
D36
 10
-0.035000
 20
-0.165000
 41
1.0
 42
1.0
 43
1.0
 50
0.0
  0
INSERT
  8
g1
  2
D36
 10
-0.040000
 20
-0.305000
 41
1.0
 42
1.0
 43
1.0
 50
0.0
  0
INSERT
  8
g1
  2
D36
 10
-0.040000
 20
-0.350000
 41
1.0
 42
1.0
 43
1.0
 50
0.0
  0
INSERT
  8
g1
  2
D36
 10
-0.040000
 20
-0.305000
 41
1.0
 42
1.0
 43
1.0
 50
0.0
  0
INSERT
  8
g1
  2
D36
 10
-0.075000
 20
0.170000
 41
1.0
 42
1.0
 43
1.0
 50
0.0
  0
INSERT
  8
g1
  2
D36
 10
-0.075000
 20
0.170000
 41
1.0
 42
1.0
 43
1.0
 50
0.0
  0
INSERT
  8
g1
  2
D36
 10
-0.075000
 20
0.235000
 41
1.0
 42
1.0
 43
1.0
 50
0.0
  0
INSERT
  8
g1
  2
D36
 10
-0.075000
 20
0.235000
 41
1.0
 42
1.0
 43
1.0
 50
0.0
  0
INSERT
  8
g1
  2
D36
 10
-0.075000
 20
0.285000
 41
1.0
 42
1.0
 43
1.0
 50
0.0
  0
INSERT
  8
g1
  2
D36
 10
-0.075000
 20
0.285000
 41
1.0
 42
1.0
 43
1.0
 50
0.0
  0
INSERT
  8
g1
  2
D36
 10
-0.018960
 20
-0.018050
 41
1.0
 42
1.0
 43
1.0
 50
0.0
  0
INSERT
  8
g1
  2
D36
 10
-0.350000
 20
-0.395000
 41
1.0
 42
1.0
 43
1.0
 50
0.0
  0
INSERT
  8
g1
  2
D36
 10
-0.350000
 20
-0.315000
 41
1.0
 42
1.0
 43
1.0
 50
0.0
  0
INSERT
  8
g1
  2
D36
 10
-0.350000
 20
-0.315000
 41
1.0
 42
1.0
 43
1.0
 50
0.0
  0
INSERT
  8
g1
  2
D36
 10
-0.310000
 20
-0.315000
 41
1.0
 42
1.0
 43
1.0
 50
0.0
  0
INSERT
  8
g1
  2
D36
 10
-0.310000
 20
-0.315000
 41
1.0
 42
1.0
 43
1.0
 50
0.0
  0
INSERT
  8
g1
  2
D36
 10
-0.270000
 20
-0.315000
 41
1.0
 42
1.0
 43
1.0
 50
0.0
  0
INSERT
  8
g1
  2
D36
 10
-0.270000
 20
-0.315000
 41
1.0
 42
1.0
 43
1.0
 50
0.0
  0
INSERT
  8
g1
  2
D36
 10
-0.230000
 20
-0.315000
 41
1.0
 42
1.0
 43
1.0
 50
0.0
  0
INSERT
  8
g1
  2
D36
 10
-0.230000
 20
-0.315000
 41
1.0
 42
1.0
 43
1.0
 50
0.0
  0
INSERT
  8
g1
  2
D36
 10
-0.190000
 20
-0.315000
 41
1.0
 42
1.0
 43
1.0
 50
0.0
  0
INSERT
  8
g1
  2
D36
 10
-0.190000
 20
-0.315000
 41
1.0
 42
1.0
 43
1.0
 50
0.0
  0
INSERT
  8
g1
  2
D36
 10
-0.170000
 20
-0.275000
 41
1.0
 42
1.0
 43
1.0
 50
0.0
  0
INSERT
  8
g1
  2
D36
 10
-0.170000
 20
-0.275000
 41
1.0
 42
1.0
 43
1.0
 50
0.0
  0
INSERT
  8
g1
  2
D36
 10
-0.220000
 20
-0.275000
 41
1.0
 42
1.0
 43
1.0
 50
0.0
  0
INSERT
  8
g1
  2
D36
 10
-0.220000
 20
-0.255000
 41
1.0
 42
1.0
 43
1.0
 50
0.0
  0
INSERT
  8
g1
  2
D36
 10
-0.220000
 20
-0.255000
 41
1.0
 42
1.0
 43
1.0
 50
0.0
  0
INSERT
  8
g1
  2
D36
 10
-0.240000
 20
-0.275000
 41
1.0
 42
1.0
 43
1.0
 50
0.0
  0
INSERT
  8
g1
  2
D36
 10
-0.240000
 20
-0.275000
 41
1.0
 42
1.0
 43
1.0
 50
0.0
  0
INSERT
  8
g1
  2
D36
 10
-0.170000
 20
-0.235000
 41
1.0
 42
1.0
 43
1.0
 50
0.0
  0
INSERT
  8
g1
  2
D36
 10
-0.240000
 20
-0.215000
 41
1.0
 42
1.0
 43
1.0
 50
0.0
  0
INSERT
  8
g1
  2
D36
 10
-0.240000
 20
-0.180000
 41
1.0
 42
1.0
 43
1.0
 50
0.0
  0
INSERT
  8
g1
  2
D36
 10
-0.240000
 20
-0.180000
 41
1.0
 42
1.0
 43
1.0
 50
0.0
  0
INSERT
  8
g1
  2
D36
 10
-0.240000
 20
-0.140000
 41
1.0
 42
1.0
 43
1.0
 50
0.0
  0
INSERT
  8
g1
  2
D36
 10
-0.240000
 20
-0.140000
 41
1.0
 42
1.0
 43
1.0
 50
0.0
  0
INSERT
  8
g1
  2
D36
 10
-0.240000
 20
-0.255000
 41
1.0
 42
1.0
 43
1.0
 50
0.0
  0
INSERT
  8
g1
  2
D36
 10
-0.270000
 20
-0.215000
 41
1.0
 42
1.0
 43
1.0
 50
0.0
  0
INSERT
  8
g1
  2
D36
 10
-0.270000
 20
-0.180000
 41
1.0
 42
1.0
 43
1.0
 50
0.0
  0
INSERT
  8
g1
  2
D36
 10
-0.210000
 20
0.095000
 41
1.0
 42
1.0
 43
1.0
 50
0.0
  0
INSERT
  8
g1
  2
D36
 10
-0.210000
 20
0.125000
 41
1.0
 42
1.0
 43
1.0
 50
0.0
  0
INSERT
  8
g1
  2
D36
 10
-0.120000
 20
-0.105000
 41
1.0
 42
1.0
 43
1.0
 50
0.0
  0
INSERT
  8
g1
  2
D36
 10
-0.120000
 20
-0.135000
 41
1.0
 42
1.0
 43
1.0
 50
0.0
  0
INSERT
  8
g1
  2
D36
 10
-0.190000
 20
-0.345000
 41
1.0
 42
1.0
 43
1.0
 50
0.0
  0
INSERT
  8
g1
  2
D36
 10
-0.130000
 20
-0.345000
 41
1.0
 42
1.0
 43
1.0
 50
0.0
  0
INSERT
  8
g1
  2
D36
 10
-0.230000
 20
-0.345000
 41
1.0
 42
1.0
 43
1.0
 50
0.0
  0
INSERT
  8
g1
  2
D36
 10
0.005000
 20
-0.350000
 41
1.0
 42
1.0
 43
1.0
 50
0.0
  0
INSERT
  8
g1
  2
D36
 10
0.005000
 20
-0.320000
 41
1.0
 42
1.0
 43
1.0
 50
0.0
  0
INSERT
  8
g1
  2
D36
 10
-0.100000
 20
-0.345000
 41
1.0
 42
1.0
 43
1.0
 50
0.0
  0
INSERT
  8
g1
  2
D36
 10
0.165000
 20
-0.310000
 41
1.0
 42
1.0
 43
1.0
 50
0.0
  0
INSERT
  8
g1
  2
D36
 10
0.300000
 20
-0.295000
 41
1.0
 42
1.0
 43
1.0
 50
0.0
  0
INSERT
  8
g1
  2
D36
 10
0.250000
 20
-0.295000
 41
1.0
 42
1.0
 43
1.0
 50
0.0
  0
INSERT
  8
g1
  2
D36
 10
0.135000
 20
-0.210000
 41
1.0
 42
1.0
 43
1.0
 50
0.0
  0
INSERT
  8
g1
  2
D36
 10
0.250000
 20
-0.210000
 41
1.0
 42
1.0
 43
1.0
 50
0.0
  0
INSERT
  8
g1
  2
D36
 10
0.275000
 20
-0.210000
 41
1.0
 42
1.0
 43
1.0
 50
0.0
  0
INSERT
  8
g1
  2
D36
 10
0.300000
 20
-0.210000
 41
1.0
 42
1.0
 43
1.0
 50
0.0
  0
INSERT
  8
g1
  2
D36
 10
0.090000
 20
-0.210000
 41
1.0
 42
1.0
 43
1.0
 50
0.0
  0
INSERT
  8
g1
  2
D36
 10
0.070000
 20
-0.150000
 41
1.0
 42
1.0
 43
1.0
 50
0.0
  0
INSERT
  8
g1
  2
D36
 10
0.025000
 20
-0.110000
 41
1.0
 42
1.0
 43
1.0
 50
0.0
  0
INSERT
  8
g1
  2
D36
 10
-0.060000
 20
-0.140000
 41
1.0
 42
1.0
 43
1.0
 50
0.0
  0
INSERT
  8
g1
  2
D36
 10
-0.097700
 20
0.044940
 41
1.0
 42
1.0
 43
1.0
 50
0.0
  0
INSERT
  8
g1
  2
D36
 10
0.100000
 20
-0.135000
 41
1.0
 42
1.0
 43
1.0
 50
0.0
  0
INSERT
  8
g1
  2
D36
 10
0.130000
 20
0.005000
 41
1.0
 42
1.0
 43
1.0
 50
0.0
  0
INSERT
  8
g1
  2
D36
 10
0.035000
 20
-0.165000
 41
1.0
 42
1.0
 43
1.0
 50
0.0
  0
INSERT
  8
g1
  2
D36
 10
-0.200000
 20
-0.140000
 41
1.0
 42
1.0
 43
1.0
 50
0.0
  0
INSERT
  8
g1
  2
D36
 10
-0.240000
 20
-0.215000
 41
1.0
 42
1.0
 43
1.0
 50
0.0
  0
INSERT
  8
g1
  2
D36
 10
-0.240000
 20
-0.255000
 41
1.0
 42
1.0
 43
1.0
 50
0.0
  0
INSERT
  8
g1
  2
D36
 10
-0.220000
 20
-0.275000
 41
1.0
 42
1.0
 43
1.0
 50
0.0
  0
INSERT
  8
g1
  2
D36
 10
-0.170000
 20
-0.235000
 41
1.0
 42
1.0
 43
1.0
 50
0.0
  0
INSERT
  8
g1
  2
D36
 10
-0.350000
 20
-0.395000
 41
1.0
 42
1.0
 43
1.0
 50
0.0
  0
INSERT
  8
g1
  2
D36
 10
-0.270000
 20
-0.355000
 41
1.0
 42
1.0
 43
1.0
 50
0.0
  0
INSERT
  8
g1
  2
D36
 10
-0.310000
 20
-0.345000
 41
1.0
 42
1.0
 43
1.0
 50
0.0
  0
INSERT
  8
g1
  2
D36
 10
0.020000
 20
-0.240000
 41
1.0
 42
1.0
 43
1.0
 50
0.0
  0
INSERT
  8
g1
  2
D36
 10
0.020000
 20
-0.270000
 41
1.0
 42
1.0
 43
1.0
 50
0.0
  0
INSERT
  8
g1
  2
D36
 10
0.055000
 20
-0.270000
 41
1.0
 42
1.0
 43
1.0
 50
0.0
  0
INSERT
  8
g1
  2
D36
 10
0.055000
 20
-0.240000
 41
1.0
 42
1.0
 43
1.0
 50
0.0
  0
INSERT
  8
g1
  2
D36
 10
0.185000
 20
0.005000
 41
1.0
 42
1.0
 43
1.0
 50
0.0
  0
INSERT
  8
g1
  2
D36
 10
0.185000
 20
-0.060000
 41
1.0
 42
1.0
 43
1.0
 50
0.0
  0
INSERT
  8
g1
  2
D36
 10
0.185000
 20
-0.060000
 41
1.0
 42
1.0
 43
1.0
 50
0.0
  0
INSERT
  8
g1
  2
D36
 10
0.000000
 20
-0.175000
 41
1.0
 42
1.0
 43
1.0
 50
0.0
  0
INSERT
  8
g1
  2
D36
 10
-0.125000
 20
0.285000
 41
1.0
 42
1.0
 43
1.0
 50
0.0
  0
INSERT
  8
g1
  2
D36
 10
-0.120000
 20
0.170000
 41
1.0
 42
1.0
 43
1.0
 50
0.0
  0
INSERT
  8
g1
  2
D36
 10
0.130000
 20
-0.060000
 41
1.0
 42
1.0
 43
1.0
 50
0.0
  0
INSERT
  8
g1
  2
D36
 10
-0.165000
 20
0.235000
 41
1.0
 42
1.0
 43
1.0
 50
0.0
  0
INSERT
  8
g1
  2
D36
 10
-0.125000
 20
0.235000
 41
1.0
 42
1.0
 43
1.0
 50
0.0
  0
INSERT
  8
g1
  2
D36
 10
0.185000
 20
-0.115000
 41
1.0
 42
1.0
 43
1.0
 50
0.0
  0
INSERT
  8
g1
  2
D36
 10
0.060000
 20
0.110000
 41
1.0
 42
1.0
 43
1.0
 50
0.0
  0
INSERT
  8
g1
  2
D36
 10
0.100000
 20
0.110000
 41
1.0
 42
1.0
 43
1.0
 50
0.0
  0
INSERT
  8
g1
  2
D36
 10
0.100000
 20
0.160000
 41
1.0
 42
1.0
 43
1.0
 50
0.0
  0
INSERT
  8
g1
  2
D36
 10
0.060000
 20
0.160000
 41
1.0
 42
1.0
 43
1.0
 50
0.0
  0
INSERT
  8
g1
  2
D36
 10
0.100000
 20
0.210000
 41
1.0
 42
1.0
 43
1.0
 50
0.0
  0
INSERT
  8
g1
  2
D36
 10
0.060000
 20
0.210000
 41
1.0
 42
1.0
 43
1.0
 50
0.0
  0
INSERT
  8
g1
  2
D36
 10
0.060000
 20
0.260000
 41
1.0
 42
1.0
 43
1.0
 50
0.0
  0
INSERT
  8
g1
  2
D36
 10
0.060000
 20
0.310000
 41
1.0
 42
1.0
 43
1.0
 50
0.0
  0
INSERT
  8
g1
  2
D36
 10
0.060000
 20
0.350000
 41
1.0
 42
1.0
 43
1.0
 50
0.0
  0
INSERT
  8
g1
  2
D36
 10
0.270000
 20
0.350000
 41
1.0
 42
1.0
 43
1.0
 50
0.0
  0
ENDSEC
  0
EOF
