  0
SECTION
  2
HEADER
  9
$EXTMIN
 10
-0.430000
 20
-0.398000
  9
$EXTMAX
 10
0.278000
 20
0.292000
  9
$LIMMIN
 10
-0.430000
 20
-0.398000
  9
$LIMMAX
 10
0.278000
 20
0.292000
  9
$FILLMODE
 70
  1
  0
ENDSEC
  0
SECTION
  2
TABLES
  0
TABLE
  2
LTYPE
 70
  1
  0
LTYPE
  2
CONTINUOUS
 70
 64
  3
Solid line
 72
 65
 73
  0
 40
0.0
  0
ENDTAB
  0
TABLE
  2
LAYER
 70
 1
  0
LAYER
  2
0
 70
  0
 62
7
  6
CONTINUOUS
  0
LAYER
  2
g2
 70
  0
 62
1
  6
CONTINUOUS
  0
ENDTAB
  0
TABLE
  2
STYLE
 70
  1
  0
STYLE
  2
STANDARD
 70
  0
 40
0.0
 41
1.0
 50
0.0
 71
  0
 42
0.2
  3
txt
  4

  0
ENDTAB
  0
ENDSEC
  0
SECTION
  2
BLOCKS
  0
BLOCK
  8
0
  2
D30
 70
64
 10
0.0
 20
0.0
  3
D30
  0
POLYLINE
  8
0
 66
1
 10
0.0
 20
0.0
 70
1
 40
0.003505
 41
0.003505
  0
VERTEX
  8
0
 10
-0.001752
 20
0.0
 42
1.0
  0
VERTEX
  8
0
 10
0.001752
 20
0.0
 42
1.0
  0
SEQEND
  8
0
 0
ENDBLK
  8
0
  0
BLOCK
  8
0
  2
D31
 70
64
 10
0.0
 20
0.0
  3
D31
  0
POLYLINE
  8
0
 66
1
 10
0.0
 20
0.0
 70
1
 40
0.004000
 41
0.004000
  0
VERTEX
  8
0
 10
-0.002000
 20
0.0
 42
1.0
  0
VERTEX
  8
0
 10
0.002000
 20
0.0
 42
1.0
  0
SEQEND
  8
0
 0
ENDBLK
  8
0
  0
BLOCK
  8
0
  2
D34
 70
64
 10
0.0
 20
0.0
  3
D34
  0
POLYLINE
  8
0
 66
1
 10
0.0
 20
0.0
 70
1
 40
0.003500
 41
0.003500
  0
VERTEX
  8
0
 10
-0.001750
 20
0.0
 42
1.0
  0
VERTEX
  8
0
 10
0.001750
 20
0.0
 42
1.0
  0
SEQEND
  8
0
 0
ENDBLK
  8
0
  0
BLOCK
  8
0
  2
D35
 70
64
 10
0.0
 20
0.0
  3
D35
  0
POLYLINE
  8
0
 66
1
 10
0.0
 20
0.0
 70
1
 40
0.007500
 41
0.007500
  0
VERTEX
  8
0
 10
-0.003750
 20
0.0
 42
1.0
  0
VERTEX
  8
0
 10
0.003750
 20
0.0
 42
1.0
  0
SEQEND
  8
0
 0
ENDBLK
  8
0
  0
BLOCK
  8
0
  2
D37
 70
64
 10
0.0
 20
0.0
  3
D37
  0
POLYLINE
  8
0
 66
1
 10
0.0
 20
0.0
 70
1
 40
0.003445
 41
0.003445
  0
VERTEX
  8
0
 10
-0.001723
 20
0.0
 42
1.0
  0
VERTEX
  8
0
 10
0.001723
 20
0.0
 42
1.0
  0
SEQEND
  8
0
 0
ENDBLK
  8
0
  0
ENDSEC
  0
SECTION
  2
ENTITIES
  0
POLYLINE
  8
g2
 62
1
 40
0.007000
 41
0.007000
 66
  1
  0
VERTEX
  8
g2
 10
-0.081950
 20
-0.218770
  0
VERTEX
  8
g2
 10
-0.081950
 20
-0.049550
  0
SEQEND
  8
g2
  0
INSERT
  8
g2
  2
D30
 10
-0.081950
 20
-0.218770
 41
1.0
 42
1.0
 43
1.0
 50
0.0
  0
INSERT
  8
g2
  2
D30
 10
-0.081950
 20
-0.049550
 41
1.0
 42
1.0
 43
1.0
 50
0.0
  0
POLYLINE
  8
g2
 62
1
 40
0.007000
 41
0.007000
 66
  1
  0
VERTEX
  8
g2
 10
-0.040000
 20
-0.305000
  0
VERTEX
  8
g2
 10
-0.040000
 20
-0.260720
  0
SEQEND
  8
g2
  0
INSERT
  8
g2
  2
D30
 10
-0.040000
 20
-0.305000
 41
1.0
 42
1.0
 43
1.0
 50
0.0
  0
INSERT
  8
g2
  2
D30
 10
-0.040000
 20
-0.260720
 41
1.0
 42
1.0
 43
1.0
 50
0.0
  0
POLYLINE
  8
g2
 62
1
 40
0.007000
 41
0.007000
 66
  1
  0
VERTEX
  8
g2
 10
-0.081950
 20
-0.218770
  0
VERTEX
  8
g2
 10
-0.040000
 20
-0.260720
  0
SEQEND
  8
g2
  0
INSERT
  8
g2
  2
D30
 10
-0.081950
 20
-0.218770
 41
1.0
 42
1.0
 43
1.0
 50
0.0
  0
INSERT
  8
g2
  2
D30
 10
-0.040000
 20
-0.260720
 41
1.0
 42
1.0
 43
1.0
 50
0.0
  0
POLYLINE
  8
g2
 62
1
 40
0.008000
 41
0.008000
 66
  1
  0
VERTEX
  8
g2
 10
0.000000
 20
-0.165000
  0
VERTEX
  8
g2
 10
0.035000
 20
-0.165000
  0
SEQEND
  8
g2
  0
INSERT
  8
g2
  2
D31
 10
0.000000
 20
-0.165000
 41
1.0
 42
1.0
 43
1.0
 50
0.0
  0
INSERT
  8
g2
  2
D31
 10
0.035000
 20
-0.165000
 41
1.0
 42
1.0
 43
1.0
 50
0.0
  0
POLYLINE
  8
g2
 62
1
 40
0.008000
 41
0.008000
 66
  1
  0
VERTEX
  8
g2
 10
-0.035000
 20
-0.165000
  0
VERTEX
  8
g2
 10
0.000000
 20
-0.165000
  0
SEQEND
  8
g2
  0
INSERT
  8
g2
  2
D31
 10
-0.035000
 20
-0.165000
 41
1.0
 42
1.0
 43
1.0
 50
0.0
  0
INSERT
  8
g2
  2
D31
 10
0.000000
 20
-0.165000
 41
1.0
 42
1.0
 43
1.0
 50
0.0
  0
POLYLINE
  8
g2
 62
1
 40
0.008000
 41
0.008000
 66
  1
  0
VERTEX
  8
g2
 10
0.000000
 20
-0.175000
  0
VERTEX
  8
g2
 10
0.000000
 20
-0.165000
  0
SEQEND
  8
g2
  0
INSERT
  8
g2
  2
D31
 10
0.000000
 20
-0.175000
 41
1.0
 42
1.0
 43
1.0
 50
0.0
  0
INSERT
  8
g2
  2
D31
 10
0.000000
 20
-0.165000
 41
1.0
 42
1.0
 43
1.0
 50
0.0
  0
POLYLINE
  8
g2
 62
1
 40
0.008000
 41
0.008000
 66
  1
  0
VERTEX
  8
g2
 10
-0.350000
 20
-0.315000
  0
VERTEX
  8
g2
 10
-0.310000
 20
-0.315000
  0
SEQEND
  8
g2
  0
INSERT
  8
g2
  2
D31
 10
-0.350000
 20
-0.315000
 41
1.0
 42
1.0
 43
1.0
 50
0.0
  0
POLYLINE
  8
g2
 62
1
 40
0.008000
 41
0.008000
 66
  1
  0
VERTEX
  8
g2
 10
-0.310000
 20
-0.315000
  0
VERTEX
  8
g2
 10
-0.270000
 20
-0.315000
  0
SEQEND
  8
g2
  0
INSERT
  8
g2
  2
D31
 10
-0.310000
 20
-0.315000
 41
1.0
 42
1.0
 43
1.0
 50
0.0
  0
POLYLINE
  8
g2
 62
1
 40
0.008000
 41
0.008000
 66
  1
  0
VERTEX
  8
g2
 10
-0.270000
 20
-0.315000
  0
VERTEX
  8
g2
 10
-0.230000
 20
-0.315000
  0
SEQEND
  8
g2
  0
INSERT
  8
g2
  2
D31
 10
-0.270000
 20
-0.315000
 41
1.0
 42
1.0
 43
1.0
 50
0.0
  0
POLYLINE
  8
g2
 62
1
 40
0.008000
 41
0.008000
 66
  1
  0
VERTEX
  8
g2
 10
-0.230000
 20
-0.315000
  0
VERTEX
  8
g2
 10
-0.190000
 20
-0.315000
  0
SEQEND
  8
g2
  0
INSERT
  8
g2
  2
D31
 10
-0.230000
 20
-0.315000
 41
1.0
 42
1.0
 43
1.0
 50
0.0
  0
POLYLINE
  8
g2
 62
1
 40
0.008000
 41
0.008000
 66
  1
  0
VERTEX
  8
g2
 10
-0.190000
 20
-0.315000
  0
VERTEX
  8
g2
 10
-0.176930
 20
-0.315000
  0
SEQEND
  8
g2
  0
INSERT
  8
g2
  2
D31
 10
-0.190000
 20
-0.315000
 41
1.0
 42
1.0
 43
1.0
 50
0.0
  0
POLYLINE
  8
g2
 62
1
 40
0.008000
 41
0.008000
 66
  1
  0
VERTEX
  8
g2
 10
-0.176930
 20
-0.315000
  0
VERTEX
  8
g2
 10
-0.170000
 20
-0.308070
  0
SEQEND
  8
g2
  0
INSERT
  8
g2
  2
D31
 10
-0.176930
 20
-0.315000
 41
1.0
 42
1.0
 43
1.0
 50
0.0
  0
POLYLINE
  8
g2
 62
1
 40
0.008000
 41
0.008000
 66
  1
  0
VERTEX
  8
g2
 10
-0.170000
 20
-0.308070
  0
VERTEX
  8
g2
 10
-0.170000
 20
-0.275000
  0
SEQEND
  8
g2
  0
INSERT
  8
g2
  2
D31
 10
-0.170000
 20
-0.308070
 41
1.0
 42
1.0
 43
1.0
 50
0.0
  0
INSERT
  8
g2
  2
D31
 10
-0.170000
 20
-0.275000
 41
1.0
 42
1.0
 43
1.0
 50
0.0
  0
POLYLINE
  8
g2
 62
1
 40
0.008000
 41
0.008000
 66
  1
  0
VERTEX
  8
g2
 10
-0.240000
 20
-0.275000
  0
VERTEX
  8
g2
 10
-0.220000
 20
-0.275000
  0
SEQEND
  8
g2
  0
INSERT
  8
g2
  2
D31
 10
-0.240000
 20
-0.275000
 41
1.0
 42
1.0
 43
1.0
 50
0.0
  0
INSERT
  8
g2
  2
D31
 10
-0.220000
 20
-0.275000
 41
1.0
 42
1.0
 43
1.0
 50
0.0
  0
POLYLINE
  8
g2
 62
1
 40
0.008000
 41
0.008000
 66
  1
  0
VERTEX
  8
g2
 10
-0.170000
 20
-0.235000
  0
VERTEX
  8
g2
 10
-0.170000
 20
-0.223230
  0
SEQEND
  8
g2
  0
INSERT
  8
g2
  2
D31
 10
-0.170000
 20
-0.235000
 41
1.0
 42
1.0
 43
1.0
 50
0.0
  0
INSERT
  8
g2
  2
D31
 10
-0.170000
 20
-0.223230
 41
1.0
 42
1.0
 43
1.0
 50
0.0
  0
POLYLINE
  8
g2
 62
1
 40
0.008000
 41
0.008000
 66
  1
  0
VERTEX
  8
g2
 10
-0.240000
 20
-0.255000
  0
VERTEX
  8
g2
 10
-0.240000
 20
-0.215000
  0
SEQEND
  8
g2
  0
INSERT
  8
g2
  2
D31
 10
-0.240000
 20
-0.255000
 41
1.0
 42
1.0
 43
1.0
 50
0.0
  0
POLYLINE
  8
g2
 62
1
 40
0.008000
 41
0.008000
 66
  1
  0
VERTEX
  8
g2
 10
-0.240000
 20
-0.215000
  0
VERTEX
  8
g2
 10
-0.240000
 20
-0.180000
  0
SEQEND
  8
g2
  0
INSERT
  8
g2
  2
D31
 10
-0.240000
 20
-0.215000
 41
1.0
 42
1.0
 43
1.0
 50
0.0
  0
INSERT
  8
g2
  2
D31
 10
-0.240000
 20
-0.180000
 41
1.0
 42
1.0
 43
1.0
 50
0.0
  0
POLYLINE
  8
g2
 62
1
 40
0.008000
 41
0.008000
 66
  1
  0
VERTEX
  8
g2
 10
-0.178230
 20
-0.215000
  0
VERTEX
  8
g2
 10
-0.170000
 20
-0.223230
  0
SEQEND
  8
g2
  0
INSERT
  8
g2
  2
D31
 10
-0.178230
 20
-0.215000
 41
1.0
 42
1.0
 43
1.0
 50
0.0
  0
INSERT
  8
g2
  2
D31
 10
-0.170000
 20
-0.223230
 41
1.0
 42
1.0
 43
1.0
 50
0.0
  0
POLYLINE
  8
g2
 62
1
 40
0.008000
 41
0.008000
 66
  1
  0
VERTEX
  8
g2
 10
-0.240000
 20
-0.215000
  0
VERTEX
  8
g2
 10
-0.178230
 20
-0.215000
  0
SEQEND
  8
g2
  0
INSERT
  8
g2
  2
D31
 10
-0.240000
 20
-0.215000
 41
1.0
 42
1.0
 43
1.0
 50
0.0
  0
INSERT
  8
g2
  2
D31
 10
-0.178230
 20
-0.215000
 41
1.0
 42
1.0
 43
1.0
 50
0.0
  0
POLYLINE
  8
g2
 62
1
 40
0.008000
 41
0.008000
 66
  1
  0
VERTEX
  8
g2
 10
-0.240000
 20
-0.180000
  0
VERTEX
  8
g2
 10
-0.240000
 20
-0.140000
  0
SEQEND
  8
g2
  0
INSERT
  8
g2
  2
D31
 10
-0.240000
 20
-0.180000
 41
1.0
 42
1.0
 43
1.0
 50
0.0
  0
INSERT
  8
g2
  2
D31
 10
-0.240000
 20
-0.140000
 41
1.0
 42
1.0
 43
1.0
 50
0.0
  0
POLYLINE
  8
g2
 62
1
 40
0.008000
 41
0.008000
 66
  1
  0
VERTEX
  8
g2
 10
-0.097700
 20
0.044940
  0
VERTEX
  8
g2
 10
-0.070510
 20
0.044940
  0
SEQEND
  8
g2
  0
INSERT
  8
g2
  2
D31
 10
-0.097700
 20
0.044940
 41
1.0
 42
1.0
 43
1.0
 50
0.0
  0
INSERT
  8
g2
  2
D31
 10
-0.070510
 20
0.044940
 41
1.0
 42
1.0
 43
1.0
 50
0.0
  0
POLYLINE
  8
g2
 62
1
 40
0.008000
 41
0.008000
 66
  1
  0
VERTEX
  8
g2
 10
-0.044990
 20
-0.165000
  0
VERTEX
  8
g2
 10
-0.035000
 20
-0.165000
  0
SEQEND
  8
g2
  0
INSERT
  8
g2
  2
D31
 10
-0.044990
 20
-0.165000
 41
1.0
 42
1.0
 43
1.0
 50
0.0
  0
INSERT
  8
g2
  2
D31
 10
-0.035000
 20
-0.165000
 41
1.0
 42
1.0
 43
1.0
 50
0.0
  0
POLYLINE
  8
g2
 62
1
 40
0.008000
 41
0.008000
 66
  1
  0
VERTEX
  8
g2
 10
-0.062620
 20
-0.147370
  0
VERTEX
  8
g2
 10
-0.044990
 20
-0.165000
  0
SEQEND
  8
g2
  0
INSERT
  8
g2
  2
D31
 10
-0.062620
 20
-0.147370
 41
1.0
 42
1.0
 43
1.0
 50
0.0
  0
INSERT
  8
g2
  2
D31
 10
-0.044990
 20
-0.165000
 41
1.0
 42
1.0
 43
1.0
 50
0.0
  0
POLYLINE
  8
g2
 62
1
 40
0.008000
 41
0.008000
 66
  1
  0
VERTEX
  8
g2
 10
-0.062620
 20
-0.147370
  0
VERTEX
  8
g2
 10
-0.062620
 20
0.037050
  0
SEQEND
  8
g2
  0
INSERT
  8
g2
  2
D31
 10
-0.062620
 20
-0.147370
 41
1.0
 42
1.0
 43
1.0
 50
0.0
  0
INSERT
  8
g2
  2
D31
 10
-0.062620
 20
0.037050
 41
1.0
 42
1.0
 43
1.0
 50
0.0
  0
POLYLINE
  8
g2
 62
1
 40
0.008000
 41
0.008000
 66
  1
  0
VERTEX
  8
g2
 10
-0.070510
 20
0.044940
  0
VERTEX
  8
g2
 10
-0.062620
 20
0.037050
  0
SEQEND
  8
g2
  0
INSERT
  8
g2
  2
D31
 10
-0.070510
 20
0.044940
 41
1.0
 42
1.0
 43
1.0
 50
0.0
  0
INSERT
  8
g2
  2
D31
 10
-0.062620
 20
0.037050
 41
1.0
 42
1.0
 43
1.0
 50
0.0
  0
POLYLINE
  8
g2
 62
1
 40
0.007000
 41
0.007000
 66
  1
  0
VERTEX
  8
g2
 10
-0.350000
 20
-0.395000
  0
VERTEX
  8
g2
 10
-0.350000
 20
-0.315000
  0
SEQEND
  8
g2
  0
INSERT
  8
g2
  2
D34
 10
-0.350000
 20
-0.395000
 41
1.0
 42
1.0
 43
1.0
 50
0.0
  0
INSERT
  8
g2
  2
D34
 10
-0.350000
 20
-0.315000
 41
1.0
 42
1.0
 43
1.0
 50
0.0
  0
POLYLINE
  8
g2
 62
1
 40
0.015000
 41
0.015000
 66
  1
  0
VERTEX
  8
g2
 10
-0.075000
 20
0.170000
  0
VERTEX
  8
g2
 10
-0.075000
 20
0.235000
  0
SEQEND
  8
g2
  0
INSERT
  8
g2
  2
D35
 10
-0.075000
 20
0.170000
 41
1.0
 42
1.0
 43
1.0
 50
0.0
  0
POLYLINE
  8
g2
 62
1
 40
0.015000
 41
0.015000
 66
  1
  0
VERTEX
  8
g2
 10
-0.075000
 20
0.235000
  0
VERTEX
  8
g2
 10
-0.075000
 20
0.285000
  0
SEQEND
  8
g2
  0
INSERT
  8
g2
  2
D35
 10
-0.075000
 20
0.235000
 41
1.0
 42
1.0
 43
1.0
 50
0.0
  0
INSERT
  8
g2
  2
D35
 10
-0.075000
 20
0.285000
 41
1.0
 42
1.0
 43
1.0
 50
0.0
  0
POLYLINE
  8
g2
 62
1
 40
0.015000
 41
0.015000
 66
  1
  0
VERTEX
  8
g2
 10
-0.113450
 20
0.044940
  0
VERTEX
  8
g2
 10
-0.113450
 20
0.095890
  0
SEQEND
  8
g2
  0
INSERT
  8
g2
  2
D35
 10
-0.113450
 20
0.044940
 41
1.0
 42
1.0
 43
1.0
 50
0.0
  0
POLYLINE
  8
g2
 62
1
 40
0.015000
 41
0.015000
 66
  1
  0
VERTEX
  8
g2
 10
-0.113450
 20
0.095890
  0
VERTEX
  8
g2
 10
-0.075000
 20
0.134340
  0
SEQEND
  8
g2
  0
INSERT
  8
g2
  2
D35
 10
-0.113450
 20
0.095890
 41
1.0
 42
1.0
 43
1.0
 50
0.0
  0
POLYLINE
  8
g2
 62
1
 40
0.015000
 41
0.015000
 66
  1
  0
VERTEX
  8
g2
 10
-0.075000
 20
0.134340
  0
VERTEX
  8
g2
 10
-0.075000
 20
0.170000
  0
SEQEND
  8
g2
  0
INSERT
  8
g2
  2
D35
 10
-0.075000
 20
0.134340
 41
1.0
 42
1.0
 43
1.0
 50
0.0
  0
INSERT
  8
g2
  2
D35
 10
-0.075000
 20
0.170000
 41
1.0
 42
1.0
 43
1.0
 50
0.0
  0
POLYLINE
  8
g2
 62
1
 40
0.015000
 41
0.015000
 66
  1
  0
VERTEX
  8
g2
 10
-0.018960
 20
-0.033800
  0
VERTEX
  8
g2
 10
-0.018960
 20
-0.018050
  0
SEQEND
  8
g2
  0
INSERT
  8
g2
  2
D35
 10
-0.018960
 20
-0.033800
 41
1.0
 42
1.0
 43
1.0
 50
0.0
  0
INSERT
  8
g2
  2
D35
 10
-0.018960
 20
-0.018050
 41
1.0
 42
1.0
 43
1.0
 50
0.0
  0
POLYLINE
  8
g2
 62
1
 40
0.015000
 41
0.015000
 66
  1
  0
VERTEX
  8
g2
 10
-0.018960
 20
-0.033800
  0
VERTEX
  8
g2
 10
0.007240
 20
-0.060000
  0
SEQEND
  8
g2
  0
INSERT
  8
g2
  2
D35
 10
-0.018960
 20
-0.033800
 41
1.0
 42
1.0
 43
1.0
 50
0.0
  0
POLYLINE
  8
g2
 62
1
 40
0.015000
 41
0.015000
 66
  1
  0
VERTEX
  8
g2
 10
0.007240
 20
-0.060000
  0
VERTEX
  8
g2
 10
0.185000
 20
-0.060000
  0
SEQEND
  8
g2
  0
INSERT
  8
g2
  2
D35
 10
0.007240
 20
-0.060000
 41
1.0
 42
1.0
 43
1.0
 50
0.0
  0
INSERT
  8
g2
  2
D35
 10
0.185000
 20
-0.060000
 41
1.0
 42
1.0
 43
1.0
 50
0.0
  0
INSERT
  8
g2
  2
D37
 10
0.000000
 20
-0.175000
 41
1.0
 42
1.0
 43
1.0
 50
0.0
  0
INSERT
  8
g2
  2
D37
 10
-0.081950
 20
-0.049550
 41
1.0
 42
1.0
 43
1.0
 50
0.0
  0
INSERT
  8
g2
  2
D37
 10
-0.427450
 20
-0.128300
 41
1.0
 42
1.0
 43
1.0
 50
0.0
  0
INSERT
  8
g2
  2
D37
 10
-0.003210
 20
0.029190
 41
1.0
 42
1.0
 43
1.0
 50
0.0
  0
INSERT
  8
g2
  2
D37
 10
-0.003210
 20
0.029190
 41
1.0
 42
1.0
 43
1.0
 50
0.0
  0
INSERT
  8
g2
  2
D37
 10
-0.050450
 20
0.060690
 41
1.0
 42
1.0
 43
1.0
 50
0.0
  0
INSERT
  8
g2
  2
D37
 10
-0.050450
 20
0.060690
 41
1.0
 42
1.0
 43
1.0
 50
0.0
  0
INSERT
  8
g2
  2
D37
 10
-0.081950
 20
-0.033800
 41
1.0
 42
1.0
 43
1.0
 50
0.0
  0
INSERT
  8
g2
  2
D37
 10
-0.034710
 20
-0.033800
 41
1.0
 42
1.0
 43
1.0
 50
0.0
  0
INSERT
  8
g2
  2
D37
 10
-0.129190
 20
0.060690
 41
1.0
 42
1.0
 43
1.0
 50
0.0
  0
INSERT
  8
g2
  2
D37
 10
-0.003210
 20
-0.018050
 41
1.0
 42
1.0
 43
1.0
 50
0.0
  0
INSERT
  8
g2
  2
D37
 10
-0.003210
 20
-0.018050
 41
1.0
 42
1.0
 43
1.0
 50
0.0
  0
INSERT
  8
g2
  2
D37
 10
-0.034710
 20
-0.033800
 41
1.0
 42
1.0
 43
1.0
 50
0.0
  0
INSERT
  8
g2
  2
D37
 10
-0.081950
 20
-0.033800
 41
1.0
 42
1.0
 43
1.0
 50
0.0
  0
INSERT
  8
g2
  2
D37
 10
-0.129190
 20
0.060690
 41
1.0
 42
1.0
 43
1.0
 50
0.0
  0
INSERT
  8
g2
  2
D37
 10
-0.113450
 20
0.044940
 41
1.0
 42
1.0
 43
1.0
 50
0.0
  0
INSERT
  8
g2
  2
D37
 10
-0.426690
 20
-0.108540
 41
1.0
 42
1.0
 43
1.0
 50
0.0
  0
INSERT
  8
g2
  2
D37
 10
-0.200000
 20
-0.045000
 41
1.0
 42
1.0
 43
1.0
 50
0.0
  0
INSERT
  8
g2
  2
D37
 10
-0.200000
 20
-0.045000
 41
1.0
 42
1.0
 43
1.0
 50
0.0
  0
INSERT
  8
g2
  2
D37
 10
-0.200000
 20
-0.005000
 41
1.0
 42
1.0
 43
1.0
 50
0.0
  0
INSERT
  8
g2
  2
D37
 10
-0.200000
 20
-0.005000
 41
1.0
 42
1.0
 43
1.0
 50
0.0
  0
INSERT
  8
g2
  2
D37
 10
-0.200000
 20
-0.090000
 41
1.0
 42
1.0
 43
1.0
 50
0.0
  0
INSERT
  8
g2
  2
D37
 10
-0.200000
 20
-0.090000
 41
1.0
 42
1.0
 43
1.0
 50
0.0
  0
INSERT
  8
g2
  2
D37
 10
-0.200000
 20
0.035000
 41
1.0
 42
1.0
 43
1.0
 50
0.0
  0
INSERT
  8
g2
  2
D37
 10
-0.200000
 20
0.035000
 41
1.0
 42
1.0
 43
1.0
 50
0.0
  0
INSERT
  8
g2
  2
D37
 10
-0.200000
 20
-0.140000
 41
1.0
 42
1.0
 43
1.0
 50
0.0
  0
INSERT
  8
g2
  2
D37
 10
-0.200000
 20
-0.140000
 41
1.0
 42
1.0
 43
1.0
 50
0.0
  0
INSERT
  8
g2
  2
D37
 10
-0.035000
 20
-0.195000
 41
1.0
 42
1.0
 43
1.0
 50
0.0
  0
INSERT
  8
g2
  2
D37
 10
-0.035000
 20
-0.195000
 41
1.0
 42
1.0
 43
1.0
 50
0.0
  0
INSERT
  8
g2
  2
D37
 10
0.090000
 20
-0.240000
 41
1.0
 42
1.0
 43
1.0
 50
0.0
  0
INSERT
  8
g2
  2
D37
 10
0.090000
 20
-0.240000
 41
1.0
 42
1.0
 43
1.0
 50
0.0
  0
INSERT
  8
g2
  2
D37
 10
0.135000
 20
-0.240000
 41
1.0
 42
1.0
 43
1.0
 50
0.0
  0
INSERT
  8
g2
  2
D37
 10
0.135000
 20
-0.240000
 41
1.0
 42
1.0
 43
1.0
 50
0.0
  0
INSERT
  8
g2
  2
D37
 10
0.135000
 20
-0.310000
 41
1.0
 42
1.0
 43
1.0
 50
0.0
  0
INSERT
  8
g2
  2
D37
 10
0.135000
 20
-0.310000
 41
1.0
 42
1.0
 43
1.0
 50
0.0
  0
INSERT
  8
g2
  2
D37
 10
0.275000
 20
-0.295000
 41
1.0
 42
1.0
 43
1.0
 50
0.0
  0
INSERT
  8
g2
  2
D37
 10
0.275000
 20
-0.295000
 41
1.0
 42
1.0
 43
1.0
 50
0.0
  0
INSERT
  8
g2
  2
D37
 10
-0.330000
 20
0.105000
 41
1.0
 42
1.0
 43
1.0
 50
0.0
  0
INSERT
  8
g2
  2
D37
 10
-0.330000
 20
0.105000
 41
1.0
 42
1.0
 43
1.0
 50
0.0
  0
INSERT
  8
g2
  2
D37
 10
0.035000
 20
-0.165000
 41
1.0
 42
1.0
 43
1.0
 50
0.0
  0
INSERT
  8
g2
  2
D37
 10
-0.035000
 20
-0.165000
 41
1.0
 42
1.0
 43
1.0
 50
0.0
  0
INSERT
  8
g2
  2
D37
 10
-0.040000
 20
-0.305000
 41
1.0
 42
1.0
 43
1.0
 50
0.0
  0
INSERT
  8
g2
  2
D37
 10
-0.075000
 20
0.170000
 41
1.0
 42
1.0
 43
1.0
 50
0.0
  0
INSERT
  8
g2
  2
D37
 10
-0.075000
 20
0.235000
 41
1.0
 42
1.0
 43
1.0
 50
0.0
  0
INSERT
  8
g2
  2
D37
 10
-0.075000
 20
0.285000
 41
1.0
 42
1.0
 43
1.0
 50
0.0
  0
INSERT
  8
g2
  2
D37
 10
-0.018960
 20
-0.018050
 41
1.0
 42
1.0
 43
1.0
 50
0.0
  0
INSERT
  8
g2
  2
D37
 10
-0.350000
 20
-0.395000
 41
1.0
 42
1.0
 43
1.0
 50
0.0
  0
INSERT
  8
g2
  2
D37
 10
-0.350000
 20
-0.315000
 41
1.0
 42
1.0
 43
1.0
 50
0.0
  0
INSERT
  8
g2
  2
D37
 10
-0.310000
 20
-0.315000
 41
1.0
 42
1.0
 43
1.0
 50
0.0
  0
INSERT
  8
g2
  2
D37
 10
-0.270000
 20
-0.315000
 41
1.0
 42
1.0
 43
1.0
 50
0.0
  0
INSERT
  8
g2
  2
D37
 10
-0.230000
 20
-0.315000
 41
1.0
 42
1.0
 43
1.0
 50
0.0
  0
INSERT
  8
g2
  2
D37
 10
-0.190000
 20
-0.315000
 41
1.0
 42
1.0
 43
1.0
 50
0.0
  0
INSERT
  8
g2
  2
D37
 10
-0.170000
 20
-0.275000
 41
1.0
 42
1.0
 43
1.0
 50
0.0
  0
INSERT
  8
g2
  2
D37
 10
-0.220000
 20
-0.275000
 41
1.0
 42
1.0
 43
1.0
 50
0.0
  0
INSERT
  8
g2
  2
D37
 10
-0.220000
 20
-0.255000
 41
1.0
 42
1.0
 43
1.0
 50
0.0
  0
INSERT
  8
g2
  2
D37
 10
-0.240000
 20
-0.275000
 41
1.0
 42
1.0
 43
1.0
 50
0.0
  0
INSERT
  8
g2
  2
D37
 10
-0.170000
 20
-0.235000
 41
1.0
 42
1.0
 43
1.0
 50
0.0
  0
INSERT
  8
g2
  2
D37
 10
-0.240000
 20
-0.215000
 41
1.0
 42
1.0
 43
1.0
 50
0.0
  0
INSERT
  8
g2
  2
D37
 10
-0.240000
 20
-0.180000
 41
1.0
 42
1.0
 43
1.0
 50
0.0
  0
INSERT
  8
g2
  2
D37
 10
-0.240000
 20
-0.140000
 41
1.0
 42
1.0
 43
1.0
 50
0.0
  0
INSERT
  8
g2
  2
D37
 10
-0.240000
 20
-0.255000
 41
1.0
 42
1.0
 43
1.0
 50
0.0
  0
INSERT
  8
g2
  2
D37
 10
-0.097700
 20
0.044940
 41
1.0
 42
1.0
 43
1.0
 50
0.0
  0
INSERT
  8
g2
  2
D37
 10
0.185000
 20
-0.060000
 41
1.0
 42
1.0
 43
1.0
 50
0.0
  0
ENDSEC
  0
EOF
