  0
SECTION
  2
HEADER
  9
$EXTMIN
 10
-0.442000
 20
-0.412000
  9
$EXTMAX
 10
0.419000
 20
0.380000
  9
$LIMMIN
 10
-0.442000
 20
-0.412000
  9
$LIMMAX
 10
0.419000
 20
0.380000
  9
$FILLMODE
 70
  1
  0
ENDSEC
  0
SECTION
  2
TABLES
  0
TABLE
  2
LTYPE
 70
  1
  0
LTYPE
  2
CONTINUOUS
 70
 64
  3
Solid line
 72
 65
 73
  0
 40
0.0
  0
ENDTAB
  0
TABLE
  2
LAYER
 70
 1
  0
LAYER
  2
0
 70
  0
 62
7
  6
CONTINUOUS
  0
LAYER
  2
gts
 70
  0
 62
1
  6
CONTINUOUS
  0
ENDTAB
  0
TABLE
  2
STYLE
 70
  1
  0
STYLE
  2
STANDARD
 70
  0
 40
0.0
 41
1.0
 50
0.0
 71
  0
 42
0.2
  3
txt
  4

  0
ENDTAB
  0
ENDSEC
  0
SECTION
  2
BLOCKS
  0
BLOCK
  8
0
  2
D14
 70
64
 10
0.0
 20
0.0
  3
D14
  0
POLYLINE
  8
0
 66
1
 10
0.0
 20
0.0
 40
0.013780
 41
0.013780
  0
VERTEX
  8
0
 10
-0.006890
 20
0.0
  0
VERTEX
  8
0
 10
0.006890
 20
0.0
  0
SEQEND
  8
0
 0
ENDBLK
  8
0
  0
BLOCK
  8
0
  2
D15
 70
64
 10
0.0
 20
0.0
  3
D15
  0
POLYLINE
  8
0
 66
1
 10
0.0
 20
0.0
 40
0.013780
 41
0.013780
  0
VERTEX
  8
0
 10
-0.006890
 20
0.0
  0
VERTEX
  8
0
 10
0.006890
 20
0.0
  0
SEQEND
  8
0
 0
ENDBLK
  8
0
  0
BLOCK
  8
0
  2
D25
 70
64
 10
0.0
 20
0.0
  3
D25
  0
POLYLINE
  8
0
 66
1
 10
0.0
 20
0.0
 70
1
 40
0.004135
 41
0.004135
  0
VERTEX
  8
0
 10
-0.002067
 20
0.0
 42
1.0
  0
VERTEX
  8
0
 10
0.002067
 20
0.0
 42
1.0
  0
SEQEND
  8
0
 0
ENDBLK
  8
0
  0
BLOCK
  8
0
  2
D40
 70
64
 10
0.0
 20
0.0
  3
D40
  0
POLYLINE
  8
0
 66
1
 10
0.0
 20
0.0
 40
0.024410
 41
0.024410
  0
VERTEX
  8
0
 10
-0.012205
 20
0.0
  0
VERTEX
  8
0
 10
0.012205
 20
0.0
  0
SEQEND
  8
0
 0
ENDBLK
  8
0
  0
BLOCK
  8
0
  2
D41
 70
64
 10
0.0
 20
0.0
  3
D41
  0
POLYLINE
  8
0
 66
1
 10
0.0
 20
0.0
 40
0.035430
 41
0.035430
  0
VERTEX
  8
0
 10
-0.007875
 20
0.0
  0
VERTEX
  8
0
 10
0.007875
 20
0.0
  0
SEQEND
  8
0
 0
ENDBLK
  8
0
  0
BLOCK
  8
0
  2
D42
 70
64
 10
0.0
 20
0.0
  3
D42
  0
POLYLINE
  8
0
 66
1
 10
0.0
 20
0.0
 40
0.021650
 41
0.021650
  0
VERTEX
  8
0
 10
-0.010825
 20
0.0
  0
VERTEX
  8
0
 10
0.010825
 20
0.0
  0
SEQEND
  8
0
 0
ENDBLK
  8
0
  0
BLOCK
  8
0
  2
D43
 70
64
 10
0.0
 20
0.0
  3
D43
  0
POLYLINE
  8
0
 66
1
 10
0.0
 20
0.0
 40
0.021650
 41
0.021650
  0
VERTEX
  8
0
 10
-0.010825
 20
0.0
  0
VERTEX
  8
0
 10
0.010825
 20
0.0
  0
SEQEND
  8
0
 0
ENDBLK
  8
0
  0
BLOCK
  8
0
  2
D44
 70
64
 10
0.0
 20
0.0
  3
D44
  0
POLYLINE
  8
0
 66
1
 10
0.0
 20
0.0
 40
0.009840
 41
0.009840
  0
VERTEX
  8
0
 10
-0.004920
 20
0.0
  0
VERTEX
  8
0
 10
0.004920
 20
0.0
  0
SEQEND
  8
0
 0
ENDBLK
  8
0
  0
BLOCK
  8
0
  2
D45
 70
64
 10
0.0
 20
0.0
  3
D45
  0
POLYLINE
  8
0
 66
1
 10
0.0
 20
0.0
 40
0.009840
 41
0.009840
  0
VERTEX
  8
0
 10
-0.004920
 20
0.0
  0
VERTEX
  8
0
 10
0.004920
 20
0.0
  0
SEQEND
  8
0
 0
ENDBLK
  8
0
  0
BLOCK
  8
0
  2
D46
 70
64
 10
0.0
 20
0.0
  3
D46
  0
POLYLINE
  8
0
 66
1
 10
0.0
 20
0.0
 40
0.024800
 41
0.024800
  0
VERTEX
  8
0
 10
-0.012600
 20
0.0
  0
VERTEX
  8
0
 10
0.012600
 20
0.0
  0
SEQEND
  8
0
 0
ENDBLK
  8
0
  0
BLOCK
  8
0
  2
D47
 70
64
 10
0.0
 20
0.0
  3
D47
  0
POLYLINE
  8
0
 66
1
 10
0.0
 20
0.0
 40
0.025200
 41
0.025200
  0
VERTEX
  8
0
 10
-0.012400
 20
0.0
  0
VERTEX
  8
0
 10
0.012400
 20
0.0
  0
SEQEND
  8
0
 0
ENDBLK
  8
0
  0
BLOCK
  8
0
  2
D48
 70
64
 10
0.0
 20
0.0
  3
D48
  0
POLYLINE
  8
0
 66
1
 10
0.0
 20
0.0
 40
0.024410
 41
0.024410
  0
VERTEX
  8
0
 10
-0.012205
 20
0.0
  0
VERTEX
  8
0
 10
0.012205
 20
0.0
  0
SEQEND
  8
0
 0
ENDBLK
  8
0
  0
BLOCK
  8
0
  2
D49
 70
64
 10
0.0
 20
0.0
  3
D49
  0
POLYLINE
  8
0
 66
1
 10
0.0
 20
0.0
 70
1
 40
0.007875
 41
0.007875
  0
VERTEX
  8
0
 10
-0.003938
 20
0.0
 42
1.0
  0
VERTEX
  8
0
 10
0.003938
 20
0.0
 42
1.0
  0
SEQEND
  8
0
 0
ENDBLK
  8
0
  0
BLOCK
  8
0
  2
D50
 70
64
 10
0.0
 20
0.0
  3
D50
  0
POLYLINE
  8
0
 66
1
 10
0.0
 20
0.0
 40
0.023620
 41
0.023620
  0
VERTEX
  8
0
 10
-0.007875
 20
0.0
  0
VERTEX
  8
0
 10
0.007875
 20
0.0
  0
SEQEND
  8
0
 0
ENDBLK
  8
0
  0
BLOCK
  8
0
  2
D51
 70
64
 10
0.0
 20
0.0
  3
D51
  0
POLYLINE
  8
0
 66
1
 10
0.0
 20
0.0
 40
0.035430
 41
0.035430
  0
VERTEX
  8
0
 10
-0.007875
 20
0.0
  0
VERTEX
  8
0
 10
0.007875
 20
0.0
  0
SEQEND
  8
0
 0
ENDBLK
  8
0
  0
BLOCK
  8
0
  2
D52
 70
64
 10
0.0
 20
0.0
  3
D52
  0
POLYLINE
  8
0
 66
1
 10
0.0
 20
0.0
 40
0.015750
 41
0.015750
  0
VERTEX
  8
0
 10
-0.017715
 20
0.0
  0
VERTEX
  8
0
 10
0.017715
 20
0.0
  0
SEQEND
  8
0
 0
ENDBLK
  8
0
  0
BLOCK
  8
0
  2
D53
 70
64
 10
0.0
 20
0.0
  3
D53
  0
POLYLINE
  8
0
 66
1
 10
0.0
 20
0.0
 40
0.061420
 41
0.061420
  0
VERTEX
  8
0
 10
-0.015750
 20
0.0
  0
VERTEX
  8
0
 10
0.015750
 20
0.0
  0
SEQEND
  8
0
 0
ENDBLK
  8
0
  0
BLOCK
  8
0
  2
D54
 70
64
 10
0.0
 20
0.0
  3
D54
  0
POLYLINE
  8
0
 66
1
 10
0.0
 20
0.0
 40
0.035430
 41
0.035430
  0
VERTEX
  8
0
 10
-0.037400
 20
0.0
  0
VERTEX
  8
0
 10
0.037400
 20
0.0
  0
SEQEND
  8
0
 0
ENDBLK
  8
0
  0
BLOCK
  8
0
  2
D55
 70
64
 10
0.0
 20
0.0
  3
D55
  0
POLYLINE
  8
0
 66
1
 10
0.0
 20
0.0
 70
1
 40
0.002165
 41
0.002165
  0
VERTEX
  8
0
 10
-0.001082
 20
0.0
 42
1.0
  0
VERTEX
  8
0
 10
0.001082
 20
0.0
 42
1.0
  0
SEQEND
  8
0
 0
ENDBLK
  8
0
  0
BLOCK
  8
0
  2
D56
 70
64
 10
0.0
 20
0.0
  3
D56
  0
POLYLINE
  8
0
 66
1
 10
0.0
 20
0.0
 40
0.051180
 41
0.051180
  0
VERTEX
  8
0
 10
-0.023620
 20
0.0
  0
VERTEX
  8
0
 10
0.023620
 20
0.0
  0
SEQEND
  8
0
 0
ENDBLK
  8
0
  0
BLOCK
  8
0
  2
D57
 70
64
 10
0.0
 20
0.0
  3
D57
  0
POLYLINE
  8
0
 66
1
 10
0.0
 20
0.0
 40
0.035430
 41
0.035430
  0
VERTEX
  8
0
 10
-0.029525
 20
0.0
  0
VERTEX
  8
0
 10
0.029525
 20
0.0
  0
SEQEND
  8
0
 0
ENDBLK
  8
0
  0
BLOCK
  8
0
  2
D58
 70
64
 10
0.0
 20
0.0
  3
D58
  0
POLYLINE
  8
0
 66
1
 10
0.0
 20
0.0
 40
0.023620
 41
0.023620
  0
VERTEX
  8
0
 10
-0.003935
 20
0.0
  0
VERTEX
  8
0
 10
0.003935
 20
0.0
  0
SEQEND
  8
0
 0
ENDBLK
  8
0
  0
BLOCK
  8
0
  2
D59
 70
64
 10
0.0
 20
0.0
  3
D59
  0
POLYLINE
  8
0
 66
1
 10
0.0
 20
0.0
 70
1
 40
0.007085
 41
0.007085
  0
VERTEX
  8
0
 10
-0.003543
 20
0.0
 42
1.0
  0
VERTEX
  8
0
 10
0.003543
 20
0.0
 42
1.0
  0
SEQEND
  8
0
 0
ENDBLK
  8
0
  0
BLOCK
  8
0
  2
D60
 70
64
 10
0.0
 20
0.0
  3
D60
  0
POLYLINE
  8
0
 66
1
 10
0.0
 20
0.0
 40
0.047240
 41
0.047240
  0
VERTEX
  8
0
 10
-0.013780
 20
0.0
  0
VERTEX
  8
0
 10
0.013780
 20
0.0
  0
SEQEND
  8
0
 0
ENDBLK
  8
0
  0
BLOCK
  8
0
  2
D61
 70
64
 10
0.0
 20
0.0
  3
D61
  0
POLYLINE
  8
0
 66
1
 10
0.0
 20
0.0
 70
1
 40
0.000705
 41
0.000705
  0
VERTEX
  8
0
 10
-0.000353
 20
0.0
 42
1.0
  0
VERTEX
  8
0
 10
0.000353
 20
0.0
 42
1.0
  0
SEQEND
  8
0
 0
ENDBLK
  8
0
  0
BLOCK
  8
0
  2
D62
 70
64
 10
0.0
 20
0.0
  3
D62
  0
POLYLINE
  8
0
 66
1
 10
0.0
 20
0.0
 70
1
 40
0.001535
 41
0.001535
  0
VERTEX
  8
0
 10
-0.000768
 20
0.0
 42
1.0
  0
VERTEX
  8
0
 10
0.000768
 20
0.0
 42
1.0
  0
SEQEND
  8
0
 0
ENDBLK
  8
0
  0
ENDSEC
  0
SECTION
  2
ENTITIES
  0
INSERT
  8
gts
  2
D14
 10
0.035000
 20
-0.165000
 41
1.0
 42
1.0
 43
1.0
 50
0.0
  0
INSERT
  8
gts
  2
D14
 10
0.035000
 20
-0.195000
 41
1.0
 42
1.0
 43
1.0
 50
0.0
  0
INSERT
  8
gts
  2
D14
 10
-0.310000
 20
-0.315000
 41
1.0
 42
1.0
 43
1.0
 50
0.0
  0
INSERT
  8
gts
  2
D14
 10
-0.310000
 20
-0.345000
 41
1.0
 42
1.0
 43
1.0
 50
0.0
  0
INSERT
  8
gts
  2
D14
 10
-0.230000
 20
-0.345000
 41
1.0
 42
1.0
 43
1.0
 50
0.0
  0
INSERT
  8
gts
  2
D14
 10
-0.230000
 20
-0.315000
 41
1.0
 42
1.0
 43
1.0
 50
0.0
  0
INSERT
  8
gts
  2
D14
 10
0.020000
 20
-0.240000
 41
1.0
 42
1.0
 43
1.0
 50
0.0
  0
INSERT
  8
gts
  2
D14
 10
0.020000
 20
-0.270000
 41
1.0
 42
1.0
 43
1.0
 50
0.0
  0
INSERT
  8
gts
  2
D14
 10
0.055000
 20
-0.270000
 41
1.0
 42
1.0
 43
1.0
 50
0.0
  0
INSERT
  8
gts
  2
D14
 10
0.055000
 20
-0.240000
 41
1.0
 42
1.0
 43
1.0
 50
0.0
  0
INSERT
  8
gts
  2
D14
 10
-0.120000
 20
-0.105000
 41
1.0
 42
1.0
 43
1.0
 50
0.0
  0
INSERT
  8
gts
  2
D14
 10
-0.120000
 20
-0.135000
 41
1.0
 42
1.0
 43
1.0
 50
0.0
  0
INSERT
  8
gts
  2
D14
 10
-0.210000
 20
0.125000
 41
1.0
 42
1.0
 43
1.0
 50
0.0
  0
INSERT
  8
gts
  2
D14
 10
-0.210000
 20
0.095000
 41
1.0
 42
1.0
 43
1.0
 50
0.0
  0
INSERT
  8
gts
  2
D15
 10
-0.270000
 20
-0.180000
 41
1.0
 42
1.0
 43
1.0
 50
0.0
  0
INSERT
  8
gts
  2
D15
 10
-0.240000
 20
-0.180000
 41
1.0
 42
1.0
 43
1.0
 50
0.0
  0
INSERT
  8
gts
  2
D15
 10
-0.270000
 20
-0.215000
 41
1.0
 42
1.0
 43
1.0
 50
0.0
  0
INSERT
  8
gts
  2
D15
 10
-0.240000
 20
-0.215000
 41
1.0
 42
1.0
 43
1.0
 50
0.0
  0
INSERT
  8
gts
  2
D15
 10
-0.200000
 20
-0.090000
 41
1.0
 42
1.0
 43
1.0
 50
0.0
  0
INSERT
  8
gts
  2
D15
 10
-0.230000
 20
-0.090000
 41
1.0
 42
1.0
 43
1.0
 50
0.0
  0
INSERT
  8
gts
  2
D15
 10
-0.230000
 20
-0.005000
 41
1.0
 42
1.0
 43
1.0
 50
0.0
  0
INSERT
  8
gts
  2
D15
 10
-0.200000
 20
-0.005000
 41
1.0
 42
1.0
 43
1.0
 50
0.0
  0
INSERT
  8
gts
  2
D25
 10
-0.129190
 20
-0.049550
 41
1.0
 42
1.0
 43
1.0
 50
0.0
  0
INSERT
  8
gts
  2
D25
 10
-0.129190
 20
-0.033800
 41
1.0
 42
1.0
 43
1.0
 50
0.0
  0
INSERT
  8
gts
  2
D25
 10
-0.129190
 20
-0.018050
 41
1.0
 42
1.0
 43
1.0
 50
0.0
  0
INSERT
  8
gts
  2
D25
 10
-0.129190
 20
-0.002310
 41
1.0
 42
1.0
 43
1.0
 50
0.0
  0
INSERT
  8
gts
  2
D25
 10
-0.129190
 20
0.013440
 41
1.0
 42
1.0
 43
1.0
 50
0.0
  0
INSERT
  8
gts
  2
D25
 10
-0.129190
 20
0.029190
 41
1.0
 42
1.0
 43
1.0
 50
0.0
  0
INSERT
  8
gts
  2
D25
 10
-0.129190
 20
0.044940
 41
1.0
 42
1.0
 43
1.0
 50
0.0
  0
INSERT
  8
gts
  2
D25
 10
-0.129190
 20
0.060690
 41
1.0
 42
1.0
 43
1.0
 50
0.0
  0
INSERT
  8
gts
  2
D25
 10
-0.113440
 20
-0.049550
 41
1.0
 42
1.0
 43
1.0
 50
0.0
  0
INSERT
  8
gts
  2
D25
 10
-0.113440
 20
-0.033800
 41
1.0
 42
1.0
 43
1.0
 50
0.0
  0
INSERT
  8
gts
  2
D25
 10
-0.113440
 20
-0.018050
 41
1.0
 42
1.0
 43
1.0
 50
0.0
  0
INSERT
  8
gts
  2
D25
 10
-0.113440
 20
-0.002310
 41
1.0
 42
1.0
 43
1.0
 50
0.0
  0
INSERT
  8
gts
  2
D25
 10
-0.113440
 20
0.013440
 41
1.0
 42
1.0
 43
1.0
 50
0.0
  0
INSERT
  8
gts
  2
D25
 10
-0.113440
 20
0.029190
 41
1.0
 42
1.0
 43
1.0
 50
0.0
  0
INSERT
  8
gts
  2
D25
 10
-0.113440
 20
0.044940
 41
1.0
 42
1.0
 43
1.0
 50
0.0
  0
INSERT
  8
gts
  2
D25
 10
-0.113440
 20
0.060690
 41
1.0
 42
1.0
 43
1.0
 50
0.0
  0
INSERT
  8
gts
  2
D25
 10
-0.097700
 20
-0.049550
 41
1.0
 42
1.0
 43
1.0
 50
0.0
  0
INSERT
  8
gts
  2
D25
 10
-0.097700
 20
-0.033800
 41
1.0
 42
1.0
 43
1.0
 50
0.0
  0
INSERT
  8
gts
  2
D25
 10
-0.097700
 20
-0.018050
 41
1.0
 42
1.0
 43
1.0
 50
0.0
  0
INSERT
  8
gts
  2
D25
 10
-0.097700
 20
0.013440
 41
1.0
 42
1.0
 43
1.0
 50
0.0
  0
INSERT
  8
gts
  2
D25
 10
-0.097700
 20
0.029190
 41
1.0
 42
1.0
 43
1.0
 50
0.0
  0
INSERT
  8
gts
  2
D25
 10
-0.097700
 20
0.044940
 41
1.0
 42
1.0
 43
1.0
 50
0.0
  0
INSERT
  8
gts
  2
D25
 10
-0.097700
 20
0.060690
 41
1.0
 42
1.0
 43
1.0
 50
0.0
  0
INSERT
  8
gts
  2
D25
 10
-0.081950
 20
-0.049550
 41
1.0
 42
1.0
 43
1.0
 50
0.0
  0
INSERT
  8
gts
  2
D25
 10
-0.081950
 20
-0.033800
 41
1.0
 42
1.0
 43
1.0
 50
0.0
  0
INSERT
  8
gts
  2
D25
 10
-0.081950
 20
-0.018050
 41
1.0
 42
1.0
 43
1.0
 50
0.0
  0
INSERT
  8
gts
  2
D25
 10
-0.081950
 20
-0.002310
 41
1.0
 42
1.0
 43
1.0
 50
0.0
  0
INSERT
  8
gts
  2
D25
 10
-0.081950
 20
0.013440
 41
1.0
 42
1.0
 43
1.0
 50
0.0
  0
INSERT
  8
gts
  2
D25
 10
-0.081950
 20
0.029190
 41
1.0
 42
1.0
 43
1.0
 50
0.0
  0
INSERT
  8
gts
  2
D25
 10
-0.081950
 20
0.044940
 41
1.0
 42
1.0
 43
1.0
 50
0.0
  0
INSERT
  8
gts
  2
D25
 10
-0.081950
 20
0.060690
 41
1.0
 42
1.0
 43
1.0
 50
0.0
  0
INSERT
  8
gts
  2
D25
 10
-0.066200
 20
-0.049550
 41
1.0
 42
1.0
 43
1.0
 50
0.0
  0
INSERT
  8
gts
  2
D25
 10
-0.066200
 20
-0.033800
 41
1.0
 42
1.0
 43
1.0
 50
0.0
  0
INSERT
  8
gts
  2
D25
 10
-0.066200
 20
-0.018050
 41
1.0
 42
1.0
 43
1.0
 50
0.0
  0
INSERT
  8
gts
  2
D25
 10
-0.066200
 20
-0.002310
 41
1.0
 42
1.0
 43
1.0
 50
0.0
  0
INSERT
  8
gts
  2
D25
 10
-0.066200
 20
0.013440
 41
1.0
 42
1.0
 43
1.0
 50
0.0
  0
INSERT
  8
gts
  2
D25
 10
-0.066200
 20
0.029190
 41
1.0
 42
1.0
 43
1.0
 50
0.0
  0
INSERT
  8
gts
  2
D25
 10
-0.066200
 20
0.044940
 41
1.0
 42
1.0
 43
1.0
 50
0.0
  0
INSERT
  8
gts
  2
D25
 10
-0.066200
 20
0.060690
 41
1.0
 42
1.0
 43
1.0
 50
0.0
  0
INSERT
  8
gts
  2
D25
 10
-0.050450
 20
-0.049550
 41
1.0
 42
1.0
 43
1.0
 50
0.0
  0
INSERT
  8
gts
  2
D25
 10
-0.050450
 20
-0.033800
 41
1.0
 42
1.0
 43
1.0
 50
0.0
  0
INSERT
  8
gts
  2
D25
 10
-0.050450
 20
-0.018050
 41
1.0
 42
1.0
 43
1.0
 50
0.0
  0
INSERT
  8
gts
  2
D25
 10
-0.050450
 20
-0.002310
 41
1.0
 42
1.0
 43
1.0
 50
0.0
  0
INSERT
  8
gts
  2
D25
 10
-0.050450
 20
0.013440
 41
1.0
 42
1.0
 43
1.0
 50
0.0
  0
INSERT
  8
gts
  2
D25
 10
-0.050450
 20
0.029190
 41
1.0
 42
1.0
 43
1.0
 50
0.0
  0
INSERT
  8
gts
  2
D25
 10
-0.050450
 20
0.044940
 41
1.0
 42
1.0
 43
1.0
 50
0.0
  0
INSERT
  8
gts
  2
D25
 10
-0.050450
 20
0.060690
 41
1.0
 42
1.0
 43
1.0
 50
0.0
  0
INSERT
  8
gts
  2
D25
 10
-0.034710
 20
-0.049550
 41
1.0
 42
1.0
 43
1.0
 50
0.0
  0
INSERT
  8
gts
  2
D25
 10
-0.034710
 20
-0.033800
 41
1.0
 42
1.0
 43
1.0
 50
0.0
  0
INSERT
  8
gts
  2
D25
 10
-0.034710
 20
-0.018050
 41
1.0
 42
1.0
 43
1.0
 50
0.0
  0
INSERT
  8
gts
  2
D25
 10
-0.034710
 20
-0.002310
 41
1.0
 42
1.0
 43
1.0
 50
0.0
  0
INSERT
  8
gts
  2
D25
 10
-0.034710
 20
0.013440
 41
1.0
 42
1.0
 43
1.0
 50
0.0
  0
INSERT
  8
gts
  2
D25
 10
-0.034710
 20
0.029190
 41
1.0
 42
1.0
 43
1.0
 50
0.0
  0
INSERT
  8
gts
  2
D25
 10
-0.034710
 20
0.044940
 41
1.0
 42
1.0
 43
1.0
 50
0.0
  0
INSERT
  8
gts
  2
D25
 10
-0.034710
 20
0.060690
 41
1.0
 42
1.0
 43
1.0
 50
0.0
  0
INSERT
  8
gts
  2
D25
 10
-0.018960
 20
-0.049550
 41
1.0
 42
1.0
 43
1.0
 50
0.0
  0
INSERT
  8
gts
  2
D25
 10
-0.018960
 20
-0.033800
 41
1.0
 42
1.0
 43
1.0
 50
0.0
  0
INSERT
  8
gts
  2
D25
 10
-0.018960
 20
-0.018050
 41
1.0
 42
1.0
 43
1.0
 50
0.0
  0
INSERT
  8
gts
  2
D25
 10
-0.018960
 20
-0.002310
 41
1.0
 42
1.0
 43
1.0
 50
0.0
  0
INSERT
  8
gts
  2
D25
 10
-0.018960
 20
0.013440
 41
1.0
 42
1.0
 43
1.0
 50
0.0
  0
INSERT
  8
gts
  2
D25
 10
-0.018960
 20
0.029190
 41
1.0
 42
1.0
 43
1.0
 50
0.0
  0
INSERT
  8
gts
  2
D25
 10
-0.018960
 20
0.044940
 41
1.0
 42
1.0
 43
1.0
 50
0.0
  0
INSERT
  8
gts
  2
D25
 10
-0.003210
 20
-0.049550
 41
1.0
 42
1.0
 43
1.0
 50
0.0
  0
INSERT
  8
gts
  2
D25
 10
-0.003210
 20
-0.033800
 41
1.0
 42
1.0
 43
1.0
 50
0.0
  0
INSERT
  8
gts
  2
D25
 10
-0.003210
 20
-0.018050
 41
1.0
 42
1.0
 43
1.0
 50
0.0
  0
INSERT
  8
gts
  2
D25
 10
-0.003210
 20
0.029190
 41
1.0
 42
1.0
 43
1.0
 50
0.0
  0
INSERT
  8
gts
  2
D25
 10
-0.003210
 20
0.044940
 41
1.0
 42
1.0
 43
1.0
 50
0.0
  0
INSERT
  8
gts
  2
D40
 10
0.099370
 20
0.260000
 41
1.0
 42
1.0
 43
1.0
 50
0.0
  0
INSERT
  8
gts
  2
D40
 10
-0.075000
 20
0.235000
 41
1.0
 42
1.0
 43
1.0
 50
0.0
  0
INSERT
  8
gts
  2
D40
 10
-0.035630
 20
0.235000
 41
1.0
 42
1.0
 43
1.0
 50
0.0
  0
INSERT
  8
gts
  2
D40
 10
-0.125000
 20
0.235000
 41
1.0
 42
1.0
 43
1.0
 50
0.0
  0
INSERT
  8
gts
  2
D40
 10
-0.164370
 20
0.235000
 41
1.0
 42
1.0
 43
1.0
 50
0.0
  0
INSERT
  8
gts
  2
D40
 10
0.060000
 20
0.260000
 41
1.0
 42
1.0
 43
1.0
 50
0.0
  0
INSERT
  8
gts
  2
D40
 10
0.100000
 20
0.160000
 41
1.0
 42
1.0
 43
1.0
 50
0.0
  0
INSERT
  8
gts
  2
D40
 10
0.060630
 20
0.160000
 41
1.0
 42
1.0
 43
1.0
 50
0.0
  0
INSERT
  8
gts
  2
D40
 10
-0.200000
 20
0.035000
 41
1.0
 42
1.0
 43
1.0
 50
0.0
  0
INSERT
  8
gts
  2
D40
 10
-0.239370
 20
0.035000
 41
1.0
 42
1.0
 43
1.0
 50
0.0
  0
INSERT
  8
gts
  2
D40
 10
-0.200000
 20
-0.045000
 41
1.0
 42
1.0
 43
1.0
 50
0.0
  0
INSERT
  8
gts
  2
D40
 10
-0.239370
 20
-0.045000
 41
1.0
 42
1.0
 43
1.0
 50
0.0
  0
INSERT
  8
gts
  2
D41
 10
-0.060000
 20
-0.140000
 41
1.0
 42
1.0
 43
1.0
 50
0.0
  0
INSERT
  8
gts
  2
D41
 10
0.025000
 20
-0.110000
 41
1.0
 42
1.0
 43
1.0
 50
0.0
  0
INSERT
  8
gts
  2
D41
 10
-0.022830
 20
-0.115910
 41
1.0
 42
1.0
 43
1.0
 50
0.0
  0
INSERT
  8
gts
  2
D41
 10
0.100000
 20
-0.135000
 41
1.0
 42
1.0
 43
1.0
 50
0.0
  0
INSERT
  8
gts
  2
D41
 10
0.071210
 20
-0.151180
 41
1.0
 42
1.0
 43
1.0
 50
0.0
  0
INSERT
  8
gts
  2
D42
 10
0.099370
 20
0.110000
 41
1.0
 42
1.0
 43
1.0
 50
0.0
  0
INSERT
  8
gts
  2
D42
 10
0.060000
 20
0.110000
 41
1.0
 42
1.0
 43
1.0
 50
0.0
  0
INSERT
  8
gts
  2
D43
 10
-0.170000
 20
-0.235630
 41
1.0
 42
1.0
 43
1.0
 50
0.0
  0
INSERT
  8
gts
  2
D43
 10
-0.170000
 20
-0.275000
 41
1.0
 42
1.0
 43
1.0
 50
0.0
  0
INSERT
  8
gts
  2
D44
 10
-0.035000
 20
-0.195000
 41
1.0
 42
1.0
 43
1.0
 50
0.0
  0
INSERT
  8
gts
  2
D44
 10
0.135000
 20
-0.210000
 41
1.0
 42
1.0
 43
1.0
 50
0.0
  0
INSERT
  8
gts
  2
D44
 10
-0.190000
 20
-0.315000
 41
1.0
 42
1.0
 43
1.0
 50
0.0
  0
INSERT
  8
gts
  2
D44
 10
0.090000
 20
-0.240000
 41
1.0
 42
1.0
 43
1.0
 50
0.0
  0
INSERT
  8
gts
  2
D44
 10
0.005000
 20
-0.350000
 41
1.0
 42
1.0
 43
1.0
 50
0.0
  0
INSERT
  8
gts
  2
D45
 10
-0.130000
 20
-0.345000
 41
1.0
 42
1.0
 43
1.0
 50
0.0
  0
INSERT
  8
gts
  2
D45
 10
0.135000
 20
-0.310000
 41
1.0
 42
1.0
 43
1.0
 50
0.0
  0
INSERT
  8
gts
  2
D46
 10
0.060000
 20
0.350550
 41
1.0
 42
1.0
 43
1.0
 50
0.0
  0
INSERT
  8
gts
  2
D46
 10
0.060000
 20
0.310000
 41
1.0
 42
1.0
 43
1.0
 50
0.0
  0
INSERT
  8
gts
  2
D47
 10
-0.200000
 20
-0.140000
 41
1.0
 42
1.0
 43
1.0
 50
0.0
  0
INSERT
  8
gts
  2
D47
 10
-0.240550
 20
-0.140000
 41
1.0
 42
1.0
 43
1.0
 50
0.0
  0
INSERT
  8
gts
  2
D47
 10
0.060000
 20
0.210000
 41
1.0
 42
1.0
 43
1.0
 50
0.0
  0
INSERT
  8
gts
  2
D47
 10
0.100550
 20
0.210000
 41
1.0
 42
1.0
 43
1.0
 50
0.0
  0
INSERT
  8
gts
  2
D48
 10
-0.270000
 20
-0.315000
 41
1.0
 42
1.0
 43
1.0
 50
0.0
  0
INSERT
  8
gts
  2
D48
 10
-0.270000
 20
-0.354370
 41
1.0
 42
1.0
 43
1.0
 50
0.0
  0
INSERT
  8
gts
  2
D48
 10
-0.350000
 20
-0.315000
 41
1.0
 42
1.0
 43
1.0
 50
0.0
  0
INSERT
  8
gts
  2
D48
 10
-0.350000
 20
-0.275630
 41
1.0
 42
1.0
 43
1.0
 50
0.0
  0
INSERT
  8
gts
  2
D49
 10
0.185000
 20
-0.115000
 41
1.0
 42
1.0
 43
1.0
 50
0.0
  0
INSERT
  8
gts
  2
D49
 10
0.127110
 20
0.063280
 41
1.0
 42
1.0
 43
1.0
 50
0.0
  0
INSERT
  8
gts
  2
D49
 10
-0.075000
 20
0.285000
 41
1.0
 42
1.0
 43
1.0
 50
0.0
  0
INSERT
  8
gts
  2
D49
 10
-0.125000
 20
0.285000
 41
1.0
 42
1.0
 43
1.0
 50
0.0
  0
INSERT
  8
gts
  2
D50
 10
-0.040000
 20
-0.305000
 41
1.0
 42
1.0
 43
1.0
 50
0.0
  0
INSERT
  8
gts
  2
D50
 10
-0.040000
 20
-0.346650
 41
1.0
 42
1.0
 43
1.0
 50
0.0
  0
INSERT
  8
gts
  2
D51
 10
0.000960
 20
-0.173350
 41
1.0
 42
1.0
 43
1.0
 50
0.0
  0
INSERT
  8
gts
  2
D52
 10
-0.330000
 20
0.105000
 41
1.0
 42
1.0
 43
1.0
 50
0.0
  0
INSERT
  8
gts
  2
D53
 10
0.270000
 20
0.350000
 41
1.0
 42
1.0
 43
1.0
 50
0.0
  0
INSERT
  8
gts
  2
D53
 10
0.404100
 20
0.350000
 41
1.0
 42
1.0
 43
1.0
 50
0.0
  0
INSERT
  8
gts
  2
D54
 10
-0.283700
 20
0.306040
 41
1.0
 42
1.0
 43
1.0
 50
0.0
  0
INSERT
  8
gts
  2
D54
 10
-0.350000
 20
-0.395000
 41
1.0
 42
1.0
 43
1.0
 50
0.0
  0
INSERT
  8
gts
  2
D55
 10
-0.097700
 20
-0.002310
 41
1.0
 42
1.0
 43
1.0
 50
0.0
  0
INSERT
  8
gts
  2
D56
 10
0.185000
 20
0.006930
 41
1.0
 42
1.0
 43
1.0
 50
0.0
  0
INSERT
  8
gts
  2
D56
 10
0.185000
 20
-0.060000
 41
1.0
 42
1.0
 43
1.0
 50
0.0
  0
INSERT
  8
gts
  2
D56
 10
0.129880
 20
-0.060000
 41
1.0
 42
1.0
 43
1.0
 50
0.0
  0
INSERT
  8
gts
  2
D56
 10
0.129880
 20
0.006930
 41
1.0
 42
1.0
 43
1.0
 50
0.0
  0
INSERT
  8
gts
  2
D57
 10
0.275000
 20
-0.253660
 41
1.0
 42
1.0
 43
1.0
 50
0.0
  0
INSERT
  8
gts
  2
D58
 10
0.249410
 20
-0.295000
 41
1.0
 42
1.0
 43
1.0
 50
0.0
  0
INSERT
  8
gts
  2
D58
 10
0.275000
 20
-0.295000
 41
1.0
 42
1.0
 43
1.0
 50
0.0
  0
INSERT
  8
gts
  2
D58
 10
0.300590
 20
-0.295000
 41
1.0
 42
1.0
 43
1.0
 50
0.0
  0
INSERT
  8
gts
  2
D58
 10
0.249410
 20
-0.212320
 41
1.0
 42
1.0
 43
1.0
 50
0.0
  0
INSERT
  8
gts
  2
D58
 10
0.275000
 20
-0.212320
 41
1.0
 42
1.0
 43
1.0
 50
0.0
  0
INSERT
  8
gts
  2
D58
 10
0.300590
 20
-0.212320
 41
1.0
 42
1.0
 43
1.0
 50
0.0
  0
INSERT
  8
gts
  2
D59
 10
-0.239680
 20
-0.275000
 41
1.0
 42
1.0
 43
1.0
 50
0.0
  0
INSERT
  8
gts
  2
D59
 10
-0.239680
 20
-0.255320
 41
1.0
 42
1.0
 43
1.0
 50
0.0
  0
INSERT
  8
gts
  2
D59
 10
-0.220000
 20
-0.275000
 41
1.0
 42
1.0
 43
1.0
 50
0.0
  0
INSERT
  8
gts
  2
D59
 10
-0.220000
 20
-0.255320
 41
1.0
 42
1.0
 43
1.0
 50
0.0
  0
INSERT
  8
gts
  2
D60
 10
-0.075000
 20
0.170000
 41
1.0
 42
1.0
 43
1.0
 50
0.0
  0
INSERT
  8
gts
  2
D60
 10
-0.118400
 20
0.170000
 41
1.0
 42
1.0
 43
1.0
 50
0.0
  0
INSERT
  8
gts
  2
D61
 10
0.100000
 20
0.260000
 41
1.0
 42
1.0
 43
1.0
 50
0.0
  0
INSERT
  8
gts
  2
D61
 10
-0.274510
 20
0.300780
 41
1.0
 42
1.0
 43
1.0
 50
0.0
  0
INSERT
  8
gts
  2
D61
 10
-0.036660
 20
0.235080
 41
1.0
 42
1.0
 43
1.0
 50
0.0
  0
INSERT
  8
gts
  2
D61
 10
-0.350120
 20
-0.271130
 41
1.0
 42
1.0
 43
1.0
 50
0.0
  0
INSERT
  8
gts
  2
D61
 10
0.258550
 20
-0.264240
 41
1.0
 42
1.0
 43
1.0
 50
0.0
  0
INSERT
  8
gts
  2
D61
 10
0.257160
 20
-0.247170
 41
1.0
 42
1.0
 43
1.0
 50
0.0
  0
INSERT
  8
gts
  2
D61
 10
0.290530
 20
-0.263100
 41
1.0
 42
1.0
 43
1.0
 50
0.0
  0
INSERT
  8
gts
  2
D61
 10
0.294960
 20
-0.245280
 41
1.0
 42
1.0
 43
1.0
 50
0.0
  0
INSERT
  8
gts
  2
D61
 10
-0.022830
 20
-0.115910
 41
1.0
 42
1.0
 43
1.0
 50
0.0
  0
INSERT
  8
gts
  2
D61
 10
-0.229810
 20
-0.088390
 41
1.0
 42
1.0
 43
1.0
 50
0.0
  0
INSERT
  8
gts
  2
D61
 10
-0.129190
 20
-0.002310
 41
1.0
 42
1.0
 43
1.0
 50
0.0
  0
INSERT
  8
gts
  2
D61
 10
-0.441590
 20
-0.128300
 41
1.0
 42
1.0
 43
1.0
 50
0.0
  0
INSERT
  8
gts
  2
D61
 10
-0.244350
 20
0.034530
 41
1.0
 42
1.0
 43
1.0
 50
0.0
  0
INSERT
  8
gts
  2
D61
 10
-0.200000
 20
-0.045000
 41
1.0
 42
1.0
 43
1.0
 50
0.0
  0
INSERT
  8
gts
  2
D61
 10
-0.200000
 20
-0.005000
 41
1.0
 42
1.0
 43
1.0
 50
0.0
  0
INSERT
  8
gts
  2
D61
 10
-0.200000
 20
-0.090000
 41
1.0
 42
1.0
 43
1.0
 50
0.0
  0
INSERT
  8
gts
  2
D61
 10
-0.239370
 20
-0.045000
 41
1.0
 42
1.0
 43
1.0
 50
0.0
  0
INSERT
  8
gts
  2
D61
 10
-0.230000
 20
-0.005000
 41
1.0
 42
1.0
 43
1.0
 50
0.0
  0
INSERT
  8
gts
  2
D61
 10
-0.200000
 20
0.035000
 41
1.0
 42
1.0
 43
1.0
 50
0.0
  0
INSERT
  8
gts
  2
D61
 10
-0.035000
 20
-0.195000
 41
1.0
 42
1.0
 43
1.0
 50
0.0
  0
INSERT
  8
gts
  2
D61
 10
0.090000
 20
-0.240000
 41
1.0
 42
1.0
 43
1.0
 50
0.0
  0
INSERT
  8
gts
  2
D61
 10
0.135000
 20
-0.240000
 41
1.0
 42
1.0
 43
1.0
 50
0.0
  0
INSERT
  8
gts
  2
D61
 10
0.135000
 20
-0.310000
 41
1.0
 42
1.0
 43
1.0
 50
0.0
  0
INSERT
  8
gts
  2
D61
 10
0.275000
 20
-0.295000
 41
1.0
 42
1.0
 43
1.0
 50
0.0
  0
INSERT
  8
gts
  2
D61
 10
-0.330000
 20
0.105000
 41
1.0
 42
1.0
 43
1.0
 50
0.0
  0
INSERT
  8
gts
  2
D61
 10
0.035000
 20
-0.195000
 41
1.0
 42
1.0
 43
1.0
 50
0.0
  0
INSERT
  8
gts
  2
D61
 10
-0.035000
 20
-0.165000
 41
1.0
 42
1.0
 43
1.0
 50
0.0
  0
INSERT
  8
gts
  2
D61
 10
-0.040000
 20
-0.350000
 41
1.0
 42
1.0
 43
1.0
 50
0.0
  0
INSERT
  8
gts
  2
D61
 10
-0.040000
 20
-0.305000
 41
1.0
 42
1.0
 43
1.0
 50
0.0
  0
INSERT
  8
gts
  2
D61
 10
-0.075000
 20
0.170000
 41
1.0
 42
1.0
 43
1.0
 50
0.0
  0
INSERT
  8
gts
  2
D61
 10
-0.075000
 20
0.235000
 41
1.0
 42
1.0
 43
1.0
 50
0.0
  0
INSERT
  8
gts
  2
D61
 10
-0.075000
 20
0.285000
 41
1.0
 42
1.0
 43
1.0
 50
0.0
  0
INSERT
  8
gts
  2
D61
 10
-0.350000
 20
-0.315000
 41
1.0
 42
1.0
 43
1.0
 50
0.0
  0
INSERT
  8
gts
  2
D61
 10
-0.310000
 20
-0.315000
 41
1.0
 42
1.0
 43
1.0
 50
0.0
  0
INSERT
  8
gts
  2
D61
 10
-0.270000
 20
-0.315000
 41
1.0
 42
1.0
 43
1.0
 50
0.0
  0
INSERT
  8
gts
  2
D61
 10
-0.230000
 20
-0.315000
 41
1.0
 42
1.0
 43
1.0
 50
0.0
  0
INSERT
  8
gts
  2
D61
 10
-0.190000
 20
-0.315000
 41
1.0
 42
1.0
 43
1.0
 50
0.0
  0
INSERT
  8
gts
  2
D61
 10
-0.170000
 20
-0.275000
 41
1.0
 42
1.0
 43
1.0
 50
0.0
  0
INSERT
  8
gts
  2
D61
 10
-0.220000
 20
-0.255000
 41
1.0
 42
1.0
 43
1.0
 50
0.0
  0
INSERT
  8
gts
  2
D61
 10
-0.240000
 20
-0.275000
 41
1.0
 42
1.0
 43
1.0
 50
0.0
  0
INSERT
  8
gts
  2
D61
 10
-0.240000
 20
-0.180000
 41
1.0
 42
1.0
 43
1.0
 50
0.0
  0
INSERT
  8
gts
  2
D61
 10
-0.240000
 20
-0.140000
 41
1.0
 42
1.0
 43
1.0
 50
0.0
  0
INSERT
  8
gts
  2
D61
 10
-0.270000
 20
-0.215000
 41
1.0
 42
1.0
 43
1.0
 50
0.0
  0
INSERT
  8
gts
  2
D61
 10
-0.270000
 20
-0.180000
 41
1.0
 42
1.0
 43
1.0
 50
0.0
  0
INSERT
  8
gts
  2
D61
 10
-0.210000
 20
0.095000
 41
1.0
 42
1.0
 43
1.0
 50
0.0
  0
INSERT
  8
gts
  2
D61
 10
-0.210000
 20
0.125000
 41
1.0
 42
1.0
 43
1.0
 50
0.0
  0
INSERT
  8
gts
  2
D61
 10
-0.120000
 20
-0.105000
 41
1.0
 42
1.0
 43
1.0
 50
0.0
  0
INSERT
  8
gts
  2
D61
 10
-0.120000
 20
-0.135000
 41
1.0
 42
1.0
 43
1.0
 50
0.0
  0
INSERT
  8
gts
  2
D61
 10
-0.190000
 20
-0.345000
 41
1.0
 42
1.0
 43
1.0
 50
0.0
  0
INSERT
  8
gts
  2
D61
 10
-0.130000
 20
-0.345000
 41
1.0
 42
1.0
 43
1.0
 50
0.0
  0
INSERT
  8
gts
  2
D61
 10
-0.230000
 20
-0.345000
 41
1.0
 42
1.0
 43
1.0
 50
0.0
  0
INSERT
  8
gts
  2
D61
 10
0.005000
 20
-0.350000
 41
1.0
 42
1.0
 43
1.0
 50
0.0
  0
INSERT
  8
gts
  2
D61
 10
0.005000
 20
-0.320000
 41
1.0
 42
1.0
 43
1.0
 50
0.0
  0
INSERT
  8
gts
  2
D61
 10
-0.100000
 20
-0.345000
 41
1.0
 42
1.0
 43
1.0
 50
0.0
  0
INSERT
  8
gts
  2
D61
 10
0.165000
 20
-0.310000
 41
1.0
 42
1.0
 43
1.0
 50
0.0
  0
INSERT
  8
gts
  2
D61
 10
0.300000
 20
-0.295000
 41
1.0
 42
1.0
 43
1.0
 50
0.0
  0
INSERT
  8
gts
  2
D61
 10
0.250000
 20
-0.295000
 41
1.0
 42
1.0
 43
1.0
 50
0.0
  0
INSERT
  8
gts
  2
D61
 10
0.135000
 20
-0.210000
 41
1.0
 42
1.0
 43
1.0
 50
0.0
  0
INSERT
  8
gts
  2
D61
 10
0.250000
 20
-0.210000
 41
1.0
 42
1.0
 43
1.0
 50
0.0
  0
INSERT
  8
gts
  2
D61
 10
0.275000
 20
-0.210000
 41
1.0
 42
1.0
 43
1.0
 50
0.0
  0
INSERT
  8
gts
  2
D61
 10
0.300000
 20
-0.210000
 41
1.0
 42
1.0
 43
1.0
 50
0.0
  0
INSERT
  8
gts
  2
D61
 10
0.090000
 20
-0.210000
 41
1.0
 42
1.0
 43
1.0
 50
0.0
  0
INSERT
  8
gts
  2
D61
 10
0.070000
 20
-0.150000
 41
1.0
 42
1.0
 43
1.0
 50
0.0
  0
INSERT
  8
gts
  2
D61
 10
0.025000
 20
-0.110000
 41
1.0
 42
1.0
 43
1.0
 50
0.0
  0
INSERT
  8
gts
  2
D61
 10
-0.060000
 20
-0.140000
 41
1.0
 42
1.0
 43
1.0
 50
0.0
  0
INSERT
  8
gts
  2
D61
 10
0.100000
 20
-0.135000
 41
1.0
 42
1.0
 43
1.0
 50
0.0
  0
INSERT
  8
gts
  2
D61
 10
0.130000
 20
0.005000
 41
1.0
 42
1.0
 43
1.0
 50
0.0
  0
INSERT
  8
gts
  2
D61
 10
0.035000
 20
-0.165000
 41
1.0
 42
1.0
 43
1.0
 50
0.0
  0
INSERT
  8
gts
  2
D61
 10
-0.200000
 20
-0.140000
 41
1.0
 42
1.0
 43
1.0
 50
0.0
  0
INSERT
  8
gts
  2
D61
 10
-0.240000
 20
-0.215000
 41
1.0
 42
1.0
 43
1.0
 50
0.0
  0
INSERT
  8
gts
  2
D61
 10
-0.240000
 20
-0.255000
 41
1.0
 42
1.0
 43
1.0
 50
0.0
  0
INSERT
  8
gts
  2
D61
 10
-0.220000
 20
-0.275000
 41
1.0
 42
1.0
 43
1.0
 50
0.0
  0
INSERT
  8
gts
  2
D61
 10
-0.170000
 20
-0.235000
 41
1.0
 42
1.0
 43
1.0
 50
0.0
  0
INSERT
  8
gts
  2
D61
 10
-0.350000
 20
-0.395000
 41
1.0
 42
1.0
 43
1.0
 50
0.0
  0
INSERT
  8
gts
  2
D61
 10
-0.270000
 20
-0.355000
 41
1.0
 42
1.0
 43
1.0
 50
0.0
  0
INSERT
  8
gts
  2
D61
 10
-0.310000
 20
-0.345000
 41
1.0
 42
1.0
 43
1.0
 50
0.0
  0
INSERT
  8
gts
  2
D61
 10
0.020000
 20
-0.240000
 41
1.0
 42
1.0
 43
1.0
 50
0.0
  0
INSERT
  8
gts
  2
D61
 10
0.020000
 20
-0.270000
 41
1.0
 42
1.0
 43
1.0
 50
0.0
  0
INSERT
  8
gts
  2
D61
 10
0.055000
 20
-0.270000
 41
1.0
 42
1.0
 43
1.0
 50
0.0
  0
INSERT
  8
gts
  2
D61
 10
0.055000
 20
-0.240000
 41
1.0
 42
1.0
 43
1.0
 50
0.0
  0
INSERT
  8
gts
  2
D61
 10
0.185000
 20
0.005000
 41
1.0
 42
1.0
 43
1.0
 50
0.0
  0
INSERT
  8
gts
  2
D61
 10
0.185000
 20
-0.060000
 41
1.0
 42
1.0
 43
1.0
 50
0.0
  0
INSERT
  8
gts
  2
D61
 10
0.000000
 20
-0.175000
 41
1.0
 42
1.0
 43
1.0
 50
0.0
  0
INSERT
  8
gts
  2
D61
 10
-0.125000
 20
0.285000
 41
1.0
 42
1.0
 43
1.0
 50
0.0
  0
INSERT
  8
gts
  2
D61
 10
-0.120000
 20
0.170000
 41
1.0
 42
1.0
 43
1.0
 50
0.0
  0
INSERT
  8
gts
  2
D61
 10
0.130000
 20
-0.060000
 41
1.0
 42
1.0
 43
1.0
 50
0.0
  0
INSERT
  8
gts
  2
D61
 10
-0.165000
 20
0.235000
 41
1.0
 42
1.0
 43
1.0
 50
0.0
  0
INSERT
  8
gts
  2
D61
 10
-0.125000
 20
0.235000
 41
1.0
 42
1.0
 43
1.0
 50
0.0
  0
INSERT
  8
gts
  2
D61
 10
0.185000
 20
-0.115000
 41
1.0
 42
1.0
 43
1.0
 50
0.0
  0
INSERT
  8
gts
  2
D61
 10
0.060000
 20
0.110000
 41
1.0
 42
1.0
 43
1.0
 50
0.0
  0
INSERT
  8
gts
  2
D61
 10
0.100000
 20
0.110000
 41
1.0
 42
1.0
 43
1.0
 50
0.0
  0
INSERT
  8
gts
  2
D61
 10
0.100000
 20
0.160000
 41
1.0
 42
1.0
 43
1.0
 50
0.0
  0
INSERT
  8
gts
  2
D61
 10
0.060000
 20
0.160000
 41
1.0
 42
1.0
 43
1.0
 50
0.0
  0
INSERT
  8
gts
  2
D61
 10
0.100000
 20
0.210000
 41
1.0
 42
1.0
 43
1.0
 50
0.0
  0
INSERT
  8
gts
  2
D61
 10
0.060000
 20
0.210000
 41
1.0
 42
1.0
 43
1.0
 50
0.0
  0
INSERT
  8
gts
  2
D61
 10
0.060000
 20
0.260000
 41
1.0
 42
1.0
 43
1.0
 50
0.0
  0
INSERT
  8
gts
  2
D61
 10
0.060000
 20
0.310000
 41
1.0
 42
1.0
 43
1.0
 50
0.0
  0
INSERT
  8
gts
  2
D61
 10
0.060000
 20
0.350000
 41
1.0
 42
1.0
 43
1.0
 50
0.0
  0
INSERT
  8
gts
  2
D61
 10
0.270000
 20
0.350000
 41
1.0
 42
1.0
 43
1.0
 50
0.0
  0
INSERT
  8
gts
  2
D62
 10
-0.081950
 20
-0.049550
 41
1.0
 42
1.0
 43
1.0
 50
0.0
  0
INSERT
  8
gts
  2
D62
 10
-0.113440
 20
-0.049550
 41
1.0
 42
1.0
 43
1.0
 50
0.0
  0
INSERT
  8
gts
  2
D62
 10
-0.097700
 20
-0.049550
 41
1.0
 42
1.0
 43
1.0
 50
0.0
  0
INSERT
  8
gts
  2
D62
 10
-0.018960
 20
-0.049550
 41
1.0
 42
1.0
 43
1.0
 50
0.0
  0
INSERT
  8
gts
  2
D62
 10
-0.003210
 20
-0.049550
 41
1.0
 42
1.0
 43
1.0
 50
0.0
  0
INSERT
  8
gts
  2
D62
 10
-0.129190
 20
0.013440
 41
1.0
 42
1.0
 43
1.0
 50
0.0
  0
INSERT
  8
gts
  2
D62
 10
-0.034710
 20
-0.002310
 41
1.0
 42
1.0
 43
1.0
 50
0.0
  0
INSERT
  8
gts
  2
D62
 10
-0.018960
 20
0.029190
 41
1.0
 42
1.0
 43
1.0
 50
0.0
  0
INSERT
  8
gts
  2
D62
 10
-0.003210
 20
0.029190
 41
1.0
 42
1.0
 43
1.0
 50
0.0
  0
INSERT
  8
gts
  2
D62
 10
-0.018960
 20
0.044940
 41
1.0
 42
1.0
 43
1.0
 50
0.0
  0
INSERT
  8
gts
  2
D62
 10
-0.034710
 20
0.044940
 41
1.0
 42
1.0
 43
1.0
 50
0.0
  0
INSERT
  8
gts
  2
D62
 10
-0.034710
 20
0.029190
 41
1.0
 42
1.0
 43
1.0
 50
0.0
  0
INSERT
  8
gts
  2
D62
 10
-0.050450
 20
0.029190
 41
1.0
 42
1.0
 43
1.0
 50
0.0
  0
INSERT
  8
gts
  2
D62
 10
-0.066200
 20
0.060690
 41
1.0
 42
1.0
 43
1.0
 50
0.0
  0
INSERT
  8
gts
  2
D62
 10
-0.097700
 20
0.044940
 41
1.0
 42
1.0
 43
1.0
 50
0.0
  0
INSERT
  8
gts
  2
D62
 10
-0.081950
 20
0.029190
 41
1.0
 42
1.0
 43
1.0
 50
0.0
  0
INSERT
  8
gts
  2
D62
 10
-0.129190
 20
-0.049550
 41
1.0
 42
1.0
 43
1.0
 50
0.0
  0
INSERT
  8
gts
  2
D62
 10
-0.129190
 20
-0.033800
 41
1.0
 42
1.0
 43
1.0
 50
0.0
  0
INSERT
  8
gts
  2
D62
 10
-0.113450
 20
-0.033800
 41
1.0
 42
1.0
 43
1.0
 50
0.0
  0
INSERT
  8
gts
  2
D62
 10
-0.081950
 20
-0.033800
 41
1.0
 42
1.0
 43
1.0
 50
0.0
  0
INSERT
  8
gts
  2
D62
 10
-0.034700
 20
0.013440
 41
1.0
 42
1.0
 43
1.0
 50
0.0
  0
INSERT
  8
gts
  2
D62
 10
-0.018960
 20
0.013440
 41
1.0
 42
1.0
 43
1.0
 50
0.0
  0
INSERT
  8
gts
  2
D62
 10
-0.018960
 20
-0.002310
 41
1.0
 42
1.0
 43
1.0
 50
0.0
  0
INSERT
  8
gts
  2
D62
 10
-0.003210
 20
-0.018050
 41
1.0
 42
1.0
 43
1.0
 50
0.0
  0
INSERT
  8
gts
  2
D62
 10
-0.018960
 20
-0.018050
 41
1.0
 42
1.0
 43
1.0
 50
0.0
  0
INSERT
  8
gts
  2
D62
 10
-0.034710
 20
-0.033800
 41
1.0
 42
1.0
 43
1.0
 50
0.0
  0
INSERT
  8
gts
  2
D62
 10
-0.050450
 20
-0.033800
 41
1.0
 42
1.0
 43
1.0
 50
0.0
  0
INSERT
  8
gts
  2
D62
 10
-0.050450
 20
-0.049550
 41
1.0
 42
1.0
 43
1.0
 50
0.0
  0
INSERT
  8
gts
  2
D62
 10
-0.034710
 20
-0.049550
 41
1.0
 42
1.0
 43
1.0
 50
0.0
  0
INSERT
  8
gts
  2
D62
 10
-0.113450
 20
0.060690
 41
1.0
 42
1.0
 43
1.0
 50
0.0
  0
INSERT
  8
gts
  2
D62
 10
-0.034710
 20
0.060690
 41
1.0
 42
1.0
 43
1.0
 50
0.0
  0
INSERT
  8
gts
  2
D62
 10
-0.050450
 20
0.044940
 41
1.0
 42
1.0
 43
1.0
 50
0.0
  0
INSERT
  8
gts
  2
D62
 10
-0.050450
 20
0.060690
 41
1.0
 42
1.0
 43
1.0
 50
0.0
  0
INSERT
  8
gts
  2
D62
 10
-0.129190
 20
0.060690
 41
1.0
 42
1.0
 43
1.0
 50
0.0
  0
INSERT
  8
gts
  2
D62
 10
-0.129190
 20
0.029190
 41
1.0
 42
1.0
 43
1.0
 50
0.0
  0
INSERT
  8
gts
  2
D62
 10
-0.113450
 20
0.044940
 41
1.0
 42
1.0
 43
1.0
 50
0.0
  0
INSERT
  8
gts
  2
D62
 10
-0.129200
 20
0.044940
 41
1.0
 42
1.0
 43
1.0
 50
0.0
  0
ENDSEC
  0
EOF
