  0
SECTION
  2
HEADER
  9
$EXTMIN
 10
-0.352000
 20
-0.397000
  9
$EXTMAX
 10
0.277000
 20
0.287000
  9
$LIMMIN
 10
-0.352000
 20
-0.397000
  9
$LIMMAX
 10
0.277000
 20
0.287000
  9
$FILLMODE
 70
  1
  0
ENDSEC
  0
SECTION
  2
TABLES
  0
TABLE
  2
LTYPE
 70
  1
  0
LTYPE
  2
CONTINUOUS
 70
 64
  3
Solid line
 72
 65
 73
  0
 40
0.0
  0
ENDTAB
  0
TABLE
  2
LAYER
 70
 1
  0
LAYER
  2
0
 70
  0
 62
7
  6
CONTINUOUS
  0
LAYER
  2
tx2
 70
  0
 62
1
  6
CONTINUOUS
  0
ENDTAB
  0
TABLE
  2
STYLE
 70
  1
  0
STYLE
  2
STANDARD
 70
  0
 40
0.0
 41
1.0
 50
0.0
 71
  0
 42
0.2
  3
txt
  4

  0
ENDTAB
  0
ENDSEC
  0
SECTION
  2
BLOCKS
  0
BLOCK
  8
0
  2
D9500
 70
64
 10
0.0
 20
0.0
  3
D9500
  0
POLYLINE
  8
0
 66
1
 10
0.0
 20
0.0
 70
1
 40
0.001970
 41
0.001970
  0
VERTEX
  8
0
 10
-0.000985
 20
0.0
 42
1.0
  0
VERTEX
  8
0
 10
0.000985
 20
0.0
 42
1.0
  0
SEQEND
  8
0
 0
ENDBLK
  8
0
  0
ENDSEC
  0
SECTION
  2
ENTITIES
  0
INSERT
  8
tx2
  2
D9500
 10
-0.350000
 20
-0.395000
 41
1.0
 42
1.0
 43
1.0
 50
0.0
  0
INSERT
  8
tx2
  2
D9500
 10
-0.350000
 20
-0.315000
 41
1.0
 42
1.0
 43
1.0
 50
0.0
  0
INSERT
  8
tx2
  2
D9500
 10
-0.310000
 20
-0.315000
 41
1.0
 42
1.0
 43
1.0
 50
0.0
  0
INSERT
  8
tx2
  2
D9500
 10
-0.270000
 20
-0.315000
 41
1.0
 42
1.0
 43
1.0
 50
0.0
  0
INSERT
  8
tx2
  2
D9500
 10
-0.230000
 20
-0.315000
 41
1.0
 42
1.0
 43
1.0
 50
0.0
  0
INSERT
  8
tx2
  2
D9500
 10
-0.190000
 20
-0.315000
 41
1.0
 42
1.0
 43
1.0
 50
0.0
  0
INSERT
  8
tx2
  2
D9500
 10
-0.170000
 20
-0.275000
 41
1.0
 42
1.0
 43
1.0
 50
0.0
  0
INSERT
  8
tx2
  2
D9500
 10
-0.170000
 20
-0.235000
 41
1.0
 42
1.0
 43
1.0
 50
0.0
  0
INSERT
  8
tx2
  2
D9500
 10
-0.220000
 20
-0.255000
 41
1.0
 42
1.0
 43
1.0
 50
0.0
  0
INSERT
  8
tx2
  2
D9500
 10
-0.240000
 20
-0.255000
 41
1.0
 42
1.0
 43
1.0
 50
0.0
  0
INSERT
  8
tx2
  2
D9500
 10
-0.240000
 20
-0.275000
 41
1.0
 42
1.0
 43
1.0
 50
0.0
  0
INSERT
  8
tx2
  2
D9500
 10
-0.220000
 20
-0.275000
 41
1.0
 42
1.0
 43
1.0
 50
0.0
  0
INSERT
  8
tx2
  2
D9500
 10
-0.240000
 20
-0.215000
 41
1.0
 42
1.0
 43
1.0
 50
0.0
  0
INSERT
  8
tx2
  2
D9500
 10
-0.240000
 20
-0.180000
 41
1.0
 42
1.0
 43
1.0
 50
0.0
  0
INSERT
  8
tx2
  2
D9500
 10
-0.240000
 20
-0.140000
 41
1.0
 42
1.0
 43
1.0
 50
0.0
  0
INSERT
  8
tx2
  2
D9500
 10
-0.200000
 20
-0.140000
 41
1.0
 42
1.0
 43
1.0
 50
0.0
  0
INSERT
  8
tx2
  2
D9500
 10
-0.200000
 20
-0.090000
 41
1.0
 42
1.0
 43
1.0
 50
0.0
  0
INSERT
  8
tx2
  2
D9500
 10
-0.200000
 20
-0.045000
 41
1.0
 42
1.0
 43
1.0
 50
0.0
  0
INSERT
  8
tx2
  2
D9500
 10
-0.200000
 20
-0.005000
 41
1.0
 42
1.0
 43
1.0
 50
0.0
  0
INSERT
  8
tx2
  2
D9500
 10
-0.200000
 20
0.035000
 41
1.0
 42
1.0
 43
1.0
 50
0.0
  0
INSERT
  8
tx2
  2
D9500
 10
-0.113450
 20
0.044940
 41
1.0
 42
1.0
 43
1.0
 50
0.0
  0
INSERT
  8
tx2
  2
D9500
 10
-0.097700
 20
0.044940
 41
1.0
 42
1.0
 43
1.0
 50
0.0
  0
INSERT
  8
tx2
  2
D9500
 10
-0.129190
 20
0.060690
 41
1.0
 42
1.0
 43
1.0
 50
0.0
  0
INSERT
  8
tx2
  2
D9500
 10
-0.050450
 20
0.060690
 41
1.0
 42
1.0
 43
1.0
 50
0.0
  0
INSERT
  8
tx2
  2
D9500
 10
-0.003210
 20
0.029190
 41
1.0
 42
1.0
 43
1.0
 50
0.0
  0
INSERT
  8
tx2
  2
D9500
 10
-0.003210
 20
-0.018050
 41
1.0
 42
1.0
 43
1.0
 50
0.0
  0
INSERT
  8
tx2
  2
D9500
 10
-0.018960
 20
-0.018050
 41
1.0
 42
1.0
 43
1.0
 50
0.0
  0
INSERT
  8
tx2
  2
D9500
 10
-0.034710
 20
-0.033800
 41
1.0
 42
1.0
 43
1.0
 50
0.0
  0
INSERT
  8
tx2
  2
D9500
 10
-0.081950
 20
-0.033800
 41
1.0
 42
1.0
 43
1.0
 50
0.0
  0
INSERT
  8
tx2
  2
D9500
 10
-0.081950
 20
-0.049550
 41
1.0
 42
1.0
 43
1.0
 50
0.0
  0
INSERT
  8
tx2
  2
D9500
 10
-0.035000
 20
-0.165000
 41
1.0
 42
1.0
 43
1.0
 50
0.0
  0
INSERT
  8
tx2
  2
D9500
 10
-0.035000
 20
-0.195000
 41
1.0
 42
1.0
 43
1.0
 50
0.0
  0
INSERT
  8
tx2
  2
D9500
 10
0.000000
 20
-0.175000
 41
1.0
 42
1.0
 43
1.0
 50
0.0
  0
INSERT
  8
tx2
  2
D9500
 10
0.035000
 20
-0.165000
 41
1.0
 42
1.0
 43
1.0
 50
0.0
  0
INSERT
  8
tx2
  2
D9500
 10
0.020000
 20
-0.240000
 41
1.0
 42
1.0
 43
1.0
 50
0.0
  0
INSERT
  8
tx2
  2
D9500
 10
0.055000
 20
-0.240000
 41
1.0
 42
1.0
 43
1.0
 50
0.0
  0
INSERT
  8
tx2
  2
D9500
 10
0.090000
 20
-0.240000
 41
1.0
 42
1.0
 43
1.0
 50
0.0
  0
INSERT
  8
tx2
  2
D9500
 10
0.135000
 20
-0.240000
 41
1.0
 42
1.0
 43
1.0
 50
0.0
  0
INSERT
  8
tx2
  2
D9500
 10
0.135000
 20
-0.310000
 41
1.0
 42
1.0
 43
1.0
 50
0.0
  0
INSERT
  8
tx2
  2
D9500
 10
0.275000
 20
-0.295000
 41
1.0
 42
1.0
 43
1.0
 50
0.0
  0
INSERT
  8
tx2
  2
D9500
 10
0.185000
 20
-0.115000
 41
1.0
 42
1.0
 43
1.0
 50
0.0
  0
INSERT
  8
tx2
  2
D9500
 10
0.185000
 20
-0.060000
 41
1.0
 42
1.0
 43
1.0
 50
0.0
  0
INSERT
  8
tx2
  2
D9500
 10
-0.040000
 20
-0.305000
 41
1.0
 42
1.0
 43
1.0
 50
0.0
  0
INSERT
  8
tx2
  2
D9500
 10
-0.075000
 20
0.170000
 41
1.0
 42
1.0
 43
1.0
 50
0.0
  0
INSERT
  8
tx2
  2
D9500
 10
-0.330000
 20
0.105000
 41
1.0
 42
1.0
 43
1.0
 50
0.0
  0
INSERT
  8
tx2
  2
D9500
 10
-0.075000
 20
0.235000
 41
1.0
 42
1.0
 43
1.0
 50
0.0
  0
INSERT
  8
tx2
  2
D9500
 10
-0.075000
 20
0.285000
 41
1.0
 42
1.0
 43
1.0
 50
0.0
  0
ENDSEC
  0
EOF
