  0
SECTION
  2
HEADER
  9
$ACADVER
  1
AC1009
  9
$INSBASE
 10
0.0
 20
0.0
 30
0.0
  9
$EXTMIN
 10
-444.5455
 20
-397.948383
 30
0.0
  9
$EXTMAX
 10
330.0245
 20
352.948383
 30
0.0
  9
$LIMMIN
 10
-444.5455
 20
-397.948383
  9
$LIMMAX
 10
330.0245
 20
352.948383
  9
$DIMSCALE
 40
1.0
  9
$LUNITS
 70
     2
  9
$LUPREC
 70
     9
999
LinkCAD 9.4.0 Build 4805
  0
ENDSEC
  0
SECTION
  2
TABLES
  0
TABLE
  2
VPORT
 70
     1
  0
VPORT
  2
*ACTIVE
 70
     0
 10
0.0
 20
0.0
 11
1.0
 21
1.0
 12
-57.2605
 22
-22.5
 13
0.0
 23
0.0
 14
1000000.0
 24
1000000.0
 15
0.0
 25
0.0
 16
0.0
 26
0.0
 36
1.0
 17
0.0
 27
0.0
 37
0.0
 40
750.896766
 41
1.031527
 42
50.0
 43
0.0
 44
0.0
 50
0.0
 51
0.0
 71
     0
 72
   100
 73
     1
 74
     1
 75
     0
 76
     0
 77
     0
 78
     0
  0
ENDTAB
  0
TABLE
  2
LTYPE
 70
     3
  0
LTYPE
  2
BYBLOCK
 70
     0
  3

 72
    65
 73
     0
 40
0.0
  0
LTYPE
  2
BYLAYER
 70
     0
  3

 72
    65
 73
     0
 40
0.0
  0
LTYPE
  2
CONTINUOUS
 70
     0
  3
Solid line
 72
    65
 73
     0
 40
0.0
  0
ENDTAB
  0
TABLE
  2
LAYER
 70
     2
  0
LAYER
  2
0
 70
    64
 62
     7
  6
CONTINUOUS
  0
LAYER
  2
G1
 70
    64
 62
     1
  6
CONTINUOUS
  0
ENDTAB
  0
TABLE
  2
STYLE
 70
     0
  0
ENDTAB
  0
TABLE
  2
VIEW
 70
     0
  0
ENDTAB
  0
TABLE
  2
UCS
 70
     0
  0
ENDTAB
  0
TABLE
  2
APPID
 70
     1
  0
APPID
  2
ACAD
 70
     0
  0
ENDTAB
  0
TABLE
  2
DIMSTYLE
 70
     0
  0
ENDTAB
  0
ENDSEC
  0
SECTION
  2
BLOCKS
  0
BLOCK
  8
0
  2
D30
 70
    64
 10
0.0
 20
0.0
 30
0.0
  3
D30
  0
POLYLINE
  8
G1
 10
0.0
 20
0.0
 40
3.505
 41
3.505
 66
     1
 70
     1
  0
VERTEX
  8
G1
 10
-1.752
 20
0.0
  0
VERTEX
  8
G1
 10
-1.743564
 20
-0.171726
  0
VERTEX
  8
G1
 10
-1.676559
 20
-0.508579
  0
VERTEX
  8
G1
 10
-1.545126
 20
-0.825887
  0
VERTEX
  8
G1
 10
-1.354314
 20
-1.111457
  0
VERTEX
  8
G1
 10
-1.111457
 20
-1.354314
  0
VERTEX
  8
G1
 10
-0.825887
 20
-1.545126
  0
VERTEX
  8
G1
 10
-0.508579
 20
-1.676559
  0
VERTEX
  8
G1
 10
-0.171726
 20
-1.743564
  0
VERTEX
  8
G1
 10
0.171726
 20
-1.743564
  0
VERTEX
  8
G1
 10
0.508579
 20
-1.676559
  0
VERTEX
  8
G1
 10
0.825887
 20
-1.545126
  0
VERTEX
  8
G1
 10
1.111457
 20
-1.354314
  0
VERTEX
  8
G1
 10
1.354314
 20
-1.111457
  0
VERTEX
  8
G1
 10
1.545126
 20
-0.825887
  0
VERTEX
  8
G1
 10
1.676559
 20
-0.508579
  0
VERTEX
  8
G1
 10
1.743564
 20
-0.171726
  0
VERTEX
  8
G1
 10
1.752
 20
0.0
  0
VERTEX
  8
G1
 10
1.743564
 20
0.171726
  0
VERTEX
  8
G1
 10
1.676559
 20
0.508579
  0
VERTEX
  8
G1
 10
1.545126
 20
0.825887
  0
VERTEX
  8
G1
 10
1.354314
 20
1.111457
  0
VERTEX
  8
G1
 10
1.111457
 20
1.354314
  0
VERTEX
  8
G1
 10
0.825887
 20
1.545126
  0
VERTEX
  8
G1
 10
0.508579
 20
1.676559
  0
VERTEX
  8
G1
 10
0.171726
 20
1.743564
  0
VERTEX
  8
G1
 10
-0.171726
 20
1.743564
  0
VERTEX
  8
G1
 10
-0.508579
 20
1.676559
  0
VERTEX
  8
G1
 10
-0.825887
 20
1.545126
  0
VERTEX
  8
G1
 10
-1.111457
 20
1.354314
  0
VERTEX
  8
G1
 10
-1.354314
 20
1.111457
  0
VERTEX
  8
G1
 10
-1.545126
 20
0.825887
  0
VERTEX
  8
G1
 10
-1.676559
 20
0.508579
  0
VERTEX
  8
G1
 10
-1.743564
 20
0.171726
  0
VERTEX
  8
G1
 10
-1.752
 20
0.0
  0
SEQEND
  8
0
  0
ENDBLK
  8
0
  0
BLOCK
  8
0
  2
D31
 70
    64
 10
0.0
 20
0.0
 30
0.0
  3
D31
  0
POLYLINE
  8
G1
 10
0.0
 20
0.0
 40
4.0
 41
4.0
 66
     1
 70
     1
  0
VERTEX
  8
G1
 10
-2.0
 20
0.0
  0
VERTEX
  8
G1
 10
-1.990369
 20
-0.196034
  0
VERTEX
  8
G1
 10
-1.913881
 20
-0.580569
  0
VERTEX
  8
G1
 10
-1.763843
 20
-0.942793
  0
VERTEX
  8
G1
 10
-1.546021
 20
-1.268787
  0
VERTEX
  8
G1
 10
-1.268787
 20
-1.546021
  0
VERTEX
  8
G1
 10
-0.942793
 20
-1.763843
  0
VERTEX
  8
G1
 10
-0.580569
 20
-1.913881
  0
VERTEX
  8
G1
 10
-0.196034
 20
-1.990369
  0
VERTEX
  8
G1
 10
0.196034
 20
-1.990369
  0
VERTEX
  8
G1
 10
0.580569
 20
-1.913881
  0
VERTEX
  8
G1
 10
0.942793
 20
-1.763843
  0
VERTEX
  8
G1
 10
1.268787
 20
-1.546021
  0
VERTEX
  8
G1
 10
1.546021
 20
-1.268787
  0
VERTEX
  8
G1
 10
1.763843
 20
-0.942793
  0
VERTEX
  8
G1
 10
1.913881
 20
-0.580569
  0
VERTEX
  8
G1
 10
1.990369
 20
-0.196034
  0
VERTEX
  8
G1
 10
2.0
 20
0.0
  0
VERTEX
  8
G1
 10
1.990369
 20
0.196034
  0
VERTEX
  8
G1
 10
1.913881
 20
0.580569
  0
VERTEX
  8
G1
 10
1.763843
 20
0.942793
  0
VERTEX
  8
G1
 10
1.546021
 20
1.268787
  0
VERTEX
  8
G1
 10
1.268787
 20
1.546021
  0
VERTEX
  8
G1
 10
0.942793
 20
1.763843
  0
VERTEX
  8
G1
 10
0.580569
 20
1.913881
  0
VERTEX
  8
G1
 10
0.196034
 20
1.990369
  0
VERTEX
  8
G1
 10
-0.196034
 20
1.990369
  0
VERTEX
  8
G1
 10
-0.580569
 20
1.913881
  0
VERTEX
  8
G1
 10
-0.942793
 20
1.763843
  0
VERTEX
  8
G1
 10
-1.268787
 20
1.546021
  0
VERTEX
  8
G1
 10
-1.546021
 20
1.268787
  0
VERTEX
  8
G1
 10
-1.763843
 20
0.942793
  0
VERTEX
  8
G1
 10
-1.913881
 20
0.580569
  0
VERTEX
  8
G1
 10
-1.990369
 20
0.196034
  0
VERTEX
  8
G1
 10
-2.0
 20
0.0
  0
SEQEND
  8
0
  0
ENDBLK
  8
0
  0
BLOCK
  8
0
  2
D33
 70
    64
 10
0.0
 20
0.0
 30
0.0
  3
D33
  0
POLYLINE
  8
G1
 10
0.0
 20
0.0
 40
3.505
 41
3.505
 66
     1
 70
     1
  0
VERTEX
  8
G1
 10
-1.752
 20
0.0
  0
VERTEX
  8
G1
 10
-1.743564
 20
-0.171726
  0
VERTEX
  8
G1
 10
-1.676559
 20
-0.508579
  0
VERTEX
  8
G1
 10
-1.545126
 20
-0.825887
  0
VERTEX
  8
G1
 10
-1.354314
 20
-1.111457
  0
VERTEX
  8
G1
 10
-1.111457
 20
-1.354314
  0
VERTEX
  8
G1
 10
-0.825887
 20
-1.545126
  0
VERTEX
  8
G1
 10
-0.508579
 20
-1.676559
  0
VERTEX
  8
G1
 10
-0.171726
 20
-1.743564
  0
VERTEX
  8
G1
 10
0.171726
 20
-1.743564
  0
VERTEX
  8
G1
 10
0.508579
 20
-1.676559
  0
VERTEX
  8
G1
 10
0.825887
 20
-1.545126
  0
VERTEX
  8
G1
 10
1.111457
 20
-1.354314
  0
VERTEX
  8
G1
 10
1.354314
 20
-1.111457
  0
VERTEX
  8
G1
 10
1.545126
 20
-0.825887
  0
VERTEX
  8
G1
 10
1.676559
 20
-0.508579
  0
VERTEX
  8
G1
 10
1.743564
 20
-0.171726
  0
VERTEX
  8
G1
 10
1.752
 20
0.0
  0
VERTEX
  8
G1
 10
1.743564
 20
0.171726
  0
VERTEX
  8
G1
 10
1.676559
 20
0.508579
  0
VERTEX
  8
G1
 10
1.545126
 20
0.825887
  0
VERTEX
  8
G1
 10
1.354314
 20
1.111457
  0
VERTEX
  8
G1
 10
1.111457
 20
1.354314
  0
VERTEX
  8
G1
 10
0.825887
 20
1.545126
  0
VERTEX
  8
G1
 10
0.508579
 20
1.676559
  0
VERTEX
  8
G1
 10
0.171726
 20
1.743564
  0
VERTEX
  8
G1
 10
-0.171726
 20
1.743564
  0
VERTEX
  8
G1
 10
-0.508579
 20
1.676559
  0
VERTEX
  8
G1
 10
-0.825887
 20
1.545126
  0
VERTEX
  8
G1
 10
-1.111457
 20
1.354314
  0
VERTEX
  8
G1
 10
-1.354314
 20
1.111457
  0
VERTEX
  8
G1
 10
-1.545126
 20
0.825887
  0
VERTEX
  8
G1
 10
-1.676559
 20
0.508579
  0
VERTEX
  8
G1
 10
-1.743564
 20
0.171726
  0
VERTEX
  8
G1
 10
-1.752
 20
0.0
  0
SEQEND
  8
0
  0
ENDBLK
  8
0
  0
BLOCK
  8
0
  2
D34
 70
    64
 10
0.0
 20
0.0
 30
0.0
  3
D34
  0
POLYLINE
  8
G1
 10
0.0
 20
0.0
 40
3.5
 41
3.5
 66
     1
 70
     1
  0
VERTEX
  8
G1
 10
-1.75
 20
0.0
  0
VERTEX
  8
G1
 10
-1.741573
 20
-0.17153
  0
VERTEX
  8
G1
 10
-1.674646
 20
-0.507998
  0
VERTEX
  8
G1
 10
-1.543362
 20
-0.824944
  0
VERTEX
  8
G1
 10
-1.352768
 20
-1.110188
  0
VERTEX
  8
G1
 10
-1.110188
 20
-1.352768
  0
VERTEX
  8
G1
 10
-0.824944
 20
-1.543362
  0
VERTEX
  8
G1
 10
-0.507998
 20
-1.674646
  0
VERTEX
  8
G1
 10
-0.17153
 20
-1.741573
  0
VERTEX
  8
G1
 10
0.17153
 20
-1.741573
  0
VERTEX
  8
G1
 10
0.507998
 20
-1.674646
  0
VERTEX
  8
G1
 10
0.824944
 20
-1.543362
  0
VERTEX
  8
G1
 10
1.110188
 20
-1.352768
  0
VERTEX
  8
G1
 10
1.352768
 20
-1.110188
  0
VERTEX
  8
G1
 10
1.543362
 20
-0.824944
  0
VERTEX
  8
G1
 10
1.674646
 20
-0.507998
  0
VERTEX
  8
G1
 10
1.741573
 20
-0.17153
  0
VERTEX
  8
G1
 10
1.75
 20
0.0
  0
VERTEX
  8
G1
 10
1.741573
 20
0.17153
  0
VERTEX
  8
G1
 10
1.674646
 20
0.507998
  0
VERTEX
  8
G1
 10
1.543362
 20
0.824944
  0
VERTEX
  8
G1
 10
1.352768
 20
1.110188
  0
VERTEX
  8
G1
 10
1.110188
 20
1.352768
  0
VERTEX
  8
G1
 10
0.824944
 20
1.543362
  0
VERTEX
  8
G1
 10
0.507998
 20
1.674646
  0
VERTEX
  8
G1
 10
0.17153
 20
1.741573
  0
VERTEX
  8
G1
 10
-0.17153
 20
1.741573
  0
VERTEX
  8
G1
 10
-0.507998
 20
1.674646
  0
VERTEX
  8
G1
 10
-0.824944
 20
1.543362
  0
VERTEX
  8
G1
 10
-1.110188
 20
1.352768
  0
VERTEX
  8
G1
 10
-1.352768
 20
1.110188
  0
VERTEX
  8
G1
 10
-1.543362
 20
0.824944
  0
VERTEX
  8
G1
 10
-1.674646
 20
0.507998
  0
VERTEX
  8
G1
 10
-1.741573
 20
0.17153
  0
VERTEX
  8
G1
 10
-1.75
 20
0.0
  0
SEQEND
  8
0
  0
ENDBLK
  8
0
  0
BLOCK
  8
0
  2
D35
 70
    64
 10
0.0
 20
0.0
 30
0.0
  3
D35
  0
POLYLINE
  8
G1
 10
0.0
 20
0.0
 40
7.5
 41
7.5
 66
     1
 70
     1
  0
VERTEX
  8
G1
 10
-3.75
 20
0.0
  0
VERTEX
  8
G1
 10
-3.731943
 20
-0.367564
  0
VERTEX
  8
G1
 10
-3.588526
 20
-1.088568
  0
VERTEX
  8
G1
 10
-3.307205
 20
-1.767738
  0
VERTEX
  8
G1
 10
-2.898789
 20
-2.378975
  0
VERTEX
  8
G1
 10
-2.378975
 20
-2.898789
  0
VERTEX
  8
G1
 10
-1.767738
 20
-3.307205
  0
VERTEX
  8
G1
 10
-1.088568
 20
-3.588526
  0
VERTEX
  8
G1
 10
-0.367564
 20
-3.731943
  0
VERTEX
  8
G1
 10
0.367564
 20
-3.731943
  0
VERTEX
  8
G1
 10
1.088568
 20
-3.588526
  0
VERTEX
  8
G1
 10
1.767738
 20
-3.307205
  0
VERTEX
  8
G1
 10
2.378975
 20
-2.898789
  0
VERTEX
  8
G1
 10
2.898789
 20
-2.378975
  0
VERTEX
  8
G1
 10
3.307205
 20
-1.767738
  0
VERTEX
  8
G1
 10
3.588526
 20
-1.088568
  0
VERTEX
  8
G1
 10
3.731943
 20
-0.367564
  0
VERTEX
  8
G1
 10
3.75
 20
0.0
  0
VERTEX
  8
G1
 10
3.731943
 20
0.367564
  0
VERTEX
  8
G1
 10
3.588526
 20
1.088568
  0
VERTEX
  8
G1
 10
3.307205
 20
1.767738
  0
VERTEX
  8
G1
 10
2.898789
 20
2.378975
  0
VERTEX
  8
G1
 10
2.378975
 20
2.898789
  0
VERTEX
  8
G1
 10
1.767738
 20
3.307205
  0
VERTEX
  8
G1
 10
1.088568
 20
3.588526
  0
VERTEX
  8
G1
 10
0.367564
 20
3.731943
  0
VERTEX
  8
G1
 10
-0.367564
 20
3.731943
  0
VERTEX
  8
G1
 10
-1.088568
 20
3.588526
  0
VERTEX
  8
G1
 10
-1.767738
 20
3.307205
  0
VERTEX
  8
G1
 10
-2.378975
 20
2.898789
  0
VERTEX
  8
G1
 10
-2.898789
 20
2.378975
  0
VERTEX
  8
G1
 10
-3.307205
 20
1.767738
  0
VERTEX
  8
G1
 10
-3.588526
 20
1.088568
  0
VERTEX
  8
G1
 10
-3.731943
 20
0.367564
  0
VERTEX
  8
G1
 10
-3.75
 20
0.0
  0
SEQEND
  8
0
  0
ENDBLK
  8
0
  0
BLOCK
  8
0
  2
D36
 70
    64
 10
0.0
 20
0.0
 30
0.0
  3
D36
  0
POLYLINE
  8
G1
 10
0.0
 20
0.0
 40
2.955
 41
2.955
 66
     1
 70
     1
  0
VERTEX
  8
G1
 10
-1.478
 20
0.0
  0
VERTEX
  8
G1
 10
-1.470883
 20
-0.144869
  0
VERTEX
  8
G1
 10
-1.414358
 20
-0.429041
  0
VERTEX
  8
G1
 10
-1.30348
 20
-0.696724
  0
VERTEX
  8
G1
 10
-1.142509
 20
-0.937633
  0
VERTEX
  8
G1
 10
-0.937633
 20
-1.142509
  0
VERTEX
  8
G1
 10
-0.696724
 20
-1.30348
  0
VERTEX
  8
G1
 10
-0.429041
 20
-1.414358
  0
VERTEX
  8
G1
 10
-0.144869
 20
-1.470883
  0
VERTEX
  8
G1
 10
0.144869
 20
-1.470883
  0
VERTEX
  8
G1
 10
0.429041
 20
-1.414358
  0
VERTEX
  8
G1
 10
0.696724
 20
-1.30348
  0
VERTEX
  8
G1
 10
0.937633
 20
-1.142509
  0
VERTEX
  8
G1
 10
1.142509
 20
-0.937633
  0
VERTEX
  8
G1
 10
1.30348
 20
-0.696724
  0
VERTEX
  8
G1
 10
1.414358
 20
-0.429041
  0
VERTEX
  8
G1
 10
1.470883
 20
-0.144869
  0
VERTEX
  8
G1
 10
1.478
 20
0.0
  0
VERTEX
  8
G1
 10
1.470883
 20
0.144869
  0
VERTEX
  8
G1
 10
1.414358
 20
0.429041
  0
VERTEX
  8
G1
 10
1.30348
 20
0.696724
  0
VERTEX
  8
G1
 10
1.142509
 20
0.937633
  0
VERTEX
  8
G1
 10
0.937633
 20
1.142509
  0
VERTEX
  8
G1
 10
0.696724
 20
1.30348
  0
VERTEX
  8
G1
 10
0.429041
 20
1.414358
  0
VERTEX
  8
G1
 10
0.144869
 20
1.470883
  0
VERTEX
  8
G1
 10
-0.144869
 20
1.470883
  0
VERTEX
  8
G1
 10
-0.429041
 20
1.414358
  0
VERTEX
  8
G1
 10
-0.696724
 20
1.30348
  0
VERTEX
  8
G1
 10
-0.937633
 20
1.142509
  0
VERTEX
  8
G1
 10
-1.142509
 20
0.937633
  0
VERTEX
  8
G1
 10
-1.30348
 20
0.696724
  0
VERTEX
  8
G1
 10
-1.414358
 20
0.429041
  0
VERTEX
  8
G1
 10
-1.470883
 20
0.144869
  0
VERTEX
  8
G1
 10
-1.478
 20
0.0
  0
SEQEND
  8
0
  0
ENDBLK
  8
0
  0
ENDSEC
  0
SECTION
  2
ENTITIES
  0
INSERT
  8
0
  2
D30
 10
-120.0
 20
-105.0
 41
1.0
 42
1.0
 50
0.0
  0
INSERT
  8
0
  2
D30
 10
-120.0
 20
-58.74
 41
1.0
 42
1.0
 50
0.0
  0
INSERT
  8
0
  2
D30
 10
-129.19
 20
-49.55
 41
1.0
 42
1.0
 50
0.0
  0
INSERT
  8
0
  2
D30
 10
-120.0
 20
-58.74
 41
1.0
 42
1.0
 50
0.0
  0
INSERT
  8
0
  2
D30
 10
-190.0
 20
-345.0
 41
1.0
 42
1.0
 50
0.0
  0
INSERT
  8
0
  2
D30
 10
-130.0
 20
-345.0
 41
1.0
 42
1.0
 50
0.0
  0
INSERT
  8
0
  2
D30
 10
-148.85
 20
-2.31
 41
1.0
 42
1.0
 50
0.0
  0
INSERT
  8
0
  2
D30
 10
-129.19
 20
-2.31
 41
1.0
 42
1.0
 50
0.0
  0
INSERT
  8
0
  2
D30
 10
-161.03
 20
-145.41
 41
1.0
 42
1.0
 50
0.0
  0
INSERT
  8
0
  2
D30
 10
-161.03
 20
-14.48
 41
1.0
 42
1.0
 50
0.0
  0
INSERT
  8
0
  2
D30
 10
-148.85
 20
-2.31
 41
1.0
 42
1.0
 50
0.0
  0
INSERT
  8
0
  2
D30
 10
-130.0
 20
-345.0
 41
1.0
 42
1.0
 50
0.0
  0
INSERT
  8
0
  2
D30
 10
-130.0
 20
-176.44
 41
1.0
 42
1.0
 50
0.0
  0
INSERT
  8
0
  2
D30
 10
-161.03
 20
-145.41
 41
1.0
 42
1.0
 50
0.0
  0
INSERT
  8
0
  2
D30
 10
-130.0
 20
-176.44
 41
1.0
 42
1.0
 50
0.0
  0
INSERT
  8
0
  2
D30
 10
300.0
 20
-316.01
 41
1.0
 42
1.0
 50
0.0
  0
INSERT
  8
0
  2
D30
 10
300.0
 20
-295.0
 41
1.0
 42
1.0
 50
0.0
  0
INSERT
  8
0
  2
D30
 10
176.49
 20
-337.98
 41
1.0
 42
1.0
 50
0.0
  0
INSERT
  8
0
  2
D30
 10
278.03
 20
-337.98
 41
1.0
 42
1.0
 50
0.0
  0
INSERT
  8
0
  2
D30
 10
165.0
 20
-326.49
 41
1.0
 42
1.0
 50
0.0
  0
INSERT
  8
0
  2
D30
 10
176.49
 20
-337.98
 41
1.0
 42
1.0
 50
0.0
  0
INSERT
  8
0
  2
D30
 10
165.0
 20
-326.49
 41
1.0
 42
1.0
 50
0.0
  0
INSERT
  8
0
  2
D30
 10
165.0
 20
-310.0
 41
1.0
 42
1.0
 50
0.0
  0
INSERT
  8
0
  2
D30
 10
300.0
 20
-210.0
 41
1.0
 42
1.0
 50
0.0
  0
INSERT
  8
0
  2
D30
 10
300.0
 20
-183.88
 41
1.0
 42
1.0
 50
0.0
  0
INSERT
  8
0
  2
D30
 10
276.89
 20
-160.76
 41
1.0
 42
1.0
 50
0.0
  0
INSERT
  8
0
  2
D30
 10
300.0
 20
-183.88
 41
1.0
 42
1.0
 50
0.0
  0
INSERT
  8
0
  2
D30
 10
39.39
 20
-73.26
 41
1.0
 42
1.0
 50
0.0
  0
INSERT
  8
0
  2
D30
 10
70.0
 20
-103.87
 41
1.0
 42
1.0
 50
0.0
  0
INSERT
  8
0
  2
D30
 10
-18.96
 20
-64.72
 41
1.0
 42
1.0
 50
0.0
  0
INSERT
  8
0
  2
D30
 10
-18.96
 20
-49.55
 41
1.0
 42
1.0
 50
0.0
  0
INSERT
  8
0
  2
D30
 10
-18.96
 20
-64.72
 41
1.0
 42
1.0
 50
0.0
  0
INSERT
  8
0
  2
D30
 10
-10.41
 20
-73.26
 41
1.0
 42
1.0
 50
0.0
  0
INSERT
  8
0
  2
D30
 10
39.39
 20
-73.26
 41
1.0
 42
1.0
 50
0.0
  0
INSERT
  8
0
  2
D30
 10
70.0
 20
-150.0
 41
1.0
 42
1.0
 50
0.0
  0
INSERT
  8
0
  2
D30
 10
70.0
 20
-103.87
 41
1.0
 42
1.0
 50
0.0
  0
INSERT
  8
0
  2
D30
 10
119.54
 20
-160.76
 41
1.0
 42
1.0
 50
0.0
  0
INSERT
  8
0
  2
D30
 10
276.89
 20
-160.76
 41
1.0
 42
1.0
 50
0.0
  0
INSERT
  8
0
  2
D30
 10
90.0
 20
-210.0
 41
1.0
 42
1.0
 50
0.0
  0
INSERT
  8
0
  2
D30
 10
90.0
 20
-190.31
 41
1.0
 42
1.0
 50
0.0
  0
INSERT
  8
0
  2
D30
 10
119.54
 20
-160.76
 41
1.0
 42
1.0
 50
0.0
  0
INSERT
  8
0
  2
D30
 10
70.0
 20
-150.0
 41
1.0
 42
1.0
 50
0.0
  0
INSERT
  8
0
  2
D30
 10
90.0
 20
-170.0
 41
1.0
 42
1.0
 50
0.0
  0
INSERT
  8
0
  2
D30
 10
90.0
 20
-190.31
 41
1.0
 42
1.0
 50
0.0
  0
INSERT
  8
0
  2
D30
 10
90.0
 20
-170.0
 41
1.0
 42
1.0
 50
0.0
  0
INSERT
  8
0
  2
D30
 10
100.0
 20
-135.0
 41
1.0
 42
1.0
 50
0.0
  0
INSERT
  8
0
  2
D30
 10
100.0
 20
-78.29
 41
1.0
 42
1.0
 50
0.0
  0
INSERT
  8
0
  2
D30
 10
71.26
 20
-49.55
 41
1.0
 42
1.0
 50
0.0
  0
INSERT
  8
0
  2
D30
 10
100.0
 20
-78.29
 41
1.0
 42
1.0
 50
0.0
  0
INSERT
  8
0
  2
D30
 10
-3.21
 20
-49.55
 41
1.0
 42
1.0
 50
0.0
  0
INSERT
  8
0
  2
D30
 10
71.26
 20
-49.55
 41
1.0
 42
1.0
 50
0.0
  0
INSERT
  8
0
  2
D30
 10
289.01
 20
-326.99
 41
1.0
 42
1.0
 50
0.0
  0
INSERT
  8
0
  2
D30
 10
317.72
 20
-326.99
 41
1.0
 42
1.0
 50
0.0
  0
INSERT
  8
0
  2
D30
 10
326.52
 20
-318.2
 41
1.0
 42
1.0
 50
0.0
  0
INSERT
  8
0
  2
D30
 10
278.03
 20
-337.98
 41
1.0
 42
1.0
 50
0.0
  0
INSERT
  8
0
  2
D30
 10
289.01
 20
-326.99
 41
1.0
 42
1.0
 50
0.0
  0
INSERT
  8
0
  2
D30
 10
300.0
 20
-316.01
 41
1.0
 42
1.0
 50
0.0
  0
INSERT
  8
0
  2
D30
 10
100.0
 20
-135.0
 41
1.0
 42
1.0
 50
0.0
  0
INSERT
  8
0
  2
D30
 10
280.22
 20
-135.0
 41
1.0
 42
1.0
 50
0.0
  0
INSERT
  8
0
  2
D30
 10
326.52
 20
-181.3
 41
1.0
 42
1.0
 50
0.0
  0
INSERT
  8
0
  2
D30
 10
326.52
 20
-318.2
 41
1.0
 42
1.0
 50
0.0
  0
INSERT
  8
0
  2
D30
 10
326.52
 20
-181.3
 41
1.0
 42
1.0
 50
0.0
  0
INSERT
  8
0
  2
D31
 10
-210.0
 20
95.0
 41
1.0
 42
1.0
 50
0.0
  0
INSERT
  8
0
  2
D31
 10
-190.0
 20
95.0
 41
1.0
 42
1.0
 50
0.0
  0
INSERT
  8
0
  2
D31
 10
-139.94
 20
44.94
 41
1.0
 42
1.0
 50
0.0
  0
INSERT
  8
0
  2
D31
 10
-129.2
 20
44.94
 41
1.0
 42
1.0
 50
0.0
  0
INSERT
  8
0
  2
D31
 10
-40.0
 20
-350.0
 41
1.0
 42
1.0
 50
0.0
  0
INSERT
  8
0
  2
D31
 10
5.0
 20
-350.0
 41
1.0
 42
1.0
 50
0.0
  0
INSERT
  8
0
  2
D31
 10
3.86
 20
-88.86
 41
1.0
 42
1.0
 50
0.0
  0
INSERT
  8
0
  2
D31
 10
25.0
 20
-110.0
 41
1.0
 42
1.0
 50
0.0
  0
INSERT
  8
0
  2
D31
 10
-34.71
 20
-76.92
 41
1.0
 42
1.0
 50
0.0
  0
INSERT
  8
0
  2
D31
 10
-34.71
 20
-49.55
 41
1.0
 42
1.0
 50
0.0
  0
INSERT
  8
0
  2
D31
 10
-34.71
 20
-76.92
 41
1.0
 42
1.0
 50
0.0
  0
INSERT
  8
0
  2
D31
 10
-22.77
 20
-88.86
 41
1.0
 42
1.0
 50
0.0
  0
INSERT
  8
0
  2
D31
 10
3.86
 20
-88.86
 41
1.0
 42
1.0
 50
0.0
  0
INSERT
  8
0
  2
D31
 10
100.0
 20
110.0
 41
1.0
 42
1.0
 50
0.0
  0
INSERT
  8
0
  2
D31
 10
100.0
 20
160.0
 41
1.0
 42
1.0
 50
0.0
  0
INSERT
  8
0
  2
D31
 10
60.0
 20
160.0
 41
1.0
 42
1.0
 50
0.0
  0
INSERT
  8
0
  2
D31
 10
60.0
 20
210.0
 41
1.0
 42
1.0
 50
0.0
  0
INSERT
  8
0
  2
D31
 10
60.0
 20
260.0
 41
1.0
 42
1.0
 50
0.0
  0
INSERT
  8
0
  2
D31
 10
60.0
 20
310.0
 41
1.0
 42
1.0
 50
0.0
  0
INSERT
  8
0
  2
D31
 10
-18.96
 20
44.94
 41
1.0
 42
1.0
 50
0.0
  0
INSERT
  8
0
  2
D31
 10
46.11
 20
110.0
 41
1.0
 42
1.0
 50
0.0
  0
INSERT
  8
0
  2
D31
 10
60.0
 20
110.0
 41
1.0
 42
1.0
 50
0.0
  0
INSERT
  8
0
  2
D33
 10
-81.95
 20
-49.55
 41
1.0
 42
1.0
 50
0.0
  0
INSERT
  8
0
  2
D33
 10
-113.44
 20
-49.55
 41
1.0
 42
1.0
 50
0.0
  0
INSERT
  8
0
  2
D33
 10
-97.7
 20
-49.55
 41
1.0
 42
1.0
 50
0.0
  0
INSERT
  8
0
  2
D33
 10
-18.96
 20
-49.55
 41
1.0
 42
1.0
 50
0.0
  0
INSERT
  8
0
  2
D33
 10
-3.21
 20
-49.55
 41
1.0
 42
1.0
 50
0.0
  0
INSERT
  8
0
  2
D33
 10
-129.19
 20
13.44
 41
1.0
 42
1.0
 50
0.0
  0
INSERT
  8
0
  2
D33
 10
-34.71
 20
-2.31
 41
1.0
 42
1.0
 50
0.0
  0
INSERT
  8
0
  2
D33
 10
-18.96
 20
29.19
 41
1.0
 42
1.0
 50
0.0
  0
INSERT
  8
0
  2
D33
 10
-3.21
 20
29.19
 41
1.0
 42
1.0
 50
0.0
  0
INSERT
  8
0
  2
D33
 10
-18.96
 20
44.94
 41
1.0
 42
1.0
 50
0.0
  0
INSERT
  8
0
  2
D33
 10
-34.71
 20
44.94
 41
1.0
 42
1.0
 50
0.0
  0
INSERT
  8
0
  2
D33
 10
-34.71
 20
29.19
 41
1.0
 42
1.0
 50
0.0
  0
INSERT
  8
0
  2
D33
 10
-50.45
 20
29.19
 41
1.0
 42
1.0
 50
0.0
  0
INSERT
  8
0
  2
D33
 10
-66.2
 20
60.69
 41
1.0
 42
1.0
 50
0.0
  0
INSERT
  8
0
  2
D33
 10
-97.7
 20
44.94
 41
1.0
 42
1.0
 50
0.0
  0
INSERT
  8
0
  2
D33
 10
-81.95
 20
29.19
 41
1.0
 42
1.0
 50
0.0
  0
INSERT
  8
0
  2
D33
 10
-129.19
 20
-49.55
 41
1.0
 42
1.0
 50
0.0
  0
INSERT
  8
0
  2
D33
 10
-129.19
 20
-33.8
 41
1.0
 42
1.0
 50
0.0
  0
INSERT
  8
0
  2
D33
 10
-113.45
 20
-33.8
 41
1.0
 42
1.0
 50
0.0
  0
INSERT
  8
0
  2
D33
 10
-81.95
 20
-33.8
 41
1.0
 42
1.0
 50
0.0
  0
INSERT
  8
0
  2
D33
 10
-34.7
 20
13.44
 41
1.0
 42
1.0
 50
0.0
  0
INSERT
  8
0
  2
D33
 10
-18.96
 20
13.44
 41
1.0
 42
1.0
 50
0.0
  0
INSERT
  8
0
  2
D33
 10
-18.96
 20
-2.31
 41
1.0
 42
1.0
 50
0.0
  0
INSERT
  8
0
  2
D33
 10
-3.21
 20
-18.05
 41
1.0
 42
1.0
 50
0.0
  0
INSERT
  8
0
  2
D33
 10
-18.96
 20
-18.05
 41
1.0
 42
1.0
 50
0.0
  0
INSERT
  8
0
  2
D33
 10
-34.71
 20
-33.8
 41
1.0
 42
1.0
 50
0.0
  0
INSERT
  8
0
  2
D33
 10
-50.45
 20
-33.8
 41
1.0
 42
1.0
 50
0.0
  0
INSERT
  8
0
  2
D33
 10
-50.45
 20
-49.55
 41
1.0
 42
1.0
 50
0.0
  0
INSERT
  8
0
  2
D33
 10
-34.71
 20
-49.55
 41
1.0
 42
1.0
 50
0.0
  0
INSERT
  8
0
  2
D33
 10
-113.45
 20
60.69
 41
1.0
 42
1.0
 50
0.0
  0
INSERT
  8
0
  2
D33
 10
-34.71
 20
60.69
 41
1.0
 42
1.0
 50
0.0
  0
INSERT
  8
0
  2
D33
 10
-50.45
 20
44.94
 41
1.0
 42
1.0
 50
0.0
  0
INSERT
  8
0
  2
D33
 10
-50.45
 20
60.69
 41
1.0
 42
1.0
 50
0.0
  0
INSERT
  8
0
  2
D33
 10
-129.19
 20
60.69
 41
1.0
 42
1.0
 50
0.0
  0
INSERT
  8
0
  2
D33
 10
-129.19
 20
29.19
 41
1.0
 42
1.0
 50
0.0
  0
INSERT
  8
0
  2
D33
 10
-113.45
 20
44.94
 41
1.0
 42
1.0
 50
0.0
  0
INSERT
  8
0
  2
D33
 10
-129.2
 20
44.94
 41
1.0
 42
1.0
 50
0.0
  0
INSERT
  8
0
  2
D34
 10
-113.44
 20
-49.55
 41
1.0
 42
1.0
 50
0.0
  0
INSERT
  8
0
  2
D34
 10
-106.07
 20
-56.93
 41
1.0
 42
1.0
 50
0.0
  0
INSERT
  8
0
  2
D34
 10
-106.07
 20
-84.85
 41
1.0
 42
1.0
 50
0.0
  0
INSERT
  8
0
  2
D34
 10
-106.07
 20
-56.93
 41
1.0
 42
1.0
 50
0.0
  0
INSERT
  8
0
  2
D34
 10
-113.45
 20
-33.8
 41
1.0
 42
1.0
 50
0.0
  0
INSERT
  8
0
  2
D34
 10
-113.45
 20
-33.8
 41
1.0
 42
1.0
 50
0.0
  0
INSERT
  8
0
  2
D34
 10
-34.71
 20
29.19
 41
1.0
 42
1.0
 50
0.0
  0
INSERT
  8
0
  2
D34
 10
-34.71
 20
29.19
 41
1.0
 42
1.0
 50
0.0
  0
INSERT
  8
0
  2
D34
 10
-34.7
 20
13.44
 41
1.0
 42
1.0
 50
0.0
  0
INSERT
  8
0
  2
D34
 10
-34.7
 20
13.44
 41
1.0
 42
1.0
 50
0.0
  0
INSERT
  8
0
  2
D34
 10
-34.71
 20
-2.31
 41
1.0
 42
1.0
 50
0.0
  0
INSERT
  8
0
  2
D34
 10
-34.71
 20
-2.31
 41
1.0
 42
1.0
 50
0.0
  0
INSERT
  8
0
  2
D34
 10
-50.45
 20
29.19
 41
1.0
 42
1.0
 50
0.0
  0
INSERT
  8
0
  2
D34
 10
-50.45
 20
29.19
 41
1.0
 42
1.0
 50
0.0
  0
INSERT
  8
0
  2
D34
 10
-34.71
 20
29.19
 41
1.0
 42
1.0
 50
0.0
  0
INSERT
  8
0
  2
D34
 10
-34.71
 20
29.19
 41
1.0
 42
1.0
 50
0.0
  0
INSERT
  8
0
  2
D34
 10
135.0
 20
-210.0
 41
1.0
 42
1.0
 50
0.0
  0
INSERT
  8
0
  2
D34
 10
135.0
 20
-186.98
 41
1.0
 42
1.0
 50
0.0
  0
INSERT
  8
0
  2
D34
 10
250.0
 20
-210.0
 41
1.0
 42
1.0
 50
0.0
  0
INSERT
  8
0
  2
D34
 10
250.0
 20
-189.26
 41
1.0
 42
1.0
 50
0.0
  0
INSERT
  8
0
  2
D34
 10
135.0
 20
-186.98
 41
1.0
 42
1.0
 50
0.0
  0
INSERT
  8
0
  2
D34
 10
146.4
 20
-175.58
 41
1.0
 42
1.0
 50
0.0
  0
INSERT
  8
0
  2
D34
 10
236.33
 20
-175.58
 41
1.0
 42
1.0
 50
0.0
  0
INSERT
  8
0
  2
D34
 10
250.0
 20
-189.26
 41
1.0
 42
1.0
 50
0.0
  0
INSERT
  8
0
  2
D34
 10
-60.1
 20
-43.45
 41
1.0
 42
1.0
 50
0.0
  0
INSERT
  8
0
  2
D34
 10
-50.45
 20
-33.8
 41
1.0
 42
1.0
 50
0.0
  0
INSERT
  8
0
  2
D34
 10
-60.1
 20
-78.52
 41
1.0
 42
1.0
 50
0.0
  0
INSERT
  8
0
  2
D34
 10
-59.38
 20
-78.52
 41
1.0
 42
1.0
 50
0.0
  0
INSERT
  8
0
  2
D34
 10
-60.1
 20
-78.52
 41
1.0
 42
1.0
 50
0.0
  0
INSERT
  8
0
  2
D34
 10
-60.1
 20
-43.45
 41
1.0
 42
1.0
 50
0.0
  0
INSERT
  8
0
  2
D34
 10
-59.38
 20
-79.35
 41
1.0
 42
1.0
 50
0.0
  0
INSERT
  8
0
  2
D34
 10
-59.38
 20
-78.52
 41
1.0
 42
1.0
 50
0.0
  0
INSERT
  8
0
  2
D34
 10
-59.38
 20
-79.35
 41
1.0
 42
1.0
 50
0.0
  0
INSERT
  8
0
  2
D34
 10
-22.83
 20
-115.91
 41
1.0
 42
1.0
 50
0.0
  0
INSERT
  8
0
  2
D35
 10
-18.96
 20
-2.31
 41
1.0
 42
1.0
 50
0.0
  0
INSERT
  8
0
  2
D35
 10
60.52
 20
-2.31
 41
1.0
 42
1.0
 50
0.0
  0
INSERT
  8
0
  2
D35
 10
67.82
 20
5.0
 41
1.0
 42
1.0
 50
0.0
  0
INSERT
  8
0
  2
D35
 10
130.0
 20
5.0
 41
1.0
 42
1.0
 50
0.0
  0
INSERT
  8
0
  2
D35
 10
-125.0
 20
235.0
 41
1.0
 42
1.0
 50
0.0
  0
INSERT
  8
0
  2
D35
 10
-125.0
 20
285.0
 41
1.0
 42
1.0
 50
0.0
  0
INSERT
  8
0
  2
D35
 10
-125.0
 20
211.73
 41
1.0
 42
1.0
 50
0.0
  0
INSERT
  8
0
  2
D35
 10
-125.0
 20
235.0
 41
1.0
 42
1.0
 50
0.0
  0
INSERT
  8
0
  2
D35
 10
-125.0
 20
211.73
 41
1.0
 42
1.0
 50
0.0
  0
INSERT
  8
0
  2
D35
 10
-120.0
 20
206.73
 41
1.0
 42
1.0
 50
0.0
  0
INSERT
  8
0
  2
D35
 10
-120.0
 20
170.0
 41
1.0
 42
1.0
 50
0.0
  0
INSERT
  8
0
  2
D35
 10
-120.0
 20
206.73
 41
1.0
 42
1.0
 50
0.0
  0
INSERT
  8
0
  2
D35
 10
-120.0
 20
121.52
 41
1.0
 42
1.0
 50
0.0
  0
INSERT
  8
0
  2
D35
 10
-120.0
 20
170.0
 41
1.0
 42
1.0
 50
0.0
  0
INSERT
  8
0
  2
D35
 10
-120.0
 20
121.52
 41
1.0
 42
1.0
 50
0.0
  0
INSERT
  8
0
  2
D35
 10
-113.45
 20
114.97
 41
1.0
 42
1.0
 50
0.0
  0
INSERT
  8
0
  2
D35
 10
-113.45
 20
60.69
 41
1.0
 42
1.0
 50
0.0
  0
INSERT
  8
0
  2
D35
 10
-113.45
 20
114.97
 41
1.0
 42
1.0
 50
0.0
  0
INSERT
  8
0
  2
D35
 10
185.0
 20
-115.0
 41
1.0
 42
1.0
 50
0.0
  0
INSERT
  8
0
  2
D35
 10
185.0
 20
-60.0
 41
1.0
 42
1.0
 50
0.0
  0
INSERT
  8
0
  2
D36
 10
100.0
 20
260.0
 41
1.0
 42
1.0
 50
0.0
  0
INSERT
  8
0
  2
D36
 10
0.0
 20
-175.0
 41
1.0
 42
1.0
 50
0.0
  0
INSERT
  8
0
  2
D36
 10
-274.51
 20
300.78
 41
1.0
 42
1.0
 50
0.0
  0
INSERT
  8
0
  2
D36
 10
-36.66
 20
235.08
 41
1.0
 42
1.0
 50
0.0
  0
INSERT
  8
0
  2
D36
 10
-350.12
 20
-271.13
 41
1.0
 42
1.0
 50
0.0
  0
INSERT
  8
0
  2
D36
 10
258.55
 20
-264.24
 41
1.0
 42
1.0
 50
0.0
  0
INSERT
  8
0
  2
D36
 10
257.16
 20
-247.17
 41
1.0
 42
1.0
 50
0.0
  0
INSERT
  8
0
  2
D36
 10
290.53
 20
-263.1
 41
1.0
 42
1.0
 50
0.0
  0
INSERT
  8
0
  2
D36
 10
294.96
 20
-245.28
 41
1.0
 42
1.0
 50
0.0
  0
INSERT
  8
0
  2
D36
 10
-22.83
 20
-115.91
 41
1.0
 42
1.0
 50
0.0
  0
INSERT
  8
0
  2
D36
 10
-229.81
 20
-88.39
 41
1.0
 42
1.0
 50
0.0
  0
INSERT
  8
0
  2
D36
 10
-81.95
 20
-49.55
 41
1.0
 42
1.0
 50
0.0
  0
INSERT
  8
0
  2
D36
 10
-129.19
 20
-2.31
 41
1.0
 42
1.0
 50
0.0
  0
INSERT
  8
0
  2
D36
 10
-3.21
 20
29.19
 41
1.0
 42
1.0
 50
0.0
  0
INSERT
  8
0
  2
D36
 10
-50.45
 20
60.69
 41
1.0
 42
1.0
 50
0.0
  0
INSERT
  8
0
  2
D36
 10
-3.21
 20
-18.05
 41
1.0
 42
1.0
 50
0.0
  0
INSERT
  8
0
  2
D36
 10
-34.71
 20
-33.8
 41
1.0
 42
1.0
 50
0.0
  0
INSERT
  8
0
  2
D36
 10
-81.95
 20
-33.8
 41
1.0
 42
1.0
 50
0.0
  0
INSERT
  8
0
  2
D36
 10
-129.19
 20
60.69
 41
1.0
 42
1.0
 50
0.0
  0
INSERT
  8
0
  2
D36
 10
-113.45
 20
44.94
 41
1.0
 42
1.0
 50
0.0
  0
INSERT
  8
0
  2
D36
 10
-441.59
 20
-128.3
 41
1.0
 42
1.0
 50
0.0
  0
INSERT
  8
0
  2
D36
 10
-426.69
 20
-108.54
 41
1.0
 42
1.0
 50
0.0
  0
INSERT
  8
0
  2
D36
 10
-244.35
 20
34.53
 41
1.0
 42
1.0
 50
0.0
  0
INSERT
  8
0
  2
D36
 10
-200.0
 20
-45.0
 41
1.0
 42
1.0
 50
0.0
  0
INSERT
  8
0
  2
D36
 10
-200.0
 20
-45.0
 41
1.0
 42
1.0
 50
0.0
  0
INSERT
  8
0
  2
D36
 10
-200.0
 20
-5.0
 41
1.0
 42
1.0
 50
0.0
  0
INSERT
  8
0
  2
D36
 10
-200.0
 20
-5.0
 41
1.0
 42
1.0
 50
0.0
  0
INSERT
  8
0
  2
D36
 10
-200.0
 20
-90.0
 41
1.0
 42
1.0
 50
0.0
  0
INSERT
  8
0
  2
D36
 10
-200.0
 20
-90.0
 41
1.0
 42
1.0
 50
0.0
  0
INSERT
  8
0
  2
D36
 10
-239.37
 20
-45.0
 41
1.0
 42
1.0
 50
0.0
  0
INSERT
  8
0
  2
D36
 10
-230.0
 20
-5.0
 41
1.0
 42
1.0
 50
0.0
  0
INSERT
  8
0
  2
D36
 10
-200.0
 20
35.0
 41
1.0
 42
1.0
 50
0.0
  0
INSERT
  8
0
  2
D36
 10
-200.0
 20
35.0
 41
1.0
 42
1.0
 50
0.0
  0
INSERT
  8
0
  2
D36
 10
-200.0
 20
-140.0
 41
1.0
 42
1.0
 50
0.0
  0
INSERT
  8
0
  2
D36
 10
-35.0
 20
-195.0
 41
1.0
 42
1.0
 50
0.0
  0
INSERT
  8
0
  2
D36
 10
-35.0
 20
-195.0
 41
1.0
 42
1.0
 50
0.0
  0
INSERT
  8
0
  2
D36
 10
90.0
 20
-240.0
 41
1.0
 42
1.0
 50
0.0
  0
INSERT
  8
0
  2
D36
 10
90.0
 20
-240.0
 41
1.0
 42
1.0
 50
0.0
  0
INSERT
  8
0
  2
D36
 10
135.0
 20
-240.0
 41
1.0
 42
1.0
 50
0.0
  0
INSERT
  8
0
  2
D36
 10
135.0
 20
-240.0
 41
1.0
 42
1.0
 50
0.0
  0
INSERT
  8
0
  2
D36
 10
135.0
 20
-310.0
 41
1.0
 42
1.0
 50
0.0
  0
INSERT
  8
0
  2
D36
 10
135.0
 20
-310.0
 41
1.0
 42
1.0
 50
0.0
  0
INSERT
  8
0
  2
D36
 10
275.0
 20
-295.0
 41
1.0
 42
1.0
 50
0.0
  0
INSERT
  8
0
  2
D36
 10
275.0
 20
-295.0
 41
1.0
 42
1.0
 50
0.0
  0
INSERT
  8
0
  2
D36
 10
-330.0
 20
105.0
 41
1.0
 42
1.0
 50
0.0
  0
INSERT
  8
0
  2
D36
 10
-330.0
 20
105.0
 41
1.0
 42
1.0
 50
0.0
  0
INSERT
  8
0
  2
D36
 10
35.0
 20
-165.0
 41
1.0
 42
1.0
 50
0.0
  0
INSERT
  8
0
  2
D36
 10
35.0
 20
-195.0
 41
1.0
 42
1.0
 50
0.0
  0
INSERT
  8
0
  2
D36
 10
-35.0
 20
-165.0
 41
1.0
 42
1.0
 50
0.0
  0
INSERT
  8
0
  2
D36
 10
-35.0
 20
-165.0
 41
1.0
 42
1.0
 50
0.0
  0
INSERT
  8
0
  2
D36
 10
-40.0
 20
-305.0
 41
1.0
 42
1.0
 50
0.0
  0
INSERT
  8
0
  2
D36
 10
-40.0
 20
-350.0
 41
1.0
 42
1.0
 50
0.0
  0
INSERT
  8
0
  2
D36
 10
-40.0
 20
-305.0
 41
1.0
 42
1.0
 50
0.0
  0
INSERT
  8
0
  2
D36
 10
-75.0
 20
170.0
 41
1.0
 42
1.0
 50
0.0
  0
INSERT
  8
0
  2
D36
 10
-75.0
 20
170.0
 41
1.0
 42
1.0
 50
0.0
  0
INSERT
  8
0
  2
D36
 10
-75.0
 20
235.0
 41
1.0
 42
1.0
 50
0.0
  0
INSERT
  8
0
  2
D36
 10
-75.0
 20
235.0
 41
1.0
 42
1.0
 50
0.0
  0
INSERT
  8
0
  2
D36
 10
-75.0
 20
285.0
 41
1.0
 42
1.0
 50
0.0
  0
INSERT
  8
0
  2
D36
 10
-75.0
 20
285.0
 41
1.0
 42
1.0
 50
0.0
  0
INSERT
  8
0
  2
D36
 10
-18.96
 20
-18.05
 41
1.0
 42
1.0
 50
0.0
  0
INSERT
  8
0
  2
D36
 10
-350.0
 20
-395.0
 41
1.0
 42
1.0
 50
0.0
  0
INSERT
  8
0
  2
D36
 10
-350.0
 20
-315.0
 41
1.0
 42
1.0
 50
0.0
  0
INSERT
  8
0
  2
D36
 10
-350.0
 20
-315.0
 41
1.0
 42
1.0
 50
0.0
  0
INSERT
  8
0
  2
D36
 10
-310.0
 20
-315.0
 41
1.0
 42
1.0
 50
0.0
  0
INSERT
  8
0
  2
D36
 10
-310.0
 20
-315.0
 41
1.0
 42
1.0
 50
0.0
  0
INSERT
  8
0
  2
D36
 10
-270.0
 20
-315.0
 41
1.0
 42
1.0
 50
0.0
  0
INSERT
  8
0
  2
D36
 10
-270.0
 20
-315.0
 41
1.0
 42
1.0
 50
0.0
  0
INSERT
  8
0
  2
D36
 10
-230.0
 20
-315.0
 41
1.0
 42
1.0
 50
0.0
  0
INSERT
  8
0
  2
D36
 10
-230.0
 20
-315.0
 41
1.0
 42
1.0
 50
0.0
  0
INSERT
  8
0
  2
D36
 10
-190.0
 20
-315.0
 41
1.0
 42
1.0
 50
0.0
  0
INSERT
  8
0
  2
D36
 10
-190.0
 20
-315.0
 41
1.0
 42
1.0
 50
0.0
  0
INSERT
  8
0
  2
D36
 10
-170.0
 20
-275.0
 41
1.0
 42
1.0
 50
0.0
  0
INSERT
  8
0
  2
D36
 10
-170.0
 20
-275.0
 41
1.0
 42
1.0
 50
0.0
  0
INSERT
  8
0
  2
D36
 10
-220.0
 20
-275.0
 41
1.0
 42
1.0
 50
0.0
  0
INSERT
  8
0
  2
D36
 10
-220.0
 20
-255.0
 41
1.0
 42
1.0
 50
0.0
  0
INSERT
  8
0
  2
D36
 10
-220.0
 20
-255.0
 41
1.0
 42
1.0
 50
0.0
  0
INSERT
  8
0
  2
D36
 10
-240.0
 20
-275.0
 41
1.0
 42
1.0
 50
0.0
  0
INSERT
  8
0
  2
D36
 10
-240.0
 20
-275.0
 41
1.0
 42
1.0
 50
0.0
  0
INSERT
  8
0
  2
D36
 10
-170.0
 20
-235.0
 41
1.0
 42
1.0
 50
0.0
  0
INSERT
  8
0
  2
D36
 10
-240.0
 20
-215.0
 41
1.0
 42
1.0
 50
0.0
  0
INSERT
  8
0
  2
D36
 10
-240.0
 20
-180.0
 41
1.0
 42
1.0
 50
0.0
  0
INSERT
  8
0
  2
D36
 10
-240.0
 20
-180.0
 41
1.0
 42
1.0
 50
0.0
  0
INSERT
  8
0
  2
D36
 10
-240.0
 20
-140.0
 41
1.0
 42
1.0
 50
0.0
  0
INSERT
  8
0
  2
D36
 10
-240.0
 20
-140.0
 41
1.0
 42
1.0
 50
0.0
  0
INSERT
  8
0
  2
D36
 10
-240.0
 20
-255.0
 41
1.0
 42
1.0
 50
0.0
  0
INSERT
  8
0
  2
D36
 10
-270.0
 20
-215.0
 41
1.0
 42
1.0
 50
0.0
  0
INSERT
  8
0
  2
D36
 10
-270.0
 20
-180.0
 41
1.0
 42
1.0
 50
0.0
  0
INSERT
  8
0
  2
D36
 10
-210.0
 20
95.0
 41
1.0
 42
1.0
 50
0.0
  0
INSERT
  8
0
  2
D36
 10
-210.0
 20
125.0
 41
1.0
 42
1.0
 50
0.0
  0
INSERT
  8
0
  2
D36
 10
-120.0
 20
-105.0
 41
1.0
 42
1.0
 50
0.0
  0
INSERT
  8
0
  2
D36
 10
-120.0
 20
-135.0
 41
1.0
 42
1.0
 50
0.0
  0
INSERT
  8
0
  2
D36
 10
-190.0
 20
-345.0
 41
1.0
 42
1.0
 50
0.0
  0
INSERT
  8
0
  2
D36
 10
-130.0
 20
-345.0
 41
1.0
 42
1.0
 50
0.0
  0
INSERT
  8
0
  2
D36
 10
-230.0
 20
-345.0
 41
1.0
 42
1.0
 50
0.0
  0
INSERT
  8
0
  2
D36
 10
5.0
 20
-350.0
 41
1.0
 42
1.0
 50
0.0
  0
INSERT
  8
0
  2
D36
 10
5.0
 20
-320.0
 41
1.0
 42
1.0
 50
0.0
  0
INSERT
  8
0
  2
D36
 10
-100.0
 20
-345.0
 41
1.0
 42
1.0
 50
0.0
  0
INSERT
  8
0
  2
D36
 10
165.0
 20
-310.0
 41
1.0
 42
1.0
 50
0.0
  0
INSERT
  8
0
  2
D36
 10
300.0
 20
-295.0
 41
1.0
 42
1.0
 50
0.0
  0
INSERT
  8
0
  2
D36
 10
250.0
 20
-295.0
 41
1.0
 42
1.0
 50
0.0
  0
INSERT
  8
0
  2
D36
 10
135.0
 20
-210.0
 41
1.0
 42
1.0
 50
0.0
  0
INSERT
  8
0
  2
D36
 10
250.0
 20
-210.0
 41
1.0
 42
1.0
 50
0.0
  0
INSERT
  8
0
  2
D36
 10
275.0
 20
-210.0
 41
1.0
 42
1.0
 50
0.0
  0
INSERT
  8
0
  2
D36
 10
300.0
 20
-210.0
 41
1.0
 42
1.0
 50
0.0
  0
INSERT
  8
0
  2
D36
 10
90.0
 20
-210.0
 41
1.0
 42
1.0
 50
0.0
  0
INSERT
  8
0
  2
D36
 10
70.0
 20
-150.0
 41
1.0
 42
1.0
 50
0.0
  0
INSERT
  8
0
  2
D36
 10
25.0
 20
-110.0
 41
1.0
 42
1.0
 50
0.0
  0
INSERT
  8
0
  2
D36
 10
-60.0
 20
-140.0
 41
1.0
 42
1.0
 50
0.0
  0
INSERT
  8
0
  2
D36
 10
-97.7
 20
44.94
 41
1.0
 42
1.0
 50
0.0
  0
INSERT
  8
0
  2
D36
 10
100.0
 20
-135.0
 41
1.0
 42
1.0
 50
0.0
  0
INSERT
  8
0
  2
D36
 10
130.0
 20
5.0
 41
1.0
 42
1.0
 50
0.0
  0
INSERT
  8
0
  2
D36
 10
35.0
 20
-165.0
 41
1.0
 42
1.0
 50
0.0
  0
INSERT
  8
0
  2
D36
 10
-200.0
 20
-140.0
 41
1.0
 42
1.0
 50
0.0
  0
INSERT
  8
0
  2
D36
 10
-240.0
 20
-215.0
 41
1.0
 42
1.0
 50
0.0
  0
INSERT
  8
0
  2
D36
 10
-240.0
 20
-255.0
 41
1.0
 42
1.0
 50
0.0
  0
INSERT
  8
0
  2
D36
 10
-220.0
 20
-275.0
 41
1.0
 42
1.0
 50
0.0
  0
INSERT
  8
0
  2
D36
 10
-170.0
 20
-235.0
 41
1.0
 42
1.0
 50
0.0
  0
INSERT
  8
0
  2
D36
 10
-350.0
 20
-395.0
 41
1.0
 42
1.0
 50
0.0
  0
INSERT
  8
0
  2
D36
 10
-270.0
 20
-355.0
 41
1.0
 42
1.0
 50
0.0
  0
INSERT
  8
0
  2
D36
 10
-310.0
 20
-345.0
 41
1.0
 42
1.0
 50
0.0
  0
INSERT
  8
0
  2
D36
 10
20.0
 20
-240.0
 41
1.0
 42
1.0
 50
0.0
  0
INSERT
  8
0
  2
D36
 10
20.0
 20
-270.0
 41
1.0
 42
1.0
 50
0.0
  0
INSERT
  8
0
  2
D36
 10
55.0
 20
-270.0
 41
1.0
 42
1.0
 50
0.0
  0
INSERT
  8
0
  2
D36
 10
55.0
 20
-240.0
 41
1.0
 42
1.0
 50
0.0
  0
INSERT
  8
0
  2
D36
 10
185.0
 20
5.0
 41
1.0
 42
1.0
 50
0.0
  0
INSERT
  8
0
  2
D36
 10
185.0
 20
-60.0
 41
1.0
 42
1.0
 50
0.0
  0
INSERT
  8
0
  2
D36
 10
185.0
 20
-60.0
 41
1.0
 42
1.0
 50
0.0
  0
INSERT
  8
0
  2
D36
 10
0.0
 20
-175.0
 41
1.0
 42
1.0
 50
0.0
  0
INSERT
  8
0
  2
D36
 10
-125.0
 20
285.0
 41
1.0
 42
1.0
 50
0.0
  0
INSERT
  8
0
  2
D36
 10
-120.0
 20
170.0
 41
1.0
 42
1.0
 50
0.0
  0
INSERT
  8
0
  2
D36
 10
130.0
 20
-60.0
 41
1.0
 42
1.0
 50
0.0
  0
INSERT
  8
0
  2
D36
 10
-165.0
 20
235.0
 41
1.0
 42
1.0
 50
0.0
  0
INSERT
  8
0
  2
D36
 10
-125.0
 20
235.0
 41
1.0
 42
1.0
 50
0.0
  0
INSERT
  8
0
  2
D36
 10
185.0
 20
-115.0
 41
1.0
 42
1.0
 50
0.0
  0
INSERT
  8
0
  2
D36
 10
60.0
 20
110.0
 41
1.0
 42
1.0
 50
0.0
  0
INSERT
  8
0
  2
D36
 10
100.0
 20
110.0
 41
1.0
 42
1.0
 50
0.0
  0
INSERT
  8
0
  2
D36
 10
100.0
 20
160.0
 41
1.0
 42
1.0
 50
0.0
  0
INSERT
  8
0
  2
D36
 10
60.0
 20
160.0
 41
1.0
 42
1.0
 50
0.0
  0
INSERT
  8
0
  2
D36
 10
100.0
 20
210.0
 41
1.0
 42
1.0
 50
0.0
  0
INSERT
  8
0
  2
D36
 10
60.0
 20
210.0
 41
1.0
 42
1.0
 50
0.0
  0
INSERT
  8
0
  2
D36
 10
60.0
 20
260.0
 41
1.0
 42
1.0
 50
0.0
  0
INSERT
  8
0
  2
D36
 10
60.0
 20
310.0
 41
1.0
 42
1.0
 50
0.0
  0
INSERT
  8
0
  2
D36
 10
60.0
 20
350.0
 41
1.0
 42
1.0
 50
0.0
  0
INSERT
  8
0
  2
D36
 10
270.0
 20
350.0
 41
1.0
 42
1.0
 50
0.0
  0
POLYLINE
  8
G1
 10
0.0
 20
0.0
 40
7.0
 41
7.0
 66
     1
  0
VERTEX
  8
G1
 10
-120.0
 20
-105.0
  0
VERTEX
  8
G1
 10
-120.0
 20
-58.74
  0
SEQEND
  8
0
  0
POLYLINE
  8
G1
 10
0.0
 20
0.0
 40
7.0
 41
7.0
 66
     1
  0
VERTEX
  8
G1
 10
-129.19
 20
-49.55
  0
VERTEX
  8
G1
 10
-120.0
 20
-58.74
  0
SEQEND
  8
0
  0
POLYLINE
  8
G1
 10
0.0
 20
0.0
 40
7.0
 41
7.0
 66
     1
  0
VERTEX
  8
G1
 10
-190.0
 20
-345.0
  0
VERTEX
  8
G1
 10
-130.0
 20
-345.0
  0
SEQEND
  8
0
  0
POLYLINE
  8
G1
 10
0.0
 20
0.0
 40
7.0
 41
7.0
 66
     1
  0
VERTEX
  8
G1
 10
-148.85
 20
-2.31
  0
VERTEX
  8
G1
 10
-129.19
 20
-2.31
  0
SEQEND
  8
0
  0
POLYLINE
  8
G1
 10
0.0
 20
0.0
 40
7.0
 41
7.0
 66
     1
  0
VERTEX
  8
G1
 10
-161.03
 20
-145.41
  0
VERTEX
  8
G1
 10
-161.03
 20
-14.48
  0
SEQEND
  8
0
  0
POLYLINE
  8
G1
 10
0.0
 20
0.0
 40
7.0
 41
7.0
 66
     1
  0
VERTEX
  8
G1
 10
-161.03
 20
-14.48
  0
VERTEX
  8
G1
 10
-148.85
 20
-2.31
  0
SEQEND
  8
0
  0
POLYLINE
  8
G1
 10
0.0
 20
0.0
 40
7.0
 41
7.0
 66
     1
  0
VERTEX
  8
G1
 10
-130.0
 20
-345.0
  0
VERTEX
  8
G1
 10
-130.0
 20
-176.44
  0
SEQEND
  8
0
  0
POLYLINE
  8
G1
 10
0.0
 20
0.0
 40
7.0
 41
7.0
 66
     1
  0
VERTEX
  8
G1
 10
-161.03
 20
-145.41
  0
VERTEX
  8
G1
 10
-130.0
 20
-176.44
  0
SEQEND
  8
0
  0
POLYLINE
  8
G1
 10
0.0
 20
0.0
 40
7.0
 41
7.0
 66
     1
  0
VERTEX
  8
G1
 10
300.0
 20
-316.01
  0
VERTEX
  8
G1
 10
300.0
 20
-295.0
  0
SEQEND
  8
0
  0
POLYLINE
  8
G1
 10
0.0
 20
0.0
 40
7.0
 41
7.0
 66
     1
  0
VERTEX
  8
G1
 10
176.49
 20
-337.98
  0
VERTEX
  8
G1
 10
278.03
 20
-337.98
  0
SEQEND
  8
0
  0
POLYLINE
  8
G1
 10
0.0
 20
0.0
 40
7.0
 41
7.0
 66
     1
  0
VERTEX
  8
G1
 10
165.0
 20
-326.49
  0
VERTEX
  8
G1
 10
176.49
 20
-337.98
  0
SEQEND
  8
0
  0
POLYLINE
  8
G1
 10
0.0
 20
0.0
 40
7.0
 41
7.0
 66
     1
  0
VERTEX
  8
G1
 10
165.0
 20
-326.49
  0
VERTEX
  8
G1
 10
165.0
 20
-310.0
  0
SEQEND
  8
0
  0
POLYLINE
  8
G1
 10
0.0
 20
0.0
 40
7.0
 41
7.0
 66
     1
  0
VERTEX
  8
G1
 10
300.0
 20
-210.0
  0
VERTEX
  8
G1
 10
300.0
 20
-183.88
  0
SEQEND
  8
0
  0
POLYLINE
  8
G1
 10
0.0
 20
0.0
 40
7.0
 41
7.0
 66
     1
  0
VERTEX
  8
G1
 10
276.89
 20
-160.76
  0
VERTEX
  8
G1
 10
300.0
 20
-183.88
  0
SEQEND
  8
0
  0
POLYLINE
  8
G1
 10
0.0
 20
0.0
 40
7.0
 41
7.0
 66
     1
  0
VERTEX
  8
G1
 10
39.39
 20
-73.26
  0
VERTEX
  8
G1
 10
70.0
 20
-103.87
  0
SEQEND
  8
0
  0
POLYLINE
  8
G1
 10
0.0
 20
0.0
 40
7.0
 41
7.0
 66
     1
  0
VERTEX
  8
G1
 10
-18.96
 20
-64.72
  0
VERTEX
  8
G1
 10
-18.96
 20
-49.55
  0
SEQEND
  8
0
  0
POLYLINE
  8
G1
 10
0.0
 20
0.0
 40
7.0
 41
7.0
 66
     1
  0
VERTEX
  8
G1
 10
-18.96
 20
-64.72
  0
VERTEX
  8
G1
 10
-10.41
 20
-73.26
  0
SEQEND
  8
0
  0
POLYLINE
  8
G1
 10
0.0
 20
0.0
 40
7.0
 41
7.0
 66
     1
  0
VERTEX
  8
G1
 10
-10.41
 20
-73.26
  0
VERTEX
  8
G1
 10
39.39
 20
-73.26
  0
SEQEND
  8
0
  0
POLYLINE
  8
G1
 10
0.0
 20
0.0
 40
7.0
 41
7.0
 66
     1
  0
VERTEX
  8
G1
 10
70.0
 20
-150.0
  0
VERTEX
  8
G1
 10
70.0
 20
-103.87
  0
SEQEND
  8
0
  0
POLYLINE
  8
G1
 10
0.0
 20
0.0
 40
7.0
 41
7.0
 66
     1
  0
VERTEX
  8
G1
 10
119.54
 20
-160.76
  0
VERTEX
  8
G1
 10
276.89
 20
-160.76
  0
SEQEND
  8
0
  0
POLYLINE
  8
G1
 10
0.0
 20
0.0
 40
7.0
 41
7.0
 66
     1
  0
VERTEX
  8
G1
 10
90.0
 20
-210.0
  0
VERTEX
  8
G1
 10
90.0
 20
-190.31
  0
SEQEND
  8
0
  0
POLYLINE
  8
G1
 10
0.0
 20
0.0
 40
7.0
 41
7.0
 66
     1
  0
VERTEX
  8
G1
 10
90.0
 20
-190.31
  0
VERTEX
  8
G1
 10
119.54
 20
-160.76
  0
SEQEND
  8
0
  0
POLYLINE
  8
G1
 10
0.0
 20
0.0
 40
7.0
 41
7.0
 66
     1
  0
VERTEX
  8
G1
 10
70.0
 20
-150.0
  0
VERTEX
  8
G1
 10
90.0
 20
-170.0
  0
SEQEND
  8
0
  0
POLYLINE
  8
G1
 10
0.0
 20
0.0
 40
7.0
 41
7.0
 66
     1
  0
VERTEX
  8
G1
 10
90.0
 20
-190.31
  0
VERTEX
  8
G1
 10
90.0
 20
-170.0
  0
SEQEND
  8
0
  0
POLYLINE
  8
G1
 10
0.0
 20
0.0
 40
7.0
 41
7.0
 66
     1
  0
VERTEX
  8
G1
 10
100.0
 20
-135.0
  0
VERTEX
  8
G1
 10
100.0
 20
-78.29
  0
SEQEND
  8
0
  0
POLYLINE
  8
G1
 10
0.0
 20
0.0
 40
7.0
 41
7.0
 66
     1
  0
VERTEX
  8
G1
 10
71.26
 20
-49.55
  0
VERTEX
  8
G1
 10
100.0
 20
-78.29
  0
SEQEND
  8
0
  0
POLYLINE
  8
G1
 10
0.0
 20
0.0
 40
7.0
 41
7.0
 66
     1
  0
VERTEX
  8
G1
 10
-3.21
 20
-49.55
  0
VERTEX
  8
G1
 10
71.26
 20
-49.55
  0
SEQEND
  8
0
  0
POLYLINE
  8
G1
 10
0.0
 20
0.0
 40
7.0
 41
7.0
 66
     1
  0
VERTEX
  8
G1
 10
289.01
 20
-326.99
  0
VERTEX
  8
G1
 10
317.72
 20
-326.99
  0
SEQEND
  8
0
  0
POLYLINE
  8
G1
 10
0.0
 20
0.0
 40
7.0
 41
7.0
 66
     1
  0
VERTEX
  8
G1
 10
317.72
 20
-326.99
  0
VERTEX
  8
G1
 10
326.52
 20
-318.2
  0
SEQEND
  8
0
  0
POLYLINE
  8
G1
 10
0.0
 20
0.0
 40
7.0
 41
7.0
 66
     1
  0
VERTEX
  8
G1
 10
278.03
 20
-337.98
  0
VERTEX
  8
G1
 10
289.01
 20
-326.99
  0
SEQEND
  8
0
  0
POLYLINE
  8
G1
 10
0.0
 20
0.0
 40
7.0
 41
7.0
 66
     1
  0
VERTEX
  8
G1
 10
289.01
 20
-326.99
  0
VERTEX
  8
G1
 10
300.0
 20
-316.01
  0
SEQEND
  8
0
  0
POLYLINE
  8
G1
 10
0.0
 20
0.0
 40
7.0
 41
7.0
 66
     1
  0
VERTEX
  8
G1
 10
100.0
 20
-135.0
  0
VERTEX
  8
G1
 10
280.22
 20
-135.0
  0
SEQEND
  8
0
  0
POLYLINE
  8
G1
 10
0.0
 20
0.0
 40
7.0
 41
7.0
 66
     1
  0
VERTEX
  8
G1
 10
280.22
 20
-135.0
  0
VERTEX
  8
G1
 10
326.52
 20
-181.3
  0
SEQEND
  8
0
  0
POLYLINE
  8
G1
 10
0.0
 20
0.0
 40
7.0
 41
7.0
 66
     1
  0
VERTEX
  8
G1
 10
326.52
 20
-318.2
  0
VERTEX
  8
G1
 10
326.52
 20
-181.3
  0
SEQEND
  8
0
  0
POLYLINE
  8
G1
 10
0.0
 20
0.0
 40
8.0
 41
8.0
 66
     1
  0
VERTEX
  8
G1
 10
-210.0
 20
95.0
  0
VERTEX
  8
G1
 10
-190.0
 20
95.0
  0
SEQEND
  8
0
  0
POLYLINE
  8
G1
 10
0.0
 20
0.0
 40
8.0
 41
8.0
 66
     1
  0
VERTEX
  8
G1
 10
-190.0
 20
95.0
  0
VERTEX
  8
G1
 10
-139.94
 20
44.94
  0
SEQEND
  8
0
  0
POLYLINE
  8
G1
 10
0.0
 20
0.0
 40
8.0
 41
8.0
 66
     1
  0
VERTEX
  8
G1
 10
-139.94
 20
44.94
  0
VERTEX
  8
G1
 10
-129.2
 20
44.94
  0
SEQEND
  8
0
  0
POLYLINE
  8
G1
 10
0.0
 20
0.0
 40
8.0
 41
8.0
 66
     1
  0
VERTEX
  8
G1
 10
-40.0
 20
-350.0
  0
VERTEX
  8
G1
 10
5.0
 20
-350.0
  0
SEQEND
  8
0
  0
POLYLINE
  8
G1
 10
0.0
 20
0.0
 40
8.0
 41
8.0
 66
     1
  0
VERTEX
  8
G1
 10
3.86
 20
-88.86
  0
VERTEX
  8
G1
 10
25.0
 20
-110.0
  0
SEQEND
  8
0
  0
POLYLINE
  8
G1
 10
0.0
 20
0.0
 40
8.0
 41
8.0
 66
     1
  0
VERTEX
  8
G1
 10
-34.71
 20
-76.92
  0
VERTEX
  8
G1
 10
-34.71
 20
-49.55
  0
SEQEND
  8
0
  0
POLYLINE
  8
G1
 10
0.0
 20
0.0
 40
8.0
 41
8.0
 66
     1
  0
VERTEX
  8
G1
 10
-34.71
 20
-76.92
  0
VERTEX
  8
G1
 10
-22.77
 20
-88.86
  0
SEQEND
  8
0
  0
POLYLINE
  8
G1
 10
0.0
 20
0.0
 40
8.0
 41
8.0
 66
     1
  0
VERTEX
  8
G1
 10
-22.77
 20
-88.86
  0
VERTEX
  8
G1
 10
3.86
 20
-88.86
  0
SEQEND
  8
0
  0
POLYLINE
  8
G1
 10
0.0
 20
0.0
 40
8.0
 41
8.0
 66
     1
  0
VERTEX
  8
G1
 10
100.0
 20
110.0
  0
VERTEX
  8
G1
 10
100.0
 20
160.0
  0
SEQEND
  8
0
  0
POLYLINE
  8
G1
 10
0.0
 20
0.0
 40
8.0
 41
8.0
 66
     1
  0
VERTEX
  8
G1
 10
60.0
 20
160.0
  0
VERTEX
  8
G1
 10
60.0
 20
210.0
  0
SEQEND
  8
0
  0
POLYLINE
  8
G1
 10
0.0
 20
0.0
 40
8.0
 41
8.0
 66
     1
  0
VERTEX
  8
G1
 10
60.0
 20
210.0
  0
VERTEX
  8
G1
 10
60.0
 20
260.0
  0
SEQEND
  8
0
  0
POLYLINE
  8
G1
 10
0.0
 20
0.0
 40
8.0
 41
8.0
 66
     1
  0
VERTEX
  8
G1
 10
60.0
 20
260.0
  0
VERTEX
  8
G1
 10
60.0
 20
310.0
  0
SEQEND
  8
0
  0
POLYLINE
  8
G1
 10
0.0
 20
0.0
 40
8.0
 41
8.0
 66
     1
  0
VERTEX
  8
G1
 10
-18.96
 20
44.94
  0
VERTEX
  8
G1
 10
46.11
 20
110.0
  0
SEQEND
  8
0
  0
POLYLINE
  8
G1
 10
0.0
 20
0.0
 40
8.0
 41
8.0
 66
     1
  0
VERTEX
  8
G1
 10
46.11
 20
110.0
  0
VERTEX
  8
G1
 10
60.0
 20
110.0
  0
SEQEND
  8
0
  0
POLYLINE
  8
G1
 10
0.0
 20
0.0
 40
7.0
 41
7.0
 66
     1
  0
VERTEX
  8
G1
 10
-113.44
 20
-49.55
  0
VERTEX
  8
G1
 10
-106.07
 20
-56.93
  0
SEQEND
  8
0
  0
POLYLINE
  8
G1
 10
0.0
 20
0.0
 40
7.0
 41
7.0
 66
     1
  0
VERTEX
  8
G1
 10
-106.07
 20
-84.85
  0
VERTEX
  8
G1
 10
-106.07
 20
-56.93
  0
SEQEND
  8
0
  0
POLYLINE
  8
G1
 10
0.0
 20
0.0
 40
7.0
 41
7.0
 66
     1
  0
VERTEX
  8
G1
 10
135.0
 20
-210.0
  0
VERTEX
  8
G1
 10
135.0
 20
-186.98
  0
SEQEND
  8
0
  0
POLYLINE
  8
G1
 10
0.0
 20
0.0
 40
7.0
 41
7.0
 66
     1
  0
VERTEX
  8
G1
 10
250.0
 20
-210.0
  0
VERTEX
  8
G1
 10
250.0
 20
-189.26
  0
SEQEND
  8
0
  0
POLYLINE
  8
G1
 10
0.0
 20
0.0
 40
7.0
 41
7.0
 66
     1
  0
VERTEX
  8
G1
 10
135.0
 20
-186.98
  0
VERTEX
  8
G1
 10
146.4
 20
-175.58
  0
SEQEND
  8
0
  0
POLYLINE
  8
G1
 10
0.0
 20
0.0
 40
7.0
 41
7.0
 66
     1
  0
VERTEX
  8
G1
 10
146.4
 20
-175.58
  0
VERTEX
  8
G1
 10
236.33
 20
-175.58
  0
SEQEND
  8
0
  0
POLYLINE
  8
G1
 10
0.0
 20
0.0
 40
7.0
 41
7.0
 66
     1
  0
VERTEX
  8
G1
 10
236.33
 20
-175.58
  0
VERTEX
  8
G1
 10
250.0
 20
-189.26
  0
SEQEND
  8
0
  0
POLYLINE
  8
G1
 10
0.0
 20
0.0
 40
7.0
 41
7.0
 66
     1
  0
VERTEX
  8
G1
 10
-60.1
 20
-43.45
  0
VERTEX
  8
G1
 10
-50.45
 20
-33.8
  0
SEQEND
  8
0
  0
POLYLINE
  8
G1
 10
0.0
 20
0.0
 40
7.0
 41
7.0
 66
     1
  0
VERTEX
  8
G1
 10
-60.1
 20
-78.52
  0
VERTEX
  8
G1
 10
-59.38
 20
-78.52
  0
SEQEND
  8
0
  0
POLYLINE
  8
G1
 10
0.0
 20
0.0
 40
7.0
 41
7.0
 66
     1
  0
VERTEX
  8
G1
 10
-60.1
 20
-78.52
  0
VERTEX
  8
G1
 10
-60.1
 20
-43.45
  0
SEQEND
  8
0
  0
POLYLINE
  8
G1
 10
0.0
 20
0.0
 40
7.0
 41
7.0
 66
     1
  0
VERTEX
  8
G1
 10
-59.38
 20
-79.35
  0
VERTEX
  8
G1
 10
-59.38
 20
-78.52
  0
SEQEND
  8
0
  0
POLYLINE
  8
G1
 10
0.0
 20
0.0
 40
7.0
 41
7.0
 66
     1
  0
VERTEX
  8
G1
 10
-59.38
 20
-79.35
  0
VERTEX
  8
G1
 10
-22.83
 20
-115.91
  0
SEQEND
  8
0
  0
POLYLINE
  8
G1
 10
0.0
 20
0.0
 40
15.0
 41
15.0
 66
     1
  0
VERTEX
  8
G1
 10
-18.96
 20
-2.31
  0
VERTEX
  8
G1
 10
60.52
 20
-2.31
  0
SEQEND
  8
0
  0
POLYLINE
  8
G1
 10
0.0
 20
0.0
 40
15.0
 41
15.0
 66
     1
  0
VERTEX
  8
G1
 10
60.52
 20
-2.31
  0
VERTEX
  8
G1
 10
67.82
 20
5.0
  0
SEQEND
  8
0
  0
POLYLINE
  8
G1
 10
0.0
 20
0.0
 40
15.0
 41
15.0
 66
     1
  0
VERTEX
  8
G1
 10
67.82
 20
5.0
  0
VERTEX
  8
G1
 10
130.0
 20
5.0
  0
SEQEND
  8
0
  0
POLYLINE
  8
G1
 10
0.0
 20
0.0
 40
15.0
 41
15.0
 66
     1
  0
VERTEX
  8
G1
 10
-125.0
 20
235.0
  0
VERTEX
  8
G1
 10
-125.0
 20
285.0
  0
SEQEND
  8
0
  0
POLYLINE
  8
G1
 10
0.0
 20
0.0
 40
15.0
 41
15.0
 66
     1
  0
VERTEX
  8
G1
 10
-125.0
 20
211.73
  0
VERTEX
  8
G1
 10
-125.0
 20
235.0
  0
SEQEND
  8
0
  0
POLYLINE
  8
G1
 10
0.0
 20
0.0
 40
15.0
 41
15.0
 66
     1
  0
VERTEX
  8
G1
 10
-125.0
 20
211.73
  0
VERTEX
  8
G1
 10
-120.0
 20
206.73
  0
SEQEND
  8
0
  0
POLYLINE
  8
G1
 10
0.0
 20
0.0
 40
15.0
 41
15.0
 66
     1
  0
VERTEX
  8
G1
 10
-120.0
 20
170.0
  0
VERTEX
  8
G1
 10
-120.0
 20
206.73
  0
SEQEND
  8
0
  0
POLYLINE
  8
G1
 10
0.0
 20
0.0
 40
15.0
 41
15.0
 66
     1
  0
VERTEX
  8
G1
 10
-120.0
 20
121.52
  0
VERTEX
  8
G1
 10
-120.0
 20
170.0
  0
SEQEND
  8
0
  0
POLYLINE
  8
G1
 10
0.0
 20
0.0
 40
15.0
 41
15.0
 66
     1
  0
VERTEX
  8
G1
 10
-120.0
 20
121.52
  0
VERTEX
  8
G1
 10
-113.45
 20
114.97
  0
SEQEND
  8
0
  0
POLYLINE
  8
G1
 10
0.0
 20
0.0
 40
15.0
 41
15.0
 66
     1
  0
VERTEX
  8
G1
 10
-113.45
 20
60.69
  0
VERTEX
  8
G1
 10
-113.45
 20
114.97
  0
SEQEND
  8
0
  0
POLYLINE
  8
G1
 10
0.0
 20
0.0
 40
15.0
 41
15.0
 66
     1
  0
VERTEX
  8
G1
 10
185.0
 20
-115.0
  0
VERTEX
  8
G1
 10
185.0
 20
-60.0
  0
SEQEND
  8
0
  0
ENDSEC
  0
EOF
